{
.appVersion = "1312";
classes = (
{
automatic = 1;

glyphs = (
{
color = 10;
glyphname = A;
layers = (
{
anchors = (
{
name = bottom;
position = "{353, 0}";
},
{
name = ogonek;
position = "{650, 10}";
},
{
name = top;
position = "{353, 644}";
}
);
layerId = "0E5388DE-A0E6-4EB4-BC9B-CE5870C9023F";
paths = (
{
closed = 1;
nodes = (
"375 644 LINE",
"335 644 LINE",
"95 26 LINE",
"27 12 LINE",
"27 0 LINE",
"260 0 LINE",
"260 10 LINE",
"216 17 OFFCURVE",
"173 22 OFFCURVE",
"128 26 CURVE",
"358 627 LINE",
"348 627 LINE",
"569 26 LINE",
"456 12 LINE",
"456 0 LINE",
"680 0 LINE",
"680 10 LINE",
"656 16 OFFCURVE",
"631 21 OFFCURVE",
"606 25 CURVE"
);
},
{
closed = 1;
nodes = (
"502 235 LINE",
"502 265 LINE",
"198 265 LINE",
"198 235 LINE"
);
}
);
width = 706;
},
{
anchors = (
{
name = bottom;
position = "{312, 0}";
},
{
name = ogonek;
position = "{687, 0}";
},
{
name = top;
position = "{340, 660}";
}
);
layerId = "BFC82823-8905-47CE-90FC-B44BF62F9018";
paths = (
{
closed = 1;
nodes = (
"463 660 LINE",
"216 660 LINE",
"33 117 LINE",
"-34 73 LINE",
"-34 0 LINE",
"274 0 LINE",
"274 77 LINE",
"247 91 OFFCURVE",
"221 105 OFFCURVE",
"192 115 CURVE",
"329 593 LINE",
"278 593 LINE",
"412 105 LINE",
"340 73 LINE",
"340 0 LINE",
"715 0 LINE",
"715 77 LINE",
"696 86 OFFCURVE",
"676 96 OFFCURVE",
"656 104 CURVE"
);
},
{
closed = 1;
nodes = (
"542 158 LINE",
"542 271 LINE",
"130 271 LINE",
"130 158 LINE"
);
}
);
width = 683;
}
);
leftKerningGroup = A;
rightKerningGroup = A;
unicode = 0041;
},
{
color = 10;
glyphname = AE;
layers = (
{
anchors = (
{
name = bottom;
position = "{473, 0}";
},
{
name = top;
position = "{543, 644}";
}
);
layerId = "0E5388DE-A0E6-4EB4-BC9B-CE5870C9023F";
paths = (
{
closed = 1;
nodes = (
"801 30 LINE",
"573 30 LINE",
"590 17 LINE",
"420 627 LINE",
"411 614 LINE",
"774 614 LINE",
"804 460 LINE",
"812 460 LINE",
"812 644 LINE",
"251 644 LINE",
"251 633 LINE",
"363 617 LINE",
"77 27 LINE",
"27 12 LINE",
"27 0 LINE",
"239 0 LINE",
"239 10 LINE",
"196 17 OFFCURVE",
"154 22 OFFCURVE",
"110 26 CURVE",
"398 626 LINE",
"388 627 LINE",
"552 26 LINE",
"436 12 LINE",
"436 0 LINE",
"840 0 LINE",
"840 205 LINE",
"832 205 LINE"
);
},
{
closed = 1;
nodes = (
"726 232 LINE",
"726 441 LINE",
"719 441 LINE",
"686 336 LINE",
"719 232 LINE"
);
},
{
closed = 1;
nodes = (
"505 235 LINE",
"505 265 LINE",
"201 265 LINE",
"201 235 LINE"
);
},
{
closed = 1;
nodes = (
"715 321 LINE",
"715 351 LINE",
"486 351 LINE",
"486 321 LINE"
);
}
);
width = 938;
},
{
anchors = (
{
name = bottom;
position = "{480, 0}";
},
{
name = top;
position = "{575, 660}";
}
);
layerId = "BFC82823-8905-47CE-90FC-B44BF62F9018";
paths = (
{
closed = 1;
nodes = (
"814 127 LINE",
"543 127 LINE",
"656 35 LINE",
"532 625 LINE",
"457 533 LINE",
"786 533 LINE",
"832 433 LINE",
"918 433 LINE",
"918 660 LINE",
"130 660 LINE",
"130 583 LINE",
"223 552 LINE",
"22 115 LINE",
"-35 71 LINE",
"-35 0 LINE",
"251 0 LINE",
"251 74 LINE",
"229 86 OFFCURVE",
"206 97 OFFCURVE",
"182 106 CURVE",
"389 610 LINE",
"339 616 LINE",
"421 110 LINE",
"331 71 LINE",
"331 0 LINE",
"949 0 LINE",
"949 245 LINE",
"864 245 LINE"
);
},
{
closed = 1;
nodes = (
"781 200 LINE",
"781 459 LINE",
"703 459 LINE",
"638 330 LINE",
"703 200 LINE"
);
},
{
closed = 1;
nodes = (
"537 158 LINE",
"539 271 LINE",
"143 271 LINE",
"141 158 LINE"
);
},
{
closed = 1;
nodes = (
"750 271 LINE",
"752 395 LINE",
"491 395 LINE",
"490 271 LINE"
);
}
);
width = 982;
}
);
leftKerningGroup = A;
rightKerningGroup = E;
unicode = 00C6;
},
{
color = 10;
glyphname = B;
layers = (
{
anchors = (
{
name = bottom;
position = "{333, 0}";
},
{
name = top;
position = "{333, 644}";
}
);
layerId = "0E5388DE-A0E6-4EB4-BC9B-CE5870C9023F";
paths = (
{
closed = 1;
nodes = (
"499 362 OFFCURVE",
"555 424 OFFCURVE",
"555 498 CURVE SMOOTH",
"555 585 OFFCURVE",
"481 644 OFFCURVE",
"371 644 CURVE SMOOTH",
"48 644 LINE",
"48 633 LINE",
"173 615 LINE",
"165 29 LINE",
"107 27 OFFCURVE",
"70 21 OFFCURVE",
"48 10 CURVE",
"48 0 LINE",
"363 0 LINE SMOOTH",
"501 0 OFFCURVE",
"588 68 OFFCURVE",
"588 175 CURVE SMOOTH",
"588 256 OFFCURVE",
"520 319 OFFCURVE",
"414 337 CURVE"
);
},
{
closed = 1;
nodes = (
"203 627 LINE",
"190 614 LINE",
"368 614 LINE SMOOTH",
"463 614 OFFCURVE",
"522 567 OFFCURVE",
"522 492 CURVE SMOOTH",
"522 426 OFFCURVE",
"474 377 OFFCURVE",
"381 348 CURVE",
"196 348 LINE",
"196 318 LINE",
"360 318 LINE SMOOTH",
"476 318 OFFCURVE",
"554 258 OFFCURVE",
"554 170 CURVE SMOOTH",
"554 99 OFFCURVE",
"503 47 OFFCURVE",
"419 30 CURVE",
"190 30 LINE",
"203 17 LINE"
);
}
);
width = 666;
},
{
anchors = (
{
name = bottom;
position = "{351, 0}";
},
{
name = top;
position = "{351, 660}";
}
);
layerId = "BFC82823-8905-47CE-90FC-B44BF62F9018";
paths = (
{
closed = 1;
nodes = (
"620 367 OFFCURVE",
"672 427 OFFCURVE",
"672 503 CURVE SMOOTH",
"672 603 OFFCURVE",
"583 660 OFFCURVE",
"427 660 CURVE SMOOTH",
"9 660 LINE",
"9 580 LINE",
"98 549 LINE",
"85 107 LINE",
"51 94 OFFCURVE",
"29 84 OFFCURVE",
"9 73 CURVE",
"9 0 LINE",
"415 0 LINE SMOOTH",
"592 0 OFFCURVE",
"693 66 OFFCURVE",
"693 181 CURVE SMOOTH",
"693 264 OFFCURVE",
"641 316 OFFCURVE",
"531 339 CURVE"
);
},
{
closed = 1;
nodes = (
"310 627 LINE",
"216 533 LINE",
"369 533 LINE SMOOTH",
"419 533 OFFCURVE",
"445 509 OFFCURVE",
"445 462 CURVE SMOOTH",
"445 433 OFFCURVE",
"433 410 OFFCURVE",
"409 389 CURVE",
"294 389 LINE",
"294 263 LINE",
"399 263 LINE SMOOTH",
"443 263 OFFCURVE",
"466 240 OFFCURVE",
"466 195 CURVE SMOOTH",
"466 162 OFFCURVE",
"456 141 OFFCURVE",
"430 126 CURVE",
"216 126 LINE",
"310 32 LINE"
);
}
);
width = 711;
}
);
leftKerningGroup = H;
rightKerningGroup = B;
unicode = 0042;
},
{
color = 10;
glyphname = C;
layers = (
{
anchors = (
{
name = bottom;
position = "{386, 0}";
},
{
name = top;
position = "{386, 644}";
}
);
layerId = "0E5388DE-A0E6-4EB4-BC9B-CE5870C9023F";
paths = (
{
closed = 1;
nodes = (
"441 -6 OFFCURVE",
"495 1 OFFCURVE",
"558 16 CURVE",
"553 48 LINE",
"496 32 OFFCURVE",
"444 25 OFFCURVE",
"397 25 CURVE SMOOTH",
"221 25 OFFCURVE",
"114 130 OFFCURVE",
"114 316 CURVE SMOOTH",
"114 414 OFFCURVE",
"143 503 OFFCURVE",
"198 577 CURVE",
"185 566 LINE",
"255 602 OFFCURVE",
"329 620 OFFCURVE",
"405 620 CURVE SMOOTH",
"454 620 OFFCURVE",
"504 612 OFFCURVE",
"553 597 CURVE",
"558 632 LINE",
"504 646 OFFCURVE",
"450 653 OFFCURVE",
"403 653 CURVE SMOOTH",
"203 653 OFFCURVE",
"80 527 OFFCURVE",
"80 321 CURVE SMOOTH",
"80 109 OFFCURVE",
"190 -6 OFFCURVE",
"391 -6 CURVE SMOOTH"
);
},
{
closed = 1;
nodes = (
"558 16 LINE",
"558 197 LINE",
"550 197 LINE",
"512 16 LINE"
);
},
{
closed = 1;
nodes = (
"558 451 LINE",
"558 632 LINE",
"512 632 LINE",
"550 451 LINE"
);
}
);
width = 666;
},
{
anchors = (
{
name = bottom;
position = "{360, 0}";
},
{
name = top;
position = "{360, 660}";
}
);
background = {
paths = (
{
closed = 1;
nodes = (
"415 -13 OFFCURVE",
"494 -1 OFFCURVE",
"585 24 CURVE",
"519 174 LINE",
"455 146 OFFCURVE",
"404 131 OFFCURVE",
"363 131 CURVE SMOOTH",
"278 131 OFFCURVE",
"244 195 OFFCURVE",
"244 327 CURVE SMOOTH",
"244 402 OFFCURVE",
"254 463 OFFCURVE",
"277 524 CURVE",
"288 524 OFFCURVE",
"298 525 OFFCURVE",
"309 525 CURVE SMOOTH",
"391 525 OFFCURVE",
"464 511 OFFCURVE",
"531 490 CURVE",
"585 645 LINE",
"507 665 OFFCURVE",
"433 674 OFFCURVE",
"372 674 CURVE SMOOTH",
"147 674 OFFCURVE",
"14 545 OFFCURVE",
"14 323 CURVE SMOOTH",
"14 110 OFFCURVE",
"137 -13 OFFCURVE",
"347 -13 CURVE SMOOTH"
);
},
{
closed = 1;
nodes = (
"585 24 LINE",
"585 255 LINE",
"491 255 LINE",
"383 20 LINE"
);
},
{
closed = 1;
nodes = (
"585 415 LINE",
"585 645 LINE",
"384 648 LINE",
"491 415 LINE"
);
}
);
};
layerId = "BFC82823-8905-47CE-90FC-B44BF62F9018";
paths = (
{
closed = 1;
nodes = (
"415 -13 OFFCURVE",
"494 -1 OFFCURVE",
"585 24 CURVE",
"519 174 LINE",
"455 146 OFFCURVE",
"404 131 OFFCURVE",
"363 131 CURVE SMOOTH",
"278 131 OFFCURVE",
"244 195 OFFCURVE",
"244 327 CURVE SMOOTH",
"244 425 OFFCURVE",
"262 500 OFFCURVE",
"302 580 CURVE",
"215 517 LINE",
"248 522 OFFCURVE",
"282 525 OFFCURVE",
"315 525 CURVE SMOOTH",
"388 525 OFFCURVE",
"460 512 OFFCURVE",
"531 490 CURVE",
"585 645 LINE",
"507 665 OFFCURVE",
"433 674 OFFCURVE",
"372 674 CURVE SMOOTH",
"147 674 OFFCURVE",
"14 545 OFFCURVE",
"14 323 CURVE SMOOTH",
"14 110 OFFCURVE",
"137 -13 OFFCURVE",
"347 -13 CURVE SMOOTH"
);
},
{
closed = 1;
nodes = (
"585 24 LINE",
"585 255 LINE",
"491 255 LINE",
"383 20 LINE"
);
},
{
closed = 1;
nodes = (
"585 415 LINE",
"585 645 LINE",
"384 648 LINE",
"491 415 LINE"
);
}
);
width = 636;
}
);
leftKerningGroup = O;
rightKerningGroup = C;
unicode = 0043;
},
{
color = 10;
glyphname = D;
layers = (
{
anchors = (
{
name = bottom;
position = "{280, 0}";
},
{
name = center;
position = "{212, 334}";
},
{
name = top;
position = "{350, 644}";
}
);
layerId = "0E5388DE-A0E6-4EB4-BC9B-CE5870C9023F";
paths = (
{
closed = 1;
nodes = (
"48 644 LINE",
"48 633 LINE",
"173 615 LINE",
"165 29 LINE",
"121 27 OFFCURVE",
"82 21 OFFCURVE",
"48 10 CURVE",
"48 0 LINE",
"375 0 LINE SMOOTH",
"537 0 OFFCURVE",
"654 138 OFFCURVE",
"654 329 CURVE SMOOTH",
"654 517 OFFCURVE",
"541 644 OFFCURVE",
"375 644 CURVE SMOOTH"
);
},
{
closed = 1;
nodes = (
"190 30 LINE",
"203 17 LINE",
"203 627 LINE",
"190 614 LINE",
"375 614 LINE SMOOTH",
"523 614 OFFCURVE",
"619 500 OFFCURVE",
"619 324 CURVE SMOOTH",
"619 182 OFFCURVE",
"555 80 OFFCURVE",
"436 30 CURVE"
);
}
);
width = 732;
},
{
anchors = (
{
name = bottom;
position = "{351, 0}";
},
{
name = center;
position = "{207, 330}";
},
{
name = top;
position = "{370, 660}";
}
);
layerId = "BFC82823-8905-47CE-90FC-B44BF62F9018";
paths = (
{
closed = 1;
nodes = (
"8 660 LINE",
"8 580 LINE",
"99 549 LINE",
"86 107 LINE",
"54 96 OFFCURVE",
"30 85 OFFCURVE",
"8 73 CURVE",
"8 0 LINE",
"385 0 LINE SMOOTH",
"600 0 OFFCURVE",
"725 126 OFFCURVE",
"725 344 CURVE SMOOTH",
"725 547 OFFCURVE",
"618 660 OFFCURVE",
"426 660 CURVE SMOOTH"
);
},
{
closed = 1;
nodes = (
"217 129 LINE",
"311 35 LINE",
"311 625 LINE",
"217 531 LINE",
"387 531 LINE SMOOTH",
"424 531 OFFCURVE",
"497 531 OFFCURVE",
"497 324 CURVE SMOOTH",
"497 215 OFFCURVE",
"478 157 OFFCURVE",
"431 129 CURVE"
);
}
);
width = 739;
}
);
leftKerningGroup = H;
rightKerningGroup = O;
unicode = 0044;
},
{
color = 10;
glyphname = E;
layers = (
{
anchors = (
{
name = bottom;
position = "{339, 0}";
},
{
name = ogonek;
position = "{570, 10}";
},
{
name = top;
position = "{349, 644}";
},
{
name = topleft;
position = "{41, 644}";
}
);
layerId = "0E5388DE-A0E6-4EB4-BC9B-CE5870C9023F";
paths = (
{
closed = 1;
nodes = (
"530 30 LINE",
"190 30 LINE",
"203 17 LINE",
"203 319 LINE",
"427 319 LINE",
"455 230 LINE",
"462 230 LINE",
"462 439 LINE",
"455 439 LINE",
"427 349 LINE",
"203 349 LINE",
"203 627 LINE",
"190 614 LINE",
"521 614 LINE",
"551 460 LINE",
"559 460 LINE",
"559 644 LINE",
"48 644 LINE",
"48 633 LINE",
"173 615 LINE",
"165 29 LINE",
"128 27 OFFCURVE",
"89 21 OFFCURVE",
"48 10 CURVE",
"48 0 LINE",
"569 0 LINE",
"569 205 LINE",
"561 205 LINE"
);
}
);
width = 676;
},
{
anchors = (
{
name = bottom;
position = "{362, 0}";
},
{
name = ogonek;
position = "{662, 10}";
},
{
name = top;
position = "{362, 660}";
},
{
name = topleft;
position = "{9, 660}";
}
);
layerId = "BFC82823-8905-47CE-90FC-B44BF62F9018";
paths = (
{
closed = 1;
nodes = (
"516 128 LINE",
"216 128 LINE",
"310 34 LINE",
"310 269 LINE",
"386 269 LINE",
"423 195 LINE",
"503 195 LINE",
"503 465 LINE",
"423 465 LINE",
"388 395 LINE",
"310 395 LINE",
"310 627 LINE",
"216 533 LINE",
"510 533 LINE",
"557 432 LINE",
"646 432 LINE",
"646 660 LINE",
"8 660 LINE",
"8 580 LINE",
"98 549 LINE",
"85 107 LINE",
"58 98 OFFCURVE",
"33 87 OFFCURVE",
"8 73 CURVE",
"8 0 LINE",
"655 0 LINE",
"655 246 LINE",
"567 246 LINE"
);
}
);
width = 699;
}
);
leftKerningGroup = H;
rightKerningGroup = E;
unicode = 0045;
},
{
color = 10;
glyphname = F;
layers = (
{
anchors = (
{
name = bottom;
position = "{187, 0}";
},
{
name = center;
position = "{191, 162}";
},
{
name = top;
position = "{337, 644}";
}
);
layerId = "0E5388DE-A0E6-4EB4-BC9B-CE5870C9023F";
paths = (
{
closed = 1;
nodes = (
"48 644 LINE",
"48 633 LINE",
"173 615 LINE",
"165 29 LINE",
"128 27 OFFCURVE",
"89 21 OFFCURVE",
"48 10 CURVE",
"48 0 LINE",
"345 0 LINE",
"345 12 LINE",
"203 30 LINE",
"203 305 LINE",
"402 305 LINE",
"430 216 LINE",
"437 216 LINE",
"437 425 LINE",
"430 425 LINE",
"402 335 LINE",
"203 335 LINE",
"203 627 LINE",
"190 614 LINE",
"488 614 LINE",
"518 460 LINE",
"526 460 LINE",
"526 644 LINE"
);
}
);
width = 591;
},
{
anchors = (
{
name = bottom;
position = "{330, 0}";
},
{
name = center;
position = "{199, 174}";
},
{
name = top;
position = "{330, 660}";
}
);
layerId = "BFC82823-8905-47CE-90FC-B44BF62F9018";
paths = (
{
closed = 1;
nodes = (
"8 660 LINE",
"8 580 LINE",
"98 549 LINE",
"85 107 LINE",
"58 98 OFFCURVE",
"33 87 OFFCURVE",
"8 73 CURVE",
"8 0 LINE",
"426 0 LINE",
"426 81 LINE",
"310 103 LINE",
"310 242 LINE",
"392 242 LINE",
"429 168 LINE",
"509 168 LINE",
"509 437 LINE",
"429 437 LINE",
"395 368 LINE",
"310 368 LINE",
"310 627 LINE",
"216 533 LINE",
"511 533 LINE",
"559 426 LINE",
"648 426 LINE",
"648 660 LINE"
);
}
);
width = 642;
}
);
leftKerningGroup = H;
rightKerningGroup = F;
unicode = 0046;
},
{
color = 10;
glyphname = G;
layers = (
{
anchors = (
{
name = bottom;
position = "{396, 0}";
},
{
name = top;
position = "{416, 644}";
}
);
background = {
paths = (
{
closed = 1;
nodes = (
"451 -6 OFFCURVE",
"508 1 OFFCURVE",
"572 16 CURVE",
"567 48 LINE",
"509 32 OFFCURVE",
"455 25 OFFCURVE",
"406 25 CURVE SMOOTH",
"224 25 OFFCURVE",
"113 130 OFFCURVE",
"113 316 CURVE SMOOTH",
"113 414 OFFCURVE",
"143 503 OFFCURVE",
"200 577 CURVE",
"187 566 LINE",
"259 601 OFFCURVE",
"337 619 OFFCURVE",
"415 619 CURVE SMOOTH",
"466 619 OFFCURVE",
"516 612 OFFCURVE",
"567 597 CURVE",
"572 632 LINE",
"517 646 OFFCURVE",
"461 653 OFFCURVE",
"416 653 CURVE SMOOTH",
"206 653 OFFCURVE",
"79 527 OFFCURVE",
"79 321 CURVE SMOOTH",
"79 109 OFFCURVE",
"193 -6 OFFCURVE",
"400 -6 CURVE SMOOTH"
);
},
{
closed = 1;
nodes = (
"572 16 LINE",
"572 286 LINE",
"605 289 OFFCURVE",
"635 296 OFFCURVE",
"662 305 CURVE",
"662 314 LINE",
"384 314 LINE",
"384 303 LINE",
"538 285 LINE",
"534 16 LINE"
);
},
{
closed = 1;
nodes = (
"572 451 LINE",
"572 632 LINE",
"526 632 LINE",
"564 451 LINE"
);
}
);
};
layerId = "0E5388DE-A0E6-4EB4-BC9B-CE5870C9023F";
paths = (
{
closed = 1;
nodes = (
"451 -6 OFFCURVE",
"508 1 OFFCURVE",
"572 16 CURVE",
"567 48 LINE",
"509 32 OFFCURVE",
"455 25 OFFCURVE",
"406 25 CURVE SMOOTH",
"224 25 OFFCURVE",
"113 130 OFFCURVE",
"113 316 CURVE SMOOTH",
"113 414 OFFCURVE",
"143 503 OFFCURVE",
"200 577 CURVE",
"187 566 LINE",
"259 601 OFFCURVE",
"337 619 OFFCURVE",
"416 619 CURVE SMOOTH",
"466 619 OFFCURVE",
"517 612 OFFCURVE",
"567 597 CURVE",
"572 632 LINE",
"517 646 OFFCURVE",
"461 653 OFFCURVE",
"416 653 CURVE SMOOTH",
"206 653 OFFCURVE",
"79 527 OFFCURVE",
"79 321 CURVE SMOOTH",
"79 109 OFFCURVE",
"193 -6 OFFCURVE",
"400 -6 CURVE SMOOTH"
);
},
{
closed = 1;
nodes = (
"572 16 LINE",
"572 286 LINE",
"605 289 OFFCURVE",
"635 296 OFFCURVE",
"662 305 CURVE",
"662 314 LINE",
"384 314 LINE",
"384 303 LINE",
"538 285 LINE",
"534 16 LINE"
);
},
{
closed = 1;
nodes = (
"572 451 LINE",
"572 632 LINE",
"526 632 LINE",
"564 451 LINE"
);
}
);
width = 715;
},
{
anchors = (
{
name = bottom;
position = "{356, 0}";
},
{
name = top;
position = "{375, 660}";
}
);
background = {
paths = (
{
closed = 1;
nodes = (
"446 -13 OFFCURVE",
"529 -1 OFFCURVE",
"622 24 CURVE",
"556 163 LINE",
"488 137 OFFCURVE",
"433 124 OFFCURVE",
"387 124 CURVE SMOOTH",
"288 124 OFFCURVE",
"242 190 OFFCURVE",
"242 327 CURVE SMOOTH",
"242 400 OFFCURVE",
"256 461 OFFCURVE",
"286 523 CURVE",
"297 523 OFFCURVE",
"308 524 OFFCURVE",
"318 524 CURVE SMOOTH",
"402 524 OFFCURVE",
"477 510 OFFCURVE",
"548 490 CURVE",
"622 645 LINE",
"543 665 OFFCURVE",
"466 674 OFFCURVE",
"398 674 CURVE SMOOTH",
"155 674 OFFCURVE",
"12 545 OFFCURVE",
"12 323 CURVE SMOOTH",
"12 110 OFFCURVE",
"145 -13 OFFCURVE",
"374 -13 CURVE SMOOTH"
);
},
{
closed = 1;
nodes = (
"622 24 LINE",
"622 247 LINE",
"651 257 OFFCURVE",
"676 269 OFFCURVE",
"696 281 CURVE",
"696 355 LINE",
"323 355 LINE",
"323 274 LINE",
"412 243 LINE",
"407 24 LINE"
);
},
{
closed = 1;
nodes = (
"622 420 LINE",
"622 645 LINE",
"420 648 LINE",
"529 420 LINE"
);
}
);
};
layerId = "BFC82823-8905-47CE-90FC-B44BF62F9018";
paths = (
{
closed = 1;
nodes = (
"446 -13 OFFCURVE",
"529 -1 OFFCURVE",
"622 24 CURVE",
"556 163 LINE",
"488 137 OFFCURVE",
"433 124 OFFCURVE",
"387 124 CURVE SMOOTH",
"288 124 OFFCURVE",
"242 190 OFFCURVE",
"242 327 CURVE SMOOTH",
"242 422 OFFCURVE",
"267 498 OFFCURVE",
"317 580 CURVE",
"155 510 LINE",
"207 520 OFFCURVE",
"258 524 OFFCURVE",
"308 524 CURVE SMOOTH",
"391 524 OFFCURVE",
"471 512 OFFCURVE",
"548 490 CURVE",
"622 645 LINE",
"543 665 OFFCURVE",
"466 674 OFFCURVE",
"398 674 CURVE SMOOTH",
"155 674 OFFCURVE",
"12 545 OFFCURVE",
"12 323 CURVE SMOOTH",
"12 110 OFFCURVE",
"145 -13 OFFCURVE",
"374 -13 CURVE SMOOTH"
);
},
{
closed = 1;
nodes = (
"622 24 LINE",
"622 247 LINE",
"651 257 OFFCURVE",
"676 269 OFFCURVE",
"696 281 CURVE",
"696 355 LINE",
"323 355 LINE",
"323 274 LINE",
"412 243 LINE",
"407 24 LINE"
);
},
{
closed = 1;
nodes = (
"622 420 LINE",
"622 645 LINE",
"420 648 LINE",
"529 420 LINE"
);
}
);
width = 699;
}
);
leftKerningGroup = O;
rightKerningGroup = G;
unicode = 0047;
},
{
color = 10;
glyphname = H;
layers = (
{
anchors = (
{
name = bottom;
position = "{397, 0}";
},
{
name = center;
position = "{396, 496}";
},
{
name = top;
position = "{397, 644}";
},
{
name = topleft;
position = "{41, 644}";
}
);
layerId = "0E5388DE-A0E6-4EB4-BC9B-CE5870C9023F";
paths = (
{
closed = 1;
nodes = (
"742 0 LINE",
"742 12 LINE",
"625 30 LINE",
"625 616 LINE",
"668 619 OFFCURVE",
"707 626 OFFCURVE",
"742 635 CURVE",
"742 644 LINE",
"470 644 LINE",
"470 633 LINE",
"595 615 LINE",
"587 29 LINE",
"550 27 OFFCURVE",
"511 19 OFFCURVE",
"470 7 CURVE",
"470 0 LINE"
);
},
{
closed = 1;
nodes = (
"320 0 LINE",
"320 12 LINE",
"203 30 LINE",
"203 616 LINE",
"245 619 OFFCURVE",
"285 626 OFFCURVE",
"320 635 CURVE",
"320 644 LINE",
"48 644 LINE",
"48 633 LINE",
"173 615 LINE",
"165 29 LINE",
"128 27 OFFCURVE",
"89 21 OFFCURVE",
"48 10 CURVE",
"48 0 LINE"
);
},
{
closed = 1;
nodes = (
"609 319 LINE",
"609 349 LINE",
"186 349 LINE",
"186 319 LINE"
);
}
);
width = 793;
},
{
anchors = (
{
name = bottom;
position = "{401, 0}";
},
{
name = center;
position = "{401, 499}";
},
{
name = top;
position = "{401, 660}";
},
{
name = topleft;
position = "{9, 660}";
}
);
layerId = "BFC82823-8905-47CE-90FC-B44BF62F9018";
paths = (
{
closed = 1;
nodes = (
"793 0 LINE",
"793 81 LINE",
"716 103 LINE",
"716 552 LINE",
"744 562 OFFCURVE",
"770 574 OFFCURVE",
"793 587 CURVE",
"793 660 LINE",
"425 660 LINE",
"425 580 LINE",
"505 549 LINE",
"492 107 LINE",
"468 98 OFFCURVE",
"447 87 OFFCURVE",
"425 74 CURVE",
"425 0 LINE"
);
},
{
closed = 1;
nodes = (
"377 0 LINE",
"377 81 LINE",
"310 103 LINE",
"310 552 LINE",
"333 562 OFFCURVE",
"357 574 OFFCURVE",
"377 587 CURVE",
"377 660 LINE",
"8 660 LINE",
"8 580 LINE",
"98 549 LINE",
"85 107 LINE",
"58 98 OFFCURVE",
"33 87 OFFCURVE",
"8 73 CURVE",
"8 0 LINE"
);
},
{
closed = 1;
nodes = (
"610 259 LINE",
"610 386 LINE",
"204 386 LINE",
"204 259 LINE"
);
}
);
width = 805;
}
);
leftKerningGroup = H;
rightKerningGroup = H;
unicode = 0048;
},
{
color = 10;
glyphname = Hbar;
layers = (
{
anchors = (
{
name = bottom;
position = "{410, 0}";
},
{
name = center;
position = "{409, 496}";
},
{
name = top;
position = "{410, 644}";
},
{
name = topleft;
position = "{54, 644}";
}
);
layerId = "0E5388DE-A0E6-4EB4-BC9B-CE5870C9023F";
paths = (
{
closed = 1;
nodes = (
"755 0 LINE",
"755 12 LINE",
"638 30 LINE",
"638 616 LINE",
"681 619 OFFCURVE",
"720 626 OFFCURVE",
"755 635 CURVE",
"755 644 LINE",
"483 644 LINE",
"483 633 LINE",
"608 615 LINE",
"600 29 LINE",
"563 27 OFFCURVE",
"524 19 OFFCURVE",
"483 7 CURVE",
"483 0 LINE"
);
},
{
closed = 1;
nodes = (
"333 0 LINE",
"333 12 LINE",
"216 30 LINE",
"216 616 LINE",
"258 619 OFFCURVE",
"298 626 OFFCURVE",
"333 635 CURVE",
"333 644 LINE",
"61 644 LINE",
"61 633 LINE",
"186 615 LINE",
"178 29 LINE",
"141 27 OFFCURVE",
"102 21 OFFCURVE",
"61 10 CURVE",
"61 0 LINE"
);
},
{
closed = 1;
nodes = (
"622 312 LINE",
"622 342 LINE",
"199 342 LINE",
"199 312 LINE"
);
},
{
closed = 1;
nodes = (
"92 479 LINE",
"730 479 LINE",
"730 506 LINE",
"92 506 LINE"
);
}
);
width = 818;
},
{
anchors = (
{
name = bottom;
position = "{415, 0}";
},
{
name = center;
position = "{415, 500}";
},
{
name = top;
position = "{415, 660}";
},
{
name = topleft;
position = "{26, 660}";
}
);
layerId = "BFC82823-8905-47CE-90FC-B44BF62F9018";
paths = (
{
closed = 1;
nodes = (
"805 0 LINE",
"805 77 LINE",
"726 99 LINE",
"726 557 LINE",
"755 567 OFFCURVE",
"781 578 OFFCURVE",
"805 591 CURVE",
"805 660 LINE",
"442 660 LINE",
"442 584 LINE",
"525 553 LINE",
"512 104 LINE",
"487 94 OFFCURVE",
"465 83 OFFCURVE",
"442 70 CURVE",
"442 0 LINE"
);
},
{
closed = 1;
nodes = (
"389 0 LINE",
"389 77 LINE",
"319 99 LINE",
"319 557 LINE",
"343 567 OFFCURVE",
"368 578 OFFCURVE",
"389 591 CURVE",
"389 660 LINE",
"26 660 LINE",
"26 584 LINE",
"117 553 LINE",
"105 104 LINE",
"77 94 OFFCURVE",
"52 83 OFFCURVE",
"26 69 CURVE",
"26 0 LINE"
);
},
{
closed = 1;
nodes = (
"634 247 LINE",
"634 372 LINE",
"228 372 LINE",
"228 247 LINE"
);
},
{
closed = 1;
nodes = (
"14 445 LINE",
"814 445 LINE",
"814 526 LINE",
"14 526 LINE"
);
}
);
width = 832;
}
);
leftKerningGroup = H;
rightKerningGroup = H;
unicode = 0126;
},
{
color = 10;
glyphname = I;
layers = (
{
anchors = (
{
name = bottom;
position = "{186, 0}";
},
{
name = ogonek;
position = "{292, 10}";
},
{
name = top;
position = "{186, 644}";
},
{
name = topleft;
position = "{41, 644}";
}
);
layerId = "0E5388DE-A0E6-4EB4-BC9B-CE5870C9023F";
paths = (
{
closed = 1;
nodes = (
"320 0 LINE",
"320 12 LINE",
"203 30 LINE",
"203 616 LINE",
"246 619 OFFCURVE",
"285 626 OFFCURVE",
"320 635 CURVE",
"320 644 LINE",
"48 644 LINE",
"48 633 LINE",
"173 615 LINE",
"165 29 LINE",
"128 27 OFFCURVE",
"89 21 OFFCURVE",
"48 10 CURVE",
"48 0 LINE"
);
}
);
width = 371;
},
{
anchors = (
{
name = bottom;
position = "{198, 0}";
},
{
name = ogonek;
position = "{366, 10}";
},
{
name = top;
position = "{198, 660}";
},
{
name = topleft;
position = "{9, 660}";
}
);
layerId = "BFC82823-8905-47CE-90FC-B44BF62F9018";
paths = (
{
closed = 1;
nodes = (
"386 0 LINE",
"386 81 LINE",
"310 103 LINE",
"310 552 LINE",
"337 562 OFFCURVE",
"363 574 OFFCURVE",
"386 587 CURVE",
"386 660 LINE",
"8 660 LINE",
"8 580 LINE",
"98 549 LINE",
"85 107 LINE",
"58 98 OFFCURVE",
"33 87 OFFCURVE",
"8 73 CURVE",
"8 0 LINE"
);
}
);
width = 398;
}
);
leftKerningGroup = H;
rightKerningGroup = H;
unicode = 0049;
},
{
glyphname = J;
layers = (
{
anchors = (
{
name = bottom;
position = "{240, 0}";
},
{
name = top;
position = "{328, 644}";
}
);
layerId = "0E5388DE-A0E6-4EB4-BC9B-CE5870C9023F";
paths = (
{
closed = 1;
nodes = (
"89 -4 OFFCURVE",
"115 -7 OFFCURVE",
"139 -7 CURVE SMOOTH",
"274 -7 OFFCURVE",
"342 63 OFFCURVE",
"342 201 CURVE SMOOTH",
"342 616 LINE",
"388 619 OFFCURVE",
"422 625 OFFCURVE",
"451 635 CURVE",
"451 644 LINE",
"167 644 LINE",
"167 633 LINE",
"311 615 LINE",
"307 104 LINE",
"311 126 LINE",
"278 51 OFFCURVE",
"239 24 OFFCURVE",
"143 24 CURVE SMOOTH",
"121 24 OFFCURVE",
"96 25 OFFCURVE",
"67 28 CURVE",
"61 0 LINE"
);
},
{
closed = 1;
nodes = (
"102 0 LINE",
"68 205 LINE",
"61 205 LINE",
"61 0 LINE"
);
}
);
width = 487;
},
{
anchors = (
{
name = bottom;
position = "{250, 0}";
},
{
name = top;
position = "{354, 660}";
}
);
background = {
paths = (
{
closed = 1;
nodes = (
"61 -9 OFFCURVE",
"114 -13 OFFCURVE",
"162 -13 CURVE SMOOTH",
"360 -13 OFFCURVE",
"462 75 OFFCURVE",
"462 247 CURVE SMOOTH",
"462 552 LINE",
"488 562 OFFCURVE",
"514 576 OFFCURVE",
"536 587 CURVE",
"536 660 LINE",
"98 660 LINE",
"98 580 LINE",
"250 549 LINE",
"243 144 LINE",
"228 134 OFFCURVE",
"209 130 OFFCURVE",
"188 130 CURVE SMOOTH",
"142 130 OFFCURVE",
"83 151 OFFCURVE",
"22 188 CURVE",
"3 2 LINE"
);
},
{
closed = 1;
nodes = (
"194 2 LINE",
"91 260 LINE",
"3 260 LINE",
"3 2 LINE"
);
}
);
};
layerId = "BFC82823-8905-47CE-90FC-B44BF62F9018";
paths = (
{
closed = 1;
nodes = (
"61 -9 OFFCURVE",
"114 -13 OFFCURVE",
"162 -13 CURVE SMOOTH",
"360 -13 OFFCURVE",
"462 75 OFFCURVE",
"462 247 CURVE SMOOTH",
"462 552 LINE",
"488 562 OFFCURVE",
"514 576 OFFCURVE",
"536 587 CURVE",
"536 660 LINE",
"98 660 LINE",
"98 580 LINE",
"250 549 LINE",
"241 49 LINE",
"264 163 LINE",
"248 141 OFFCURVE",
"222 130 OFFCURVE",
"190 130 CURVE SMOOTH",
"145 130 OFFCURVE",
"87 150 OFFCURVE",
"22 188 CURVE",
"3 2 LINE"
);
},
{
closed = 1;
nodes = (
"194 2 LINE",
"91 260 LINE",
"3 260 LINE",
"3 2 LINE"
);
}
);
width = 526;
}
);
leftKerningGroup = J;
rightKerningGroup = U;
unicode = 004A;
},
{
color = 10;
glyphname = K;
layers = (
{
anchors = (
{
name = bottom;
position = "{367, 0}";
},
{
name = top;
position = "{367, 644}";
}
);
background = {
paths = (
{
closed = 1;
nodes = (
"320 0 LINE",
"320 12 LINE",
"203 30 LINE",
"203 616 LINE",
"246 619 OFFCURVE",
"285 626 OFFCURVE",
"320 635 CURVE",
"320 644 LINE",
"48 644 LINE",
"48 633 LINE",
"173 615 LINE",
"165 29 LINE",
"128 27 OFFCURVE",
"89 21 OFFCURVE",
"48 10 CURVE",
"48 0 LINE"
);
},
{
closed = 1;
nodes = (
"702 0 LINE",
"702 12 LINE",
"596 32 LINE",
"539 30 OFFCURVE",
"484 22 OFFCURVE",
"430 7 CURVE",
"430 0 LINE"
);
},
{
closed = 1;
nodes = (
"594 614 OFFCURVE",
"639 622 OFFCURVE",
"683 637 CURVE",
"683 644 LINE",
"411 644 LINE",
"411 632 LINE",
"547 612 LINE"
);
},
{
closed = 1;
nodes = (
"601 641 LINE",
"601 644 LINE",
"561 644 LINE",
"251 334 LINE",
"584 0 LINE",
"628 0 LINE",
"628 8 LINE",
"287 346 LINE",
"287 326 LINE"
);
}
);
};
layerId = "0E5388DE-A0E6-4EB4-BC9B-CE5870C9023F";
paths = (
{
closed = 1;
nodes = (
"320 0 LINE",
"320 12 LINE",
"203 30 LINE",
"203 616 LINE",
"246 619 OFFCURVE",
"285 626 OFFCURVE",
"320 635 CURVE",
"320 644 LINE",
"48 644 LINE",
"48 633 LINE",
"173 615 LINE",
"165 29 LINE",
"128 27 OFFCURVE",
"89 21 OFFCURVE",
"48 10 CURVE",
"48 0 LINE"
);
},
{
closed = 1;
nodes = (
"702 0 LINE",
"702 12 LINE",
"596 32 LINE",
"539 30 OFFCURVE",
"484 22 OFFCURVE",
"430 7 CURVE",
"430 0 LINE"
);
},
{
closed = 1;
nodes = (
"594 614 OFFCURVE",
"639 622 OFFCURVE",
"683 637 CURVE",
"683 644 LINE",
"411 644 LINE",
"411 632 LINE",
"547 612 LINE"
);
},
{
closed = 1;
nodes = (
"591 631 LINE",
"591 634 LINE",
"551 634 LINE",
"251 334 LINE",
"574 10 LINE",
"618 10 LINE",
"618 18 LINE",
"287 346 LINE",
"287 326 LINE"
);
}
);
width = 741;
},
{
anchors = (
{
name = bottom;
position = "{389, 0}";
},
{
name = top;
position = "{389, 660}";
}
);
background = {
paths = (
{
closed = 1;
nodes = (
"386 0 LINE",
"386 81 LINE",
"310 103 LINE",
"310 552 LINE",
"337 562 OFFCURVE",
"363 574 OFFCURVE",
"386 587 CURVE",
"386 660 LINE",
"8 660 LINE",
"8 580 LINE",
"98 549 LINE",
"85 107 LINE",
"58 98 OFFCURVE",
"33 87 OFFCURVE",
"8 73 CURVE",
"8 0 LINE"
);
},
{
closed = 1;
nodes = (
"773 0 LINE",
"773 81 LINE",
"610 146 LINE",
"545 135 OFFCURVE",
"478 111 OFFCURVE",
"414 74 CURVE",
"414 0 LINE"
);
},
{
closed = 1;
nodes = (
"645 526 OFFCURVE",
"701 550 OFFCURVE",
"753 587 CURVE",
"753 660 LINE",
"457 660 LINE",
"457 578 LINE",
"591 514 LINE"
);
},
{
closed = 1;
nodes = (
"717 586 LINE",
"716 660 LINE",
"576 660 LINE",
"308 319 LINE",
"502 0 LINE",
"737 0 LINE",
"737 79 LINE",
"490 450 LINE",
"482 300 LINE"
);
}
);
};
layerId = "BFC82823-8905-47CE-90FC-B44BF62F9018";
paths = (
{
closed = 1;
nodes = (
"386 0 LINE",
"386 81 LINE",
"310 103 LINE",
"310 552 LINE",
"337 562 OFFCURVE",
"363 574 OFFCURVE",
"386 587 CURVE",
"386 660 LINE",
"8 660 LINE",
"8 580 LINE",
"98 549 LINE",
"85 107 LINE",
"58 98 OFFCURVE",
"33 87 OFFCURVE",
"8 73 CURVE",
"8 0 LINE"
);
},
{
closed = 1;
nodes = (
"773 0 LINE",
"773 81 LINE",
"610 146 LINE",
"545 135 OFFCURVE",
"478 111 OFFCURVE",
"414 74 CURVE",
"414 0 LINE"
);
},
{
closed = 1;
nodes = (
"645 526 OFFCURVE",
"701 550 OFFCURVE",
"753 587 CURVE",
"753 660 LINE",
"457 660 LINE",
"457 578 LINE",
"591 514 LINE"
);
},
{
closed = 1;
nodes = (
"717 586 LINE",
"716 650 LINE",
"569 650 LINE",
"308 319 LINE",
"494 10 LINE",
"737 10 LINE",
"737 79 LINE",
"490 450 LINE",
"482 300 LINE"
);
}
);
width = 757;
}
);
leftKerningGroup = H;
rightKerningGroup = X;
unicode = 004B;
},
{
glyphname = L;
layers = (
{
anchors = (
{
name = bottom;
position = "{302, 0}";
},
{
name = center;
position = "{203, 366}";
},
{
name = top;
position = "{192, 644}";
},
{
name = topright;
position = "{494, 644}";
}
);
layerId = "0E5388DE-A0E6-4EB4-BC9B-CE5870C9023F";
paths = (
{
closed = 1;
nodes = (
"485 30 LINE",
"203 30 LINE",
"203 616 LINE",
"250 619 OFFCURVE",
"293 626 OFFCURVE",
"330 635 CURVE",
"330 644 LINE",
"48 644 LINE",
"48 633 LINE",
"173 615 LINE",
"165 29 LINE",
"128 27 OFFCURVE",
"89 21 OFFCURVE",
"48 10 CURVE",
"48 0 LINE",
"522 0 LINE",
"522 250 LINE",
"515 250 LINE"
);
}
);
width = 583;
},
{
anchors = (
{
name = bottom;
position = "{316, 0}";
},
{
name = center;
position = "{216, 346}";
},
{
name = top;
position = "{216, 660}";
},
{
name = topright;
position = "{551, 660}";
}
);
background = {
anchors = (
{
name = bottom;
position = "{316, 0}";
},
{
name = center;
position = "{216, 346}";
},
{
name = top;
position = "{216, 660}";
},
{
name = topright;
position = "{551, 660}";
}
);
paths = (
{
closed = 1;
nodes = (
"604 0 LINE",
"604 293 LINE",
"516 293 LINE",
"413 0 LINE"
);
},
{
closed = 1;
nodes = (
"310 552 LINE",
"348 562 OFFCURVE",
"385 574 OFFCURVE",
"416 587 CURVE",
"416 660 LINE",
"8 660 LINE",
"8 580 LINE",
"98 549 LINE",
"85 107 LINE",
"58 98 OFFCURVE",
"33 87 OFFCURVE",
"8 73 CURVE",
"8 0 LINE",
"587 0 LINE",
"587 127 LINE",
"216 127 LINE",
"310 33 LINE"
);
}
);
};
layerId = "BFC82823-8905-47CE-90FC-B44BF62F9018";
paths = (
{
closed = 1;
nodes = (
"457 127 LINE",
"310 127 LINE",
"310 552 LINE",
"348 562 OFFCURVE",
"385 574 OFFCURVE",
"416 587 CURVE",
"416 660 LINE",
"8 660 LINE",
"8 580 LINE",
"98 549 LINE",
"85 107 LINE",
"58 98 OFFCURVE",
"33 87 OFFCURVE",
"8 73 CURVE",
"8 0 LINE",
"604 0 LINE",
"604 293 LINE",
"516 293 LINE"
);
}
);
width = 609;
}
);
leftKerningGroup = H;
rightKerningGroup = L;
unicode = 004C;
},
{
color = 10;
glyphname = M;
layers = (
{
anchors = (
{
name = bottom;
position = "{461, 0}";
},
{
name = top;
position = "{472, 644}";
}
);
layerId = "0E5388DE-A0E6-4EB4-BC9B-CE5870C9023F";
paths = (
{
closed = 1;
nodes = (
"767 616 LINE",
"811 619 OFFCURVE",
"851 626 OFFCURVE",
"887 635 CURVE",
"887 644 LINE",
"719 644 LINE",
"461 58 LINE",
"471 58 LINE",
"226 644 LINE",
"53 644 LINE",
"53 633 LINE",
"182 615 LINE",
"162 29 LINE",
"124 27 OFFCURVE",
"84 21 OFFCURVE",
"42 10 CURVE",
"42 0 LINE",
"331 0 LINE",
"331 12 LINE",
"197 30 LINE",
"208 616 LINE",
"203 615 LINE",
"460 0 LINE",
"469 0 LINE",
"740 618 LINE",
"735 619 LINE",
"739 29 LINE",
"700 27 OFFCURVE",
"660 21 OFFCURVE",
"619 10 CURVE",
"619 0 LINE",
"898 0 LINE",
"898 12 LINE",
"777 30 LINE"
);
}
);
width = 941;
},
{
anchors = (
{
name = bottom;
position = "{451, 0}";
},
{
name = top;
position = "{489, 660}";
}
);
layerId = "BFC82823-8905-47CE-90FC-B44BF62F9018";
paths = (
{
closed = 1;
nodes = (
"885 552 LINE",
"914 562 OFFCURVE",
"942 574 OFFCURVE",
"966 587 CURVE",
"966 660 LINE",
"588 660 LINE",
"455 220 LINE",
"507 219 LINE",
"381 660 LINE",
"8 660 LINE",
"8 580 LINE",
"101 549 LINE",
"83 107 LINE",
"54 98 OFFCURVE",
"31 87 OFFCURVE",
"8 73 CURVE",
"8 0 LINE",
"321 0 LINE",
"321 81 LINE",
"228 103 LINE",
"232 577 LINE",
"202 573 LINE",
"385 0 LINE",
"518 0 LINE",
"709 597 LINE",
"682 602 LINE",
"671 107 LINE",
"643 98 OFFCURVE",
"620 87 OFFCURVE",
"596 73 CURVE",
"596 0 LINE",
"970 0 LINE",
"970 81 LINE",
"889 103 LINE"
);
}
);
width = 976;
}
);
leftKerningGroup = M;
rightKerningGroup = M;
unicode = 004D;
},
{
color = 10;
glyphname = N;
layers = (
{
anchors = (
{
name = bottom;
position = "{393, 0}";
},
{
name = top;
position = "{393, 644}";
}
);
layerId = "0E5388DE-A0E6-4EB4-BC9B-CE5870C9023F";
paths = (
{
closed = 1;
nodes = (
"476 633 LINE",
"596 615 LINE",
"605 38 LINE",
"613 40 LINE",
"200 644 LINE",
"48 644 LINE",
"48 633 LINE",
"173 615 LINE",
"165 29 LINE",
"128 27 OFFCURVE",
"89 21 OFFCURVE",
"48 10 CURVE",
"48 0 LINE",
"329 0 LINE",
"329 12 LINE",
"199 30 LINE",
"199 597 LINE",
"191 595 LINE",
"598 0 LINE",
"630 0 LINE",
"631 616 LINE",
"668 618 OFFCURVE",
"706 624 OFFCURVE",
"747 635 CURVE",
"747 644 LINE",
"476 644 LINE"
);
}
);
width = 781;
},
{
anchors = (
{
name = bottom;
position = "{395, 0}";
},
{
name = top;
position = "{395, 660}";
}
);
layerId = "BFC82823-8905-47CE-90FC-B44BF62F9018";
paths = (
{
closed = 1;
nodes = (
"480 580 LINE",
"568 557 LINE",
"579 161 LINE",
"623 175 LINE",
"339 660 LINE",
"9 660 LINE",
"9 580 LINE",
"96 549 LINE",
"83 107 LINE",
"56 98 OFFCURVE",
"34 87 OFFCURVE",
"12 73 CURVE",
"12 0 LINE",
"332 0 LINE",
"332 81 LINE",
"231 103 LINE",
"231 518 LINE",
"184 504 LINE",
"479 0 LINE",
"714 0 LINE",
"715 552 LINE",
"745 562 OFFCURVE",
"767 573 OFFCURVE",
"790 587 CURVE",
"790 660 LINE",
"480 660 LINE"
);
}
);
width = 789;
}
);
leftKerningGroup = H;
rightKerningGroup = H;
unicode = 004E;
},
{
color = 10;
glyphname = Eng;
layers = (
{
layerId = "0E5388DE-A0E6-4EB4-BC9B-CE5870C9023F";
paths = (
{
closed = 1;
nodes = (
"476 633 LINE",
"596 615 LINE",
"605 25 LINE",
"613 27 LINE",
"200 644 LINE",
"48 644 LINE",
"48 633 LINE",
"173 615 LINE",
"165 29 LINE",
"128 27 OFFCURVE",
"89 21 OFFCURVE",
"48 10 CURVE",
"48 0 LINE",
"329 0 LINE",
"329 12 LINE",
"199 30 LINE",
"199 596 LINE",
"192 594 LINE",
"616 -43 LINE",
"617 -21 LINE",
"495 -194 LINE",
"501 -199 LINE",
"583 -141 OFFCURVE",
"630 -81 OFFCURVE",
"630 -1 CURVE SMOOTH",
"631 616 LINE",
"668 618 OFFCURVE",
"706 624 OFFCURVE",
"747 635 CURVE",
"747 644 LINE",
"476 644 LINE"
);
}
);
width = 782;
},
{
layerId = "BFC82823-8905-47CE-90FC-B44BF62F9018";
paths = (
{
closed = 1;
nodes = (
"489 580 LINE",
"568 557 LINE",
"578 172 LINE",
"623 185 LINE",
"339 660 LINE",
"9 660 LINE",
"9 580 LINE",
"96 549 LINE",
"83 107 LINE",
"56 98 OFFCURVE",
"34 87 OFFCURVE",
"12 73 CURVE",
"12 0 LINE",
"322 0 LINE",
"322 81 LINE",
"231 103 LINE",
"231 523 LINE",
"183 509 LINE",
"569 -138 LINE",
"589 7 LINE",
"415 -156 LINE",
"433 -196 LINE",
"611 -187 OFFCURVE",
"714 -105 OFFCURVE",
"714 31 CURVE SMOOTH",
"715 552 LINE",
"745 562 OFFCURVE",
"767 573 OFFCURVE",
"790 587 CURVE",
"790 660 LINE",
"489 660 LINE"
);
}
);
width = 789;
}
);
leftKerningGroup = H;
unicode = 014A;
},
{
color = 10;
glyphname = O;
layers = (
{
anchors = (
{
name = bottom;
position = "{361, 0}";
},
{
name = center;
position = "{361, 322}";
},
{
name = ogonek;
position = "{527, 30}";
},
{
name = top;
position = "{361, 644}";
},
{
name = topleft;
position = "{36, 644}";
},
{
name = topright;
position = "{612, 644}";
}
);
layerId = "0E5388DE-A0E6-4EB4-BC9B-CE5870C9023F";
paths = (
{
closed = 1;
nodes = (
"521 -7 OFFCURVE",
"643 137 OFFCURVE",
"643 328 CURVE SMOOTH",
"643 515 OFFCURVE",
"525 651 OFFCURVE",
"366 651 CURVE SMOOTH",
"201 651 OFFCURVE",
"79 506 OFFCURVE",
"79 313 CURVE SMOOTH",
"79 125 OFFCURVE",
"195 -7 OFFCURVE",
"354 -7 CURVE SMOOTH"
);
},
{
closed = 1;
nodes = (
"217 23 OFFCURVE",
"113 148 OFFCURVE",
"113 315 CURVE SMOOTH",
"113 403 OFFCURVE",
"142 491 OFFCURVE",
"199 571 CURVE",
"186 557 LINE",
"235 597 OFFCURVE",
"299 618 OFFCURVE",
"361 618 CURVE SMOOTH",
"509 618 OFFCURVE",
"608 497 OFFCURVE",
"608 327 CURVE SMOOTH",
"608 151 OFFCURVE",
"502 23 OFFCURVE",
"359 23 CURVE SMOOTH"
);
}
);
width = 721;
},
{
anchors = (
{
name = bottom;
position = "{351, 0}";
},
{
name = center;
position = "{351, 330}";
},
{
name = ogonek;
position = "{577, 12}";
},
{
name = top;
position = "{351, 660}";
},
{
name = topleft;
position = "{7, 660}";
},
{
name = topright;
position = "{602, 660}";
}
);
background = {
paths = (
{
closed = 1;
nodes = (
"558 -14 OFFCURVE",
"686 117 OFFCURVE",
"686 347 CURVE SMOOTH",
"686 554 OFFCURVE",
"565 674 OFFCURVE",
"355 674 CURVE SMOOTH",
"156 674 OFFCURVE",
"15 541 OFFCURVE",
"15 322 CURVE SMOOTH",
"15 107 OFFCURVE",
"133 -14 OFFCURVE",
"339 -14 CURVE SMOOTH"
);
},
{
closed = 1;
nodes = (
"277 117 OFFCURVE",
"245 181 OFFCURVE",
"245 326 CURVE SMOOTH",
"245 397 OFFCURVE",
"254 459 OFFCURVE",
"274 520 CURVE",
"297 530 OFFCURVE",
"320 535 OFFCURVE",
"342 535 CURVE SMOOTH",
"423 535 OFFCURVE",
"456 474 OFFCURVE",
"456 330 CURVE SMOOTH",
"456 182 OFFCURVE",
"425 117 OFFCURVE",
"353 117 CURVE SMOOTH"
);
}
);
};
layerId = "BFC82823-8905-47CE-90FC-B44BF62F9018";
paths = (
{
closed = 1;
nodes = (
"558 -14 OFFCURVE",
"686 117 OFFCURVE",
"686 347 CURVE SMOOTH",
"686 554 OFFCURVE",
"565 674 OFFCURVE",
"355 674 CURVE SMOOTH",
"156 674 OFFCURVE",
"15 541 OFFCURVE",
"15 322 CURVE SMOOTH",
"15 107 OFFCURVE",
"133 -14 OFFCURVE",
"339 -14 CURVE SMOOTH"
);
},
{
closed = 1;
nodes = (
"277 117 OFFCURVE",
"245 181 OFFCURVE",
"245 326 CURVE SMOOTH",
"245 419 OFFCURVE",
"261 498 OFFCURVE",
"296 577 CURVE",
"214 478 LINE",
"256 518 OFFCURVE",
"301 535 OFFCURVE",
"342 535 CURVE SMOOTH",
"423 535 OFFCURVE",
"456 474 OFFCURVE",
"456 330 CURVE SMOOTH",
"456 182 OFFCURVE",
"425 117 OFFCURVE",
"353 117 CURVE SMOOTH"
);
}
);
width = 701;
}
);
leftKerningGroup = O;
rightKerningGroup = O;
unicode = 004F;
},
{
color = 10;
glyphname = Ohorn;
layers = (
{
anchors = (
{
name = bottom;
position = "{361, 0}";
},
{
name = top;
position = "{361, 644}";
}
);
layerId = "0E5388DE-A0E6-4EB4-BC9B-CE5870C9023F";
paths = (
{
closed = 1;
nodes = (
"518 -7 OFFCURVE",
"643 136 OFFCURVE",
"643 324 CURVE SMOOTH",
"643 461 OFFCURVE",
"577 575 OFFCURVE",
"478 624 CURVE",
"472 622 LINE",
"581 607 LINE SMOOTH",
"616 602 OFFCURVE",
"633 616 OFFCURVE",
"633 649 CURVE SMOOTH",
"633 671 OFFCURVE",
"626 700 OFFCURVE",
"611 738 CURVE",
"574 728 LINE",
"601 635 LINE",
"552 635 OFFCURVE",
"451 651 OFFCURVE",
"363 651 CURVE SMOOTH",
"202 651 OFFCURVE",
"79 505 OFFCURVE",
"79 313 CURVE SMOOTH",
"79 126 OFFCURVE",
"194 -7 OFFCURVE",
"354 -7 CURVE SMOOTH"
);
},
{
closed = 1;
nodes = (
"218 23 OFFCURVE",
"113 148 OFFCURVE",
"113 316 CURVE SMOOTH",
"113 408 OFFCURVE",
"140 493 OFFCURVE",
"193 563 CURVE",
"240 598 OFFCURVE",
"301 618 OFFCURVE",
"361 618 CURVE SMOOTH",
"507 618 OFFCURVE",
"608 499 OFFCURVE",
"608 327 CURVE SMOOTH",
"608 152 OFFCURVE",
"503 23 OFFCURVE",
"359 23 CURVE SMOOTH"
);
}
);
width = 736;
},
{
anchors = (
{
name = bottom;
position = "{351, 0}";
},
{
name = top;
position = "{351, 660}";
}
);
layerId = "BFC82823-8905-47CE-90FC-B44BF62F9018";
paths = (
{
closed = 1;
nodes = (
"559 -14 OFFCURVE",
"686 118 OFFCURVE",
"686 347 CURVE SMOOTH",
"686 477 OFFCURVE",
"624 579 OFFCURVE",
"526 633 CURVE",
"482 607 LINE",
"597 597 LINE SMOOTH",
"670 591 OFFCURVE",
"712 629 OFFCURVE",
"712 690 CURVE SMOOTH",
"712 721 OFFCURVE",
"701 758 OFFCURVE",
"679 797 CURVE",
"545 767 LINE",
"567 662 LINE",
"512 662 OFFCURVE",
"438 674 OFFCURVE",
"355 674 CURVE SMOOTH",
"144 674 OFFCURVE",
"15 541 OFFCURVE",
"15 322 CURVE SMOOTH",
"15 107 OFFCURVE",
"133 -14 OFFCURVE",
"339 -14 CURVE SMOOTH"
);
},
{
closed = 1;
nodes = (
"277 117 OFFCURVE",
"245 180 OFFCURVE",
"245 326 CURVE SMOOTH",
"245 397 OFFCURVE",
"254 459 OFFCURVE",
"274 520 CURVE",
"291 530 OFFCURVE",
"313 535 OFFCURVE",
"342 535 CURVE SMOOTH",
"423 535 OFFCURVE",
"456 475 OFFCURVE",
"456 330 CURVE SMOOTH",
"456 182 OFFCURVE",
"425 117 OFFCURVE",
"353 117 CURVE SMOOTH"
);
}
);
width = 715;
}
);
leftKerningGroup = O;
rightKerningGroup = O;
unicode = 01A0;
},
{
color = 10;
glyphname = Oslash;
layers = (
{
anchors = (
{
name = bottom;
position = "{348, 0}";
},
{
name = center;
position = "{364, 322}";
},
{
name = ogonek;
position = "{530, 30}";
},
{
name = top;
position = "{348, 644}";
},
{
name = topleft;
position = "{39, 644}";
},
{
name = topright;
position = "{615, 644}";
}
);
layerId = "0E5388DE-A0E6-4EB4-BC9B-CE5870C9023F";
paths = (
{
closed = 1;
nodes = (
"206 61 LINE",
"141 -71 LINE",
"167 -81 LINE",
"230 47 LINE"
);
},
{
closed = 1;
nodes = (
"524 -7 OFFCURVE",
"646 137 OFFCURVE",
"646 328 CURVE SMOOTH",
"646 515 OFFCURVE",
"528 651 OFFCURVE",
"369 651 CURVE SMOOTH",
"204 651 OFFCURVE",
"82 506 OFFCURVE",
"82 313 CURVE SMOOTH",
"82 125 OFFCURVE",
"198 -7 OFFCURVE",
"357 -7 CURVE SMOOTH"
);
},
{
closed = 1;
nodes = (
"220 23 OFFCURVE",
"116 148 OFFCURVE",
"116 315 CURVE SMOOTH",
"116 400 OFFCURVE",
"143 485 OFFCURVE",
"196 563 CURVE",
"244 599 OFFCURVE",
"305 618 OFFCURVE",
"364 618 CURVE SMOOTH",
"512 618 OFFCURVE",
"611 497 OFFCURVE",
"611 327 CURVE SMOOTH",
"611 151 OFFCURVE",
"505 23 OFFCURVE",
"362 23 CURVE SMOOTH"
);
},
{
closed = 1;
nodes = (
"499 596 LINE",
"556 713 LINE",
"530 723 LINE",
"474 610 LINE"
);
},
{
closed = 1;
nodes = (
"230 47 LINE",
"499 596 LINE",
"474 610 LINE",
"206 61 LINE"
);
}
);
width = 725;
},
{
anchors = (
{
name = bottom;
position = "{363, 0}";
},
{
name = center;
position = "{351, 330}";
},
{
name = ogonek;
position = "{577, 12}";
},
{
name = top;
position = "{363, 660}";
},
{
name = topleft;
position = "{7, 660}";
},
{
name = topright;
position = "{602, 660}";
}
);
layerId = "BFC82823-8905-47CE-90FC-B44BF62F9018";
paths = (
{
closed = 1;
nodes = (
"199 105 LINE",
"129 -54 LINE",
"222 -94 LINE",
"290 61 LINE"
);
},
{
closed = 1;
nodes = (
"558 -14 OFFCURVE",
"686 117 OFFCURVE",
"686 347 CURVE SMOOTH",
"686 554 OFFCURVE",
"565 674 OFFCURVE",
"355 674 CURVE SMOOTH",
"144 674 OFFCURVE",
"15 541 OFFCURVE",
"15 322 CURVE SMOOTH",
"15 107 OFFCURVE",
"133 -14 OFFCURVE",
"339 -14 CURVE SMOOTH"
);
},
{
closed = 1;
nodes = (
"277 117 OFFCURVE",
"245 181 OFFCURVE",
"245 326 CURVE SMOOTH",
"245 397 OFFCURVE",
"254 459 OFFCURVE",
"274 520 CURVE",
"297 530 OFFCURVE",
"320 535 OFFCURVE",
"342 535 CURVE SMOOTH",
"423 535 OFFCURVE",
"456 474 OFFCURVE",
"456 330 CURVE SMOOTH",
"456 182 OFFCURVE",
"425 117 OFFCURVE",
"353 117 CURVE SMOOTH"
);
},
{
closed = 1;
nodes = (
"507 560 LINE",
"571 705 LINE",
"478 744 LINE",
"414 599 LINE"
);
},
{
closed = 1;
nodes = (
"290 61 LINE",
"507 560 LINE",
"414 599 LINE",
"199 105 LINE"
);
}
);
width = 701;
}
);
leftKerningGroup = O;
rightKerningGroup = O;
unicode = 00D8;
},
{
color = 10;
glyphname = OE;
layers = (
{
anchors = (
{
name = bottom;
position = "{502, 0}";
},
{
name = top;
position = "{502, 644}";
}
);
background = {
paths = (
{
closed = 1;
nodes = (
"492 0 OFFCURVE",
"602 138 OFFCURVE",
"602 328 CURVE SMOOTH",
"602 513 OFFCURVE",
"498 644 OFFCURVE",
"351 644 CURVE SMOOTH",
"197 644 OFFCURVE",
"78 500 OFFCURVE",
"78 313 CURVE SMOOTH",
"78 133 OFFCURVE",
"189 0 OFFCURVE",
"340 0 CURVE SMOOTH"
);
},
{
closed = 1;
nodes = (
"214 29 OFFCURVE",
"112 158 OFFCURVE",
"112 327 CURVE SMOOTH",
"112 494 OFFCURVE",
"209 612 OFFCURVE",
"347 612 CURVE SMOOTH",
"402 612 OFFCURVE",
"455 593 OFFCURVE",
"497 558 CURVE",
"543 485 OFFCURVE",
"567 402 OFFCURVE",
"567 316 CURVE SMOOTH",
"567 149 OFFCURVE",
"475 29 OFFCURVE",
"347 29 CURVE SMOOTH"
);
},
{
closed = 1;
nodes = (
"882 0 LINE",
"882 205 LINE",
"874 205 LINE",
"844 30 LINE",
"408 30 LINE",
"340 0 LINE"
);
},
{
closed = 1;
nodes = (
"779 228 LINE",
"779 437 LINE",
"771 437 LINE",
"739 332 LINE",
"771 228 LINE"
);
},
{
closed = 1;
nodes = (
"872 460 LINE",
"872 644 LINE",
"351 644 LINE",
"395 614 LINE",
"835 614 LINE",
"864 460 LINE"
);
}
);
};
layerId = "0E5388DE-A0E6-4EB4-BC9B-CE5870C9023F";
paths = (
{
closed = 1;
nodes = (
"844 30 LINE",
"442 30 LINE",
"448 26 LINE",
"542 75 OFFCURVE",
"602 187 OFFCURVE",
"602 328 CURVE SMOOTH",
"602 464 OFFCURVE",
"546 571 OFFCURVE",
"458 618 CURVE",
"452 614 LINE",
"835 614 LINE",
"864 460 LINE",
"872 460 LINE",
"872 644 LINE",
"351 644 LINE SMOOTH",
"197 644 OFFCURVE",
"78 500 OFFCURVE",
"78 313 CURVE SMOOTH",
"78 133 OFFCURVE",
"189 0 OFFCURVE",
"340 0 CURVE SMOOTH",
"882 0 LINE",
"882 205 LINE",
"874 205 LINE"
);
},
{
closed = 1;
nodes = (
"112 494 OFFCURVE",
"209 612 OFFCURVE",
"347 612 CURVE SMOOTH",
"402 612 OFFCURVE",
"455 593 OFFCURVE",
"497 558 CURVE",
"543 485 OFFCURVE",
"567 402 OFFCURVE",
"567 316 CURVE SMOOTH",
"567 149 OFFCURVE",
"475 29 OFFCURVE",
"347 29 CURVE SMOOTH",
"214 29 OFFCURVE",
"112 158 OFFCURVE",
"112 327 CURVE SMOOTH"
);
},
{
closed = 1;
nodes = (
"779 228 LINE",
"779 437 LINE",
"771 437 LINE",
"739 332 LINE",
"771 228 LINE"
);
},
{
closed = 1;
nodes = (
"763 317 LINE",
"763 347 LINE",
"586 347 LINE",
"586 317 LINE"
);
}
);
width = 989;
},
{
anchors = (
{
name = bottom;
position = "{535, 0}";
},
{
name = top;
position = "{535, 660}";
}
);
background = {
paths = (
{
closed = 1;
nodes = (
"538 0 OFFCURVE",
"650 128 OFFCURVE",
"650 340 CURVE SMOOTH",
"650 547 OFFCURVE",
"545 660 OFFCURVE",
"346 660 CURVE SMOOTH",
"136 660 OFFCURVE",
"13 532 OFFCURVE",
"13 321 CURVE SMOOTH",
"13 117 OFFCURVE",
"129 0 OFFCURVE",
"329 0 CURVE SMOOTH"
);
},
{
closed = 1;
nodes = (
"271 133 OFFCURVE",
"243 196 OFFCURVE",
"243 330 CURVE SMOOTH",
"243 469 OFFCURVE",
"273 527 OFFCURVE",
"350 527 CURVE SMOOTH",
"372 527 OFFCURVE",
"392 523 OFFCURVE",
"414 513 CURVE",
"426 460 OFFCURVE",
"431 409 OFFCURVE",
"431 345 CURVE SMOOTH",
"431 198 OFFCURVE",
"405 133 OFFCURVE",
"338 133 CURVE SMOOTH"
);
},
{
closed = 1;
nodes = (
"967 0 LINE",
"967 246 LINE",
"878 246 LINE",
"830 133 LINE",
"481 133 LINE",
"329 0 LINE"
);
},
{
closed = 1;
nodes = (
"817 199 LINE",
"817 469 LINE",
"737 469 LINE",
"671 334 LINE",
"737 199 LINE"
);
},
{
closed = 1;
nodes = (
"958 432 LINE",
"958 660 LINE",
"346 660 LINE",
"493 527 LINE",
"825 527 LINE",
"869 432 LINE"
);
}
);
};
layerId = "BFC82823-8905-47CE-90FC-B44BF62F9018";
paths = (
{
closed = 1;
nodes = (
"830 133 LINE",
"506 133 LINE",
"568 90 LINE",
"621 149 OFFCURVE",
"650 234 OFFCURVE",
"650 340 CURVE SMOOTH",
"650 439 OFFCURVE",
"625 517 OFFCURVE",
"579 572 CURVE",
"515 527 LINE",
"825 527 LINE",
"869 432 LINE",
"958 432 LINE",
"958 660 LINE",
"346 660 LINE SMOOTH",
"136 660 OFFCURVE",
"13 532 OFFCURVE",
"13 321 CURVE SMOOTH",
"13 117 OFFCURVE",
"129 0 OFFCURVE",
"329 0 CURVE SMOOTH",
"967 0 LINE",
"967 246 LINE",
"878 246 LINE"
);
},
{
closed = 1;
nodes = (
"243 469 OFFCURVE",
"273 527 OFFCURVE",
"350 527 CURVE SMOOTH",
"372 527 OFFCURVE",
"392 523 OFFCURVE",
"414 513 CURVE",
"426 460 OFFCURVE",
"431 409 OFFCURVE",
"431 345 CURVE SMOOTH",
"431 198 OFFCURVE",
"405 133 OFFCURVE",
"338 133 CURVE SMOOTH",
"271 133 OFFCURVE",
"243 196 OFFCURVE",
"243 330 CURVE SMOOTH"
);
},
{
closed = 1;
nodes = (
"817 199 LINE",
"817 469 LINE",
"737 469 LINE",
"671 334 LINE",
"737 199 LINE"
);
},
{
closed = 1;
nodes = (
"762 269 LINE",
"762 403 LINE",
"520 403 LINE",
"520 269 LINE"
);
}
);
width = 1011;
}
);
leftKerningGroup = O;
rightKerningGroup = E;
unicode = 0152;
},
{
color = 10;
glyphname = P;
layers = (
{
anchors = (
{
name = bottom;
position = "{186, 0}";
},
{
name = top;
position = "{307, 644}";
}
);
layerId = "0E5388DE-A0E6-4EB4-BC9B-CE5870C9023F";
paths = (
{
closed = 1;
nodes = (
"48 644 LINE",
"48 633 LINE",
"173 615 LINE",
"165 29 LINE",
"107 27 OFFCURVE",
"70 21 OFFCURVE",
"48 10 CURVE",
"48 0 LINE",
"348 0 LINE",
"348 12 LINE",
"203 30 LINE",
"203 614 LINE",
"358 614 LINE SMOOTH",
"464 614 OFFCURVE",
"521 560 OFFCURVE",
"521 461 CURVE SMOOTH",
"521 390 OFFCURVE",
"490 342 OFFCURVE",
"415 298 CURVE",
"186 298 LINE",
"186 268 LINE",
"336 268 LINE SMOOTH",
"468 268 OFFCURVE",
"554 347 OFFCURVE",
"554 468 CURVE SMOOTH",
"554 579 OFFCURVE",
"483 644 OFFCURVE",
"361 644 CURVE SMOOTH"
);
}
);
width = 611;
},
{
anchors = (
{
name = bottom;
position = "{340, 0}";
},
{
name = top;
position = "{340, 660}";
}
);
layerId = "BFC82823-8905-47CE-90FC-B44BF62F9018";
paths = (
{
closed = 1;
nodes = (
"8 660 LINE",
"8 580 LINE",
"98 549 LINE",
"85 107 LINE",
"57 98 OFFCURVE",
"33 87 OFFCURVE",
"8 73 CURVE",
"8 0 LINE",
"426 0 LINE",
"426 81 LINE",
"310 103 LINE",
"310 533 LINE",
"367 533 LINE SMOOTH",
"418 533 OFFCURVE",
"446 505 OFFCURVE",
"446 442 CURVE SMOOTH",
"446 405 OFFCURVE",
"436 371 OFFCURVE",
"420 346 CURVE",
"197 346 LINE",
"197 220 LINE",
"394 220 LINE SMOOTH",
"561 220 OFFCURVE",
"673 313 OFFCURVE",
"673 451 CURVE SMOOTH",
"673 577 OFFCURVE",
"578 660 OFFCURVE",
"431 660 CURVE SMOOTH"
);
}
);
width = 666;
}
);
leftKerningGroup = H;
rightKerningGroup = P;
unicode = 0050;
},
{
color = 10;
glyphname = Thorn;
layers = (
{
anchors = (
{
name = bottom;
position = "{186, 0}";
},
{
name = top;
position = "{186, 644}";
}
);
layerId = "0E5388DE-A0E6-4EB4-BC9B-CE5870C9023F";
paths = (
{
closed = 1;
nodes = (
"320 0 LINE",
"320 12 LINE",
"203 30 LINE",
"203 616 LINE",
"246 619 OFFCURVE",
"285 626 OFFCURVE",
"320 635 CURVE",
"320 644 LINE",
"48 644 LINE",
"48 633 LINE",
"173 615 LINE",
"165 29 LINE",
"128 27 OFFCURVE",
"89 21 OFFCURVE",
"48 10 CURVE",
"48 0 LINE"
);
},
{
closed = 1;
nodes = (
"336 148 LINE SMOOTH",
"468 148 OFFCURVE",
"554 227 OFFCURVE",
"554 348 CURVE SMOOTH",
"554 459 OFFCURVE",
"483 524 OFFCURVE",
"361 524 CURVE",
"186 524 LINE",
"186 494 LINE",
"358 494 LINE SMOOTH",
"464 494 OFFCURVE",
"521 440 OFFCURVE",
"521 341 CURVE SMOOTH",
"521 270 OFFCURVE",
"490 222 OFFCURVE",
"415 178 CURVE",
"186 178 LINE",
"186 148 LINE"
);
}
);
width = 611;
},
{
anchors = (
{
name = bottom;
position = "{189, 0}";
},
{
name = top;
position = "{189, 660}";
}
);
background = {
paths = (
{
closed = 1;
nodes = (
"336 0 LINE",
"351 78 LINE",
"279 100 LINE",
"370 556 LINE",
"405 566 OFFCURVE",
"431 580 OFFCURVE",
"454 591 CURVE",
"467 660 LINE",
"88 660 LINE",
"73 580 LINE",
"156 549 LINE",
"56 107 LINE",
"28 98 OFFCURVE",
"0 86 OFFCURVE",
"-29 73 CURVE",
"-43 0 LINE"
);
},
{
closed = 1;
nodes = (
"379 133 LINE SMOOTH",
"564 133 OFFCURVE",
"697 230 OFFCURVE",
"697 366 CURVE SMOOTH",
"697 468 OFFCURVE",
"617 526 OFFCURVE",
"489 526 CURVE SMOOTH",
"255 526 LINE",
"229 403 LINE",
"410 403 LINE SMOOTH",
"456 403 OFFCURVE",
"477 386 OFFCURVE",
"477 352 CURVE SMOOTH",
"477 320 OFFCURVE",
"459 282 OFFCURVE",
"434 257 CURVE",
"200 257 LINE",
"175 133 LINE"
);
}
);
};
layerId = "BFC82823-8905-47CE-90FC-B44BF62F9018";
paths = (
{
closed = 1;
nodes = (
"386 0 LINE",
"386 78 LINE",
"310 100 LINE",
"310 556 LINE",
"337 564 OFFCURVE",
"363 578 OFFCURVE",
"386 591 CURVE",
"386 660 LINE",
"8 660 LINE",
"8 580 LINE",
"98 549 LINE",
"85 107 LINE",
"58 98 OFFCURVE",
"33 87 OFFCURVE",
"8 73 CURVE",
"8 0 LINE"
);
},
{
closed = 1;
nodes = (
"397 133 LINE SMOOTH",
"564 133 OFFCURVE",
"676 213 OFFCURVE",
"676 340 CURVE SMOOTH",
"676 456 OFFCURVE",
"581 526 OFFCURVE",
"433 526 CURVE SMOOTH",
"199 526 LINE",
"199 403 LINE",
"381 403 LINE SMOOTH",
"432 403 OFFCURVE",
"459 382 OFFCURVE",
"459 332 CURVE SMOOTH",
"459 303 OFFCURVE",
"450 277 OFFCURVE",
"433 257 CURVE",
"199 257 LINE",
"199 133 LINE"
);
}
);
width = 664;
}
);
leftKerningGroup = H;
rightKerningGroup = P;
unicode = 00DE;
},
{
color = 10;
glyphname = Q;
layers = (
{
anchors = (
{
name = bottom;
position = "{364, 0}";
},
{
name = top;
position = "{364, 644}";
}
);
layerId = "0E5388DE-A0E6-4EB4-BC9B-CE5870C9023F";
paths = (
{
closed = 1;
nodes = (
"520 -6 OFFCURVE",
"642 138 OFFCURVE",
"642 329 CURVE SMOOTH",
"642 516 OFFCURVE",
"524 652 OFFCURVE",
"365 652 CURVE SMOOTH",
"200 652 OFFCURVE",
"78 507 OFFCURVE",
"78 314 CURVE SMOOTH",
"78 126 OFFCURVE",
"194 -6 OFFCURVE",
"353 -6 CURVE SMOOTH"
);
},
{
closed = 1;
nodes = (
"692 -101 OFFCURVE",
"703 -92 OFFCURVE",
"713 -82 CURVE",
"550 -28 LINE SMOOTH",
"483 -6 OFFCURVE",
"439 5 OFFCURVE",
"382 17 CURVE",
"374 1 LINE",
"681 -108 LINE"
);
},
{
closed = 1;
nodes = (
"216 24 OFFCURVE",
"112 149 OFFCURVE",
"112 316 CURVE SMOOTH",
"112 401 OFFCURVE",
"139 486 OFFCURVE",
"192 564 CURVE",
"243 602 OFFCURVE",
"304 619 OFFCURVE",
"360 619 CURVE SMOOTH",
"507 619 OFFCURVE",
"607 499 OFFCURVE",
"607 328 CURVE SMOOTH",
"607 152 OFFCURVE",
"501 24 OFFCURVE",
"358 24 CURVE SMOOTH"
);
}
);
width = 724;
},
{
anchors = (
{
name = bottom;
position = "{359, 0}";
},
{
name = top;
position = "{355, 660}";
}
);
background = {
paths = (
{
closed = 1;
nodes = (
"558 -14 OFFCURVE",
"686 117 OFFCURVE",
"686 347 CURVE SMOOTH",
"686 554 OFFCURVE",
"565 674 OFFCURVE",
"355 674 CURVE SMOOTH",
"144 674 OFFCURVE",
"15 541 OFFCURVE",
"15 322 CURVE SMOOTH",
"15 107 OFFCURVE",
"133 -14 OFFCURVE",
"339 -14 CURVE SMOOTH"
);
},
{
closed = 1;
nodes = (
"703 -127 OFFCURVE",
"744 -83 OFFCURVE",
"789 -25 CURVE",
"633 19 LINE SMOOTH",
"538 46 OFFCURVE",
"450 64 OFFCURVE",
"364 74 CURVE",
"250 33 LINE",
"643 -175 LINE"
);
},
{
closed = 1;
nodes = (
"276 117 OFFCURVE",
"243 181 OFFCURVE",
"243 326 CURVE SMOOTH",
"243 397 OFFCURVE",
"253 459 OFFCURVE",
"273 520 CURVE",
"296 529 OFFCURVE",
"320 535 OFFCURVE",
"341 535 CURVE SMOOTH",
"422 535 OFFCURVE",
"456 474 OFFCURVE",
"456 330 CURVE SMOOTH",
"456 182 OFFCURVE",
"424 117 OFFCURVE",
"352 117 CURVE SMOOTH"
);
}
);
};
layerId = "BFC82823-8905-47CE-90FC-B44BF62F9018";
paths = (
{
closed = 1;
nodes = (
"558 -14 OFFCURVE",
"686 117 OFFCURVE",
"686 347 CURVE SMOOTH",
"686 554 OFFCURVE",
"565 674 OFFCURVE",
"355 674 CURVE SMOOTH",
"144 674 OFFCURVE",
"15 541 OFFCURVE",
"15 322 CURVE SMOOTH",
"15 107 OFFCURVE",
"133 -14 OFFCURVE",
"339 -14 CURVE SMOOTH"
);
},
{
closed = 1;
nodes = (
"703 -127 OFFCURVE",
"744 -83 OFFCURVE",
"789 -25 CURVE",
"633 19 LINE SMOOTH",
"538 46 OFFCURVE",
"450 64 OFFCURVE",
"364 74 CURVE",
"307 3 LINE",
"643 -175 LINE"
);
},
{
closed = 1;
nodes = (
"276 117 OFFCURVE",
"243 181 OFFCURVE",
"243 326 CURVE SMOOTH",
"243 397 OFFCURVE",
"253 459 OFFCURVE",
"273 520 CURVE",
"296 529 OFFCURVE",
"320 535 OFFCURVE",
"341 535 CURVE SMOOTH",
"422 535 OFFCURVE",
"456 474 OFFCURVE",
"456 330 CURVE SMOOTH",
"456 182 OFFCURVE",
"424 117 OFFCURVE",
"352 117 CURVE SMOOTH"
);
}
);
width = 713;
}
);
leftKerningGroup = O;
rightKerningGroup = O;
unicode = 0051;
},
{
color = 10;
glyphname = R;
layers = (
{
anchors = (
{
name = bottom;
position = "{346, 0}";
},
{
name = top;
position = "{346, 644}";
}
);
layerId = "0E5388DE-A0E6-4EB4-BC9B-CE5870C9023F";
paths = (
{
closed = 1;
nodes = (
"523 185 LINE SMOOTH",
"507 264 OFFCURVE",
"475 303 OFFCURVE",
"416 316 CURVE",
"503 340 OFFCURVE",
"560 408 OFFCURVE",
"560 489 CURVE SMOOTH",
"560 581 OFFCURVE",
"486 644 OFFCURVE",
"376 644 CURVE SMOOTH",
"48 644 LINE",
"48 633 LINE",
"173 615 LINE",
"165 29 LINE",
"109 27 OFFCURVE",
"70 21 OFFCURVE",
"48 10 CURVE",
"48 0 LINE",
"320 0 LINE",
"320 12 LINE",
"203 30 LINE",
"203 614 LINE",
"373 614 LINE SMOOTH",
"468 614 OFFCURVE",
"527 563 OFFCURVE",
"527 481 CURVE SMOOTH",
"527 414 OFFCURVE",
"487 367 OFFCURVE",
"395 328 CURVE",
"193 328 LINE",
"193 298 LINE",
"355 298 LINE SMOOTH",
"436 298 OFFCURVE",
"472 267 OFFCURVE",
"488 182 CURVE SMOOTH",
"523 0 LINE",
"656 0 LINE",
"656 12 LINE",
"554 32 LINE"
);
}
);
width = 688;
},
{
anchors = (
{
name = bottom;
position = "{374, 0}";
},
{
name = top;
position = "{374, 660}";
}
);
layerId = "BFC82823-8905-47CE-90FC-B44BF62F9018";
paths = (
{
closed = 1;
nodes = (
"662 161 LINE SMOOTH",
"648 242 OFFCURVE",
"609 289 OFFCURVE",
"535 310 CURVE",
"623 339 OFFCURVE",
"683 409 OFFCURVE",
"683 491 CURVE SMOOTH",
"683 596 OFFCURVE",
"584 660 OFFCURVE",
"426 660 CURVE SMOOTH",
"8 660 LINE",
"8 580 LINE",
"99 549 LINE",
"86 107 LINE",
"52 95 OFFCURVE",
"28 84 OFFCURVE",
"8 73 CURVE",
"8 0 LINE",
"389 0 LINE",
"389 81 LINE",
"311 103 LINE",
"311 533 LINE",
"377 533 LINE SMOOTH",
"428 533 OFFCURVE",
"456 505 OFFCURVE",
"456 453 CURVE SMOOTH",
"456 420 OFFCURVE",
"444 394 OFFCURVE",
"420 370 CURVE",
"201 370 LINE",
"201 244 LINE",
"368 244 LINE SMOOTH",
"414 244 OFFCURVE",
"429 229 OFFCURVE",
"436 175 CURVE SMOOTH",
"460 0 LINE",
"750 0 LINE",
"750 81 LINE",
"671 104 LINE"
);
}
);
width = 731;
}
);
leftKerningGroup = H;
rightKerningGroup = R;
unicode = 0052;
},
{
color = 10;
glyphname = S;
layers = (
{
anchors = (
{
name = bottom;
position = "{296, 0}";
},
{
name = top;
position = "{320, 644}";
}
);
layerId = "0E5388DE-A0E6-4EB4-BC9B-CE5870C9023F";
paths = (
{
closed = 1;
nodes = (
"421 -8 OFFCURVE",
"519 54 OFFCURVE",
"519 150 CURVE SMOOTH",
"519 332 OFFCURVE",
"138 335 OFFCURVE",
"138 504 CURVE SMOOTH",
"138 551 OFFCURVE",
"168 592 OFFCURVE",
"209 612 CURVE",
"193 606 LINE",
"234 615 OFFCURVE",
"278 620 OFFCURVE",
"325 620 CURVE SMOOTH",
"376 620 OFFCURVE",
"431 614 OFFCURVE",
"488 604 CURVE",
"494 630 LINE",
"442 644 OFFCURVE",
"390 651 OFFCURVE",
"340 651 CURVE SMOOTH",
"196 651 OFFCURVE",
"106 592 OFFCURVE",
"106 497 CURVE SMOOTH",
"106 307 OFFCURVE",
"486 296 OFFCURVE",
"486 145 CURVE SMOOTH",
"486 98 OFFCURVE",
"450 53 OFFCURVE",
"395 25 CURVE",
"413 31 LINE",
"371 25 OFFCURVE",
"330 23 OFFCURVE",
"290 23 CURVE SMOOTH",
"222 23 OFFCURVE",
"156 31 OFFCURVE",
"97 46 CURVE",
"89 18 LINE",
"154 1 OFFCURVE",
"213 -8 OFFCURVE",
"271 -8 CURVE SMOOTH"
);
},
{
closed = 1;
nodes = (
"102 199 LINE",
"94 199 LINE",
"89 18 LINE",
"130 19 LINE"
);
},
{
closed = 1;
nodes = (
"487 459 LINE",
"494 630 LINE",
"453 630 LINE",
"479 459 LINE"
);
}
);
width = 602;
},
{
anchors = (
{
name = bottom;
position = "{291, 0}";
},
{
name = top;
position = "{330, 659}";
}
);
background = {
paths = (
{
closed = 1;
nodes = (
"478 -14 OFFCURVE",
"612 71 OFFCURVE",
"612 198 CURVE SMOOTH",
"612 408 OFFCURVE",
"254 433 OFFCURVE",
"254 503 CURVE SMOOTH",
"254 517 OFFCURVE",
"263 529 OFFCURVE",
"285 547 CURVE",
"192 524 LINE",
"242 523 OFFCURVE",
"275 527 OFFCURVE",
"314 527 CURVE SMOOTH",
"389 527 OFFCURVE",
"459 516 OFFCURVE",
"522 492 CURVE",
"588 643 LINE",
"520 663 OFFCURVE",
"444 673 OFFCURVE",
"368 673 CURVE SMOOTH",
"168 673 OFFCURVE",
"40 594 OFFCURVE",
"40 467 CURVE SMOOTH",
"40 255 OFFCURVE",
"399 230 OFFCURVE",
"399 163 CURVE SMOOTH",
"399 129 OFFCURVE",
"363 111 OFFCURVE",
"381 121 CURVE",
"458 144 LINE",
"407 135 OFFCURVE",
"369 131 OFFCURVE",
"330 131 CURVE SMOOTH",
"265 131 OFFCURVE",
"200 142 OFFCURVE",
"135 164 CURVE",
"35 24 LINE",
"111 -1 OFFCURVE",
"197 -14 OFFCURVE",
"276 -14 CURVE SMOOTH"
);
},
{
closed = 1;
nodes = (
"136 242 LINE",
"39 242 LINE",
"35 24 LINE",
"238 20 LINE"
);
},
{
closed = 1;
nodes = (
"584 425 LINE",
"588 643 LINE",
"386 647 LINE",
"486 425 LINE"
);
}
);
};
layerId = "BFC82823-8905-47CE-90FC-B44BF62F9018";
paths = (
{
closed = 1;
nodes = (
"473 -14 OFFCURVE",
"612 68 OFFCURVE",
"612 199 CURVE SMOOTH",
"612 408 OFFCURVE",
"254 431 OFFCURVE",
"254 505 CURVE SMOOTH",
"254 517 OFFCURVE",
"263 529 OFFCURVE",
"285 547 CURVE",
"192 524 LINE",
"226 527 OFFCURVE",
"259 529 OFFCURVE",
"291 529 CURVE SMOOTH",
"378 529 OFFCURVE",
"454 516 OFFCURVE",
"522 492 CURVE",
"588 643 LINE",
"520 663 OFFCURVE",
"444 673 OFFCURVE",
"368 673 CURVE SMOOTH",
"168 673 OFFCURVE",
"40 594 OFFCURVE",
"40 467 CURVE SMOOTH",
"40 253 OFFCURVE",
"399 235 OFFCURVE",
"399 158 CURVE SMOOTH",
"399 138 OFFCURVE",
"373 117 OFFCURVE",
"381 121 CURVE",
"458 144 LINE",
"417 135 OFFCURVE",
"377 131 OFFCURVE",
"336 131 CURVE SMOOTH",
"268 131 OFFCURVE",
"200 143 OFFCURVE",
"135 164 CURVE",
"35 24 LINE",
"111 -1 OFFCURVE",
"197 -14 OFFCURVE",
"276 -14 CURVE SMOOTH"
);
},
{
closed = 1;
nodes = (
"136 242 LINE",
"39 242 LINE",
"35 24 LINE",
"238 20 LINE"
);
},
{
closed = 1;
nodes = (
"584 425 LINE",
"588 643 LINE",
"386 647 LINE",
"486 425 LINE"
);
}
);
width = 638;
}
);
leftKerningGroup = S;
rightKerningGroup = S;
unicode = 0053;
},
{
color = 10;
glyphname = Saltillo;
layers = (
{
layerId = "0E5388DE-A0E6-4EB4-BC9B-CE5870C9023F";
paths = (
{
closed = 1;
nodes = (
"107 343 LINE",
"137 642 LINE",
"128 644 OFFCURVE",
"119 645 OFFCURVE",
"109 645 CURVE SMOOTH",
"104 645 OFFCURVE",
"99 645 OFFCURVE",
"94 644 CURVE",
"90 344 LINE"
);
}
);
width = 215;
},
{
layerId = "BFC82823-8905-47CE-90FC-B44BF62F9018";
paths = (
{
closed = 1;
nodes = (
"159 313 LINE",
"217 651 LINE",
"175 661 OFFCURVE",
"132 666 OFFCURVE",
"89 666 CURVE SMOOTH",
"72 666 OFFCURVE",
"56 666 OFFCURVE",
"38 664 CURVE",
"49 319 LINE"
);
}
);
width = 233;
}
);
leftKerningGroup = asterisk;
rightKerningGroup = asterisk;
unicode = A78B;
},
{
color = 10;
glyphname = Germandbls;
layers = (
{
anchors = (
{
name = bottom;
position = "{360, 0}";
},
{
name = top;
position = "{360, 644}";
}
);
background = {
anchors = (
{
name = bottom;
position = "{360, 0}";
},
{
name = top;
position = "{360, 644}";
}
);
paths = (
{
closed = 1;
nodes = (
"572 -4 OFFCURVE",
"656 64 OFFCURVE",
"656 189 CURVE SMOOTH",
"656 310 OFFCURVE",
"576 375 OFFCURVE",
"426 375 CURVE SMOOTH",
"352 375 LINE",
"370 361 LINE",
"582 614 LINE",
"582 644 LINE",
"48 644 LINE",
"48 633 LINE",
"173 615 LINE",
"165 29 LINE",
"107 27 OFFCURVE",
"70 21 OFFCURVE",
"48 10 CURVE",
"48 0 LINE",
"203 0 LINE",
"203 614 LINE",
"543 614 LINE",
"338 369 LINE",
"338 345 LINE",
"426 345 LINE SMOOTH",
"556 345 OFFCURVE",
"624 291 OFFCURVE",
"624 189 CURVE SMOOTH",
"624 130 OFFCURVE",
"602 74 OFFCURVE",
"565 43 CURVE",
"474 22 OFFCURVE",
"381 18 OFFCURVE",
"288 37 CURVE",
"281 14 LINE",
"334 2 OFFCURVE",
"383 -4 OFFCURVE",
"426 -4 CURVE SMOOTH"
);
},
{
closed = 1;
nodes = (
"325 14 LINE",
"295 177 LINE",
"285 177 LINE",
"281 14 LINE"
);
}
);
};
layerId = "0E5388DE-A0E6-4EB4-BC9B-CE5870C9023F";
paths = (
{
closed = 1;
nodes = (
"572 -4 OFFCURVE",
"656 64 OFFCURVE",
"656 189 CURVE SMOOTH",
"656 310 OFFCURVE",
"576 375 OFFCURVE",
"426 375 CURVE SMOOTH",
"352 375 LINE",
"370 361 LINE",
"582 614 LINE",
"582 644 LINE",
"48 644 LINE",
"48 633 LINE",
"173 615 LINE",
"165 29 LINE",
"107 27 OFFCURVE",
"70 21 OFFCURVE",
"48 10 CURVE",
"48 0 LINE",
"203 0 LINE",
"203 614 LINE",
"543 614 LINE",
"338 369 LINE",
"338 345 LINE",
"426 345 LINE SMOOTH",
"556 345 OFFCURVE",
"624 291 OFFCURVE",
"624 189 CURVE SMOOTH",
"624 127 OFFCURVE",
"599 68 OFFCURVE",
"559 38 CURVE",
"574 45 LINE",
"520 32 OFFCURVE",
"465 25 OFFCURVE",
"410 25 CURVE SMOOTH",
"370 25 OFFCURVE",
"329 28 OFFCURVE",
"288 37 CURVE",
"281 14 LINE",
"334 2 OFFCURVE",
"383 -4 OFFCURVE",
"426 -4 CURVE SMOOTH"
);
},
{
closed = 1;
nodes = (
"325 14 LINE",
"295 177 LINE",
"285 177 LINE",
"281 14 LINE"
);
}
);
width = 720;
},
{
anchors = (
{
name = bottom;
position = "{417, 0}";
},
{
name = top;
position = "{417, 660}";
}
);
background = {
paths = (
{
closed = 1;
nodes = (
"700 -10 OFFCURVE",
"810 74 OFFCURVE",
"810 217 CURVE SMOOTH",
"810 341 OFFCURVE",
"727 410 OFFCURVE",
"578 410 CURVE SMOOTH",
"503 410 LINE",
"541 352 LINE",
"723 527 LINE",
"723 660 LINE",
"8 660 LINE",
"8 580 LINE",
"98 549 LINE",
"85 107 LINE",
"56 98 OFFCURVE",
"32 87 OFFCURVE",
"8 73 CURVE",
"8 0 LINE",
"310 0 LINE",
"310 527 LINE",
"527 527 LINE",
"407 409 LINE",
"407 270 LINE",
"523 270 LINE SMOOTH",
"583 270 OFFCURVE",
"611 249 OFFCURVE",
"611 205 CURVE SMOOTH",
"611 181 OFFCURVE",
"606 155 OFFCURVE",
"596 128 CURVE",
"528 128 OFFCURVE",
"469 134 OFFCURVE",
"409 149 CURVE",
"360 17 LINE",
"422 -1 OFFCURVE",
"481 -10 OFFCURVE",
"534 -10 CURVE SMOOTH"
);
},
{
closed = 1;
nodes = (
"544 20 LINE",
"452 207 LINE",
"363 207 LINE",
"360 17 LINE"
);
}
);
};
layerId = "BFC82823-8905-47CE-90FC-B44BF62F9018";
paths = (
{
closed = 1;
nodes = (
"707 -10 OFFCURVE",
"810 77 OFFCURVE",
"810 216 CURVE SMOOTH",
"810 338 OFFCURVE",
"730 403 OFFCURVE",
"578 403 CURVE SMOOTH",
"503 403 LINE",
"541 352 LINE",
"723 527 LINE",
"723 660 LINE",
"8 660 LINE",
"8 580 LINE",
"98 549 LINE",
"85 107 LINE",
"56 98 OFFCURVE",
"32 87 OFFCURVE",
"8 73 CURVE",
"8 0 LINE",
"310 0 LINE",
"310 527 LINE",
"527 527 LINE",
"407 409 LINE",
"407 270 LINE",
"532 270 LINE SMOOTH",
"584 270 OFFCURVE",
"610 248 OFFCURVE",
"610 201 CURVE SMOOTH",
"610 169 OFFCURVE",
"597 124 OFFCURVE",
"572 65 CURVE",
"667 129 LINE",
"643 129 OFFCURVE",
"624 128 OFFCURVE",
"599 128 CURVE SMOOTH",
"531 128 OFFCURVE",
"468 134 OFFCURVE",
"409 149 CURVE",
"360 17 LINE",
"425 -1 OFFCURVE",
"483 -10 OFFCURVE",
"538 -10 CURVE SMOOTH"
);
},
{
closed = 1;
nodes = (
"544 20 LINE",
"452 207 LINE",
"363 207 LINE",
"360 17 LINE"
);
}
);
width = 810;
}
);
leftKerningGroup = H;
rightKerningGroup = Germandbls;
unicode = 1E9E;
},
{
glyphname = Schwa;
layers = (
{
anchors = (
{
name = bottom;
position = "{352, 0}";
},
{
name = top;
position = "{342, 644}";
}
);
background = {
paths = (
{
closed = 1;
nodes = (
"502 -7 OFFCURVE",
"625 136 OFFCURVE",
"625 328 CURVE SMOOTH",
"625 529 OFFCURVE",
"499 651 OFFCURVE",
"339 651 CURVE SMOOTH",
"270 651 OFFCURVE",
"194 628 OFFCURVE",
"119 578 CURVE",
"127 562 LINE",
"201 600 OFFCURVE",
"271 618 OFFCURVE",
"333 618 CURVE SMOOTH",
"485 618 OFFCURVE",
"590 511 OFFCURVE",
"590 327 CURVE SMOOTH",
"590 152 OFFCURVE",
"485 23 OFFCURVE",
"341 23 CURVE SMOOTH",
"204 23 OFFCURVE",
"101 140 OFFCURVE",
"95 301 CURVE",
"83 290 LINE",
"605 290 LINE",
"605 320 LINE",
"71 320 LINE",
"61 313 LINE",
"61 126 OFFCURVE",
"176 -7 OFFCURVE",
"336 -7 CURVE SMOOTH"
);
}
);
};
layerId = "0E5388DE-A0E6-4EB4-BC9B-CE5870C9023F";
paths = (
{
closed = 1;
nodes = (
"502 -7 OFFCURVE",
"625 136 OFFCURVE",
"625 328 CURVE SMOOTH",
"625 520 OFFCURVE",
"511 651 OFFCURVE",
"343 651 CURVE SMOOTH",
"269 651 OFFCURVE",
"189 625 OFFCURVE",
"119 578 CURVE",
"127 562 LINE",
"197 598 OFFCURVE",
"272 618 OFFCURVE",
"337 618 CURVE SMOOTH",
"493 618 OFFCURVE",
"590 506 OFFCURVE",
"590 327 CURVE SMOOTH",
"590 240 OFFCURVE",
"563 156 OFFCURVE",
"511 81 CURVE",
"459 44 OFFCURVE",
"403 26 OFFCURVE",
"341 26 CURVE SMOOTH",
"203 26 OFFCURVE",
"101 136 OFFCURVE",
"95 297 CURVE",
"83 286 LINE",
"605 286 LINE",
"605 316 LINE",
"71 316 LINE",
"61 309 LINE",
"61 127 OFFCURVE",
"179 -7 OFFCURVE",
"336 -7 CURVE SMOOTH"
);
}
);
width = 704;
},
{
anchors = (
{
name = bottom;
position = "{343, 0}";
},
{
name = top;
position = "{331, 660}";
}
);
layerId = "BFC82823-8905-47CE-90FC-B44BF62F9018";
paths = (
{
closed = 1;
nodes = (
"542 -14 OFFCURVE",
"673 117 OFFCURVE",
"673 335 CURVE SMOOTH",
"673 542 OFFCURVE",
"548 674 OFFCURVE",
"353 674 CURVE SMOOTH",
"233 674 OFFCURVE",
"129 635 OFFCURVE",
"57 562 CURVE",
"78 495 LINE",
"148 504 OFFCURVE",
"204 510 OFFCURVE",
"251 510 CURVE SMOOTH",
"399 510 OFFCURVE",
"442 456 OFFCURVE",
"442 319 CURVE SMOOTH",
"442 249 OFFCURVE",
"433 188 OFFCURVE",
"412 135 CURVE",
"381 128 OFFCURVE",
"360 125 OFFCURVE",
"341 125 CURVE SMOOTH",
"259 125 OFFCURVE",
"228 181 OFFCURVE",
"232 329 CURVE",
"144 256 LINE",
"570 256 LINE",
"570 373 LINE",
"25 373 LINE",
"6 342 LINE",
"6 108 OFFCURVE",
"116 -14 OFFCURVE",
"326 -14 CURVE SMOOTH"
);
}
);
width = 688;
}
);
leftKerningGroup = O;
rightKerningGroup = O;
unicode = 018F;
},
{
color = 10;
glyphname = T;
layers = (
{
anchors = (
{
name = bottom;
position = "{342, 0}";
},
{
name = center;
position = "{342, 322}";
},
{
name = top;
position = "{343, 644}";
}
);
layerId = "0E5388DE-A0E6-4EB4-BC9B-CE5870C9023F";
paths = (
{
closed = 1;
nodes = (
"67 644 LINE",
"67 403 LINE",
"75 403 LINE",
"105 614 LINE",
"328 614 LINE",
"320 29 LINE",
"276 27 OFFCURVE",
"229 21 OFFCURVE",
"180 10 CURVE",
"180 0 LINE",
"499 0 LINE",
"499 12 LINE",
"358 30 LINE",
"358 614 LINE",
"579 614 LINE",
"609 403 LINE",
"617 403 LINE",
"617 644 LINE"
);
}
);
width = 684;
},
{
anchors = (
{
name = bottom;
position = "{342, 0}";
},
{
name = center;
position = "{342, 316}";
},
{
name = top;
position = "{342, 660}";
}
);
layerId = "BFC82823-8905-47CE-90FC-B44BF62F9018";
paths = (
{
closed = 1;
nodes = (
"3 660 LINE",
"3 386 LINE",
"91 386 LINE",
"146 533 LINE",
"237 533 LINE",
"224 112 LINE",
"181 103 OFFCURVE",
"144 87 OFFCURVE",
"106 73 CURVE",
"106 0 LINE",
"566 0 LINE",
"566 81 LINE",
"449 107 LINE",
"449 533 LINE",
"538 533 LINE",
"593 386 LINE",
"681 386 LINE",
"681 660 LINE"
);
}
);
width = 683;
}
);
leftKerningGroup = T;
rightKerningGroup = T;
unicode = 0054;
},
{
color = 10;
glyphname = U;
layers = (
{
anchors = (
{
name = bottom;
position = "{384, 0}";
},
{
name = ogonek;
position = "{515, 10}";
},
{
name = top;
position = "{384, 644}";
},
{
name = topright;
position = "{728, 644}";
}
);
layerId = "0E5388DE-A0E6-4EB4-BC9B-CE5870C9023F";
paths = (
{
closed = 1;
nodes = (
"532 -8 OFFCURVE",
"619 70 OFFCURVE",
"619 205 CURVE SMOOTH",
"618 616 LINE",
"669 619 OFFCURVE",
"706 625 OFFCURVE",
"735 635 CURVE",
"735 644 LINE",
"463 644 LINE",
"463 633 LINE",
"588 615 LINE",
"584 120 LINE",
"537 50 OFFCURVE",
"480 22 OFFCURVE",
"382 22 CURVE SMOOTH",
"251 22 OFFCURVE",
"185 80 OFFCURVE",
"185 195 CURVE SMOOTH",
"185 616 LINE",
"236 619 OFFCURVE",
"273 625 OFFCURVE",
"302 635 CURVE",
"302 644 LINE",
"30 644 LINE",
"30 633 LINE",
"155 615 LINE",
"149 195 LINE",
"149 62 OFFCURVE",
"230 -8 OFFCURVE",
"382 -8 CURVE SMOOTH"
);
}
);
width = 767;
},
{
anchors = (
{
name = bottom;
position = "{350, 0}";
},
{
name = ogonek;
position = "{560, 10}";
},
{
name = top;
position = "{388, 660}";
},
{
name = topright;
position = "{702, 660}";
}
);
layerId = "BFC82823-8905-47CE-90FC-B44BF62F9018";
paths = (
{
closed = 1;
nodes = (
"542 -14 OFFCURVE",
"651 74 OFFCURVE",
"651 231 CURVE SMOOTH",
"651 552 LINE",
"675 561 OFFCURVE",
"701 573 OFFCURVE",
"729 587 CURVE",
"729 660 LINE",
"425 660 LINE",
"425 580 LINE",
"500 549 LINE",
"490 157 LINE",
"467 137 OFFCURVE",
"430 126 OFFCURVE",
"393 126 CURVE SMOOTH",
"330 126 OFFCURVE",
"288 159 OFFCURVE",
"288 206 CURVE SMOOTH",
"288 552 LINE",
"318 564 OFFCURVE",
"336 573 OFFCURVE",
"356 587 CURVE",
"356 660 LINE",
"-14 660 LINE",
"-14 580 LINE",
"76 549 LINE",
"66 219 LINE",
"66 76 OFFCURVE",
"175 -14 OFFCURVE",
"360 -14 CURVE SMOOTH"
);
}
);
width = 717;
}
);
leftKerningGroup = U;
rightKerningGroup = U;
unicode = 0055;
},
{
color = 10;
glyphname = Uhorn;
layers = (
{
anchors = (
{
name = bottom;
position = "{384, 0}";
},
{
name = top;
position = "{384, 644}";
}
);
layerId = "0E5388DE-A0E6-4EB4-BC9B-CE5870C9023F";
paths = (
{
closed = 1;
nodes = (
"680 739 LINE",
"703 644 LINE",
"463 644 LINE",
"463 633 LINE",
"588 615 LINE",
"584 120 LINE",
"537 50 OFFCURVE",
"480 22 OFFCURVE",
"382 22 CURVE SMOOTH",
"251 22 OFFCURVE",
"185 80 OFFCURVE",
"185 195 CURVE SMOOTH",
"185 616 LINE",
"236 619 OFFCURVE",
"273 625 OFFCURVE",
"302 635 CURVE",
"302 644 LINE",
"30 644 LINE",
"30 633 LINE",
"155 615 LINE",
"149 195 LINE",
"149 62 OFFCURVE",
"230 -8 OFFCURVE",
"382 -8 CURVE SMOOTH",
"532 -8 OFFCURVE",
"619 70 OFFCURVE",
"619 205 CURVE SMOOTH",
"618 616 LINE",
"703 619 OFFCURVE",
"737 626 OFFCURVE",
"737 667 CURVE SMOOTH",
"737 686 OFFCURVE",
"729 713 OFFCURVE",
"717 749 CURVE"
);
}
);
width = 767;
},
{
anchors = (
{
name = bottom;
position = "{385, 0}";
},
{
name = top;
position = "{385, 660}";
}
);
layerId = "BFC82823-8905-47CE-90FC-B44BF62F9018";
paths = (
{
closed = 1;
nodes = (
"625 766 LINE",
"647 660 LINE",
"425 660 LINE",
"425 580 LINE",
"500 549 LINE",
"490 157 LINE",
"467 137 OFFCURVE",
"430 126 OFFCURVE",
"393 126 CURVE SMOOTH",
"330 126 OFFCURVE",
"288 159 OFFCURVE",
"288 206 CURVE SMOOTH",
"288 552 LINE",
"318 564 OFFCURVE",
"336 573 OFFCURVE",
"356 587 CURVE",
"356 660 LINE",
"-14 660 LINE",
"-14 580 LINE",
"76 549 LINE",
"66 219 LINE",
"66 76 OFFCURVE",
"175 -14 OFFCURVE",
"360 -14 CURVE SMOOTH",
"542 -14 OFFCURVE",
"651 74 OFFCURVE",
"651 231 CURVE SMOOTH",
"651 577 LINE",
"743 593 OFFCURVE",
"791 635 OFFCURVE",
"791 697 CURVE SMOOTH",
"791 726 OFFCURVE",
"781 760 OFFCURVE",
"760 796 CURVE"
);
}
);
width = 735;
}
);
leftKerningGroup = U;
rightKerningGroup = U;
unicode = 01AF;
},
{
color = 10;
glyphname = V;
layers = (
{
anchors = (
{
name = bottom;
position = "{354, 0}";
},
{
name = top;
position = "{354, 644}";
}
);
background = {
paths = (
{
closed = 1;
nodes = (
"371 0 LINE",
"622 644 LINE",
"588 644 LINE",
"347 15 LINE",
"358 15 LINE",
"127 644 LINE",
"92 644 LINE",
"332 0 LINE"
);
},
{
closed = 1;
nodes = (
"250 633 LINE",
"250 644 LINE",
"26 644 LINE",
"26 635 LINE",
"56 626 OFFCURVE",
"89 620 OFFCURVE",
"120 616 CURVE"
);
},
{
closed = 1;
nodes = (
"679 633 LINE",
"679 644 LINE",
"446 644 LINE",
"446 635 LINE",
"497 626 OFFCURVE",
"548 620 OFFCURVE",
"599 616 CURVE"
);
}
);
};
layerId = "0E5388DE-A0E6-4EB4-BC9B-CE5870C9023F";
paths = (
{
closed = 1;
nodes = (
"371 0 LINE",
"618 634 LINE",
"584 634 LINE",
"347 15 LINE",
"358 15 LINE",
"131 634 LINE",
"96 634 LINE",
"332 0 LINE"
);
},
{
closed = 1;
nodes = (
"250 633 LINE",
"250 644 LINE",
"26 644 LINE",
"26 635 LINE",
"56 626 OFFCURVE",
"89 620 OFFCURVE",
"120 616 CURVE"
);
},
{
closed = 1;
nodes = (
"679 633 LINE",
"679 644 LINE",
"446 644 LINE",
"446 635 LINE",
"497 626 OFFCURVE",
"548 620 OFFCURVE",
"599 616 CURVE"
);
}
);
width = 705;
},
{
anchors = (
{
name = bottom;
position = "{342, 0}";
},
{
name = top;
position = "{342, 660}";
}
);
background = {
paths = (
{
closed = 1;
nodes = (
"467 0 LINE",
"689 660 LINE",
"522 660 LINE",
"363 106 LINE",
"398 106 LINE",
"246 660 LINE",
"-10 660 LINE",
"220 0 LINE"
);
},
{
closed = 1;
nodes = (
"342 587 LINE",
"342 660 LINE",
"-33 660 LINE",
"-33 584 LINE",
"35 549 OFFCURVE",
"104 526 OFFCURVE",
"176 513 CURVE"
);
},
{
closed = 1;
nodes = (
"716 587 LINE",
"716 660 LINE",
"409 660 LINE",
"409 584 LINE",
"471 549 OFFCURVE",
"536 526 OFFCURVE",
"606 513 CURVE"
);
}
);
};
layerId = "BFC82823-8905-47CE-90FC-B44BF62F9018";
paths = (
{
closed = 1;
nodes = (
"467 0 LINE",
"686 650 LINE",
"519 650 LINE",
"363 106 LINE",
"398 106 LINE",
"248 650 LINE",
"-7 650 LINE",
"220 0 LINE"
);
},
{
closed = 1;
nodes = (
"342 587 LINE",
"342 660 LINE",
"-33 660 LINE",
"-33 584 LINE",
"35 549 OFFCURVE",
"104 526 OFFCURVE",
"176 513 CURVE"
);
},
{
closed = 1;
nodes = (
"716 587 LINE",
"716 660 LINE",
"409 660 LINE",
"409 584 LINE",
"471 549 OFFCURVE",
"536 526 OFFCURVE",
"606 513 CURVE"
);
}
);
width = 683;
}
);
leftKerningGroup = V;
rightKerningGroup = V;
unicode = 0056;
},
{
color = 10;
glyphname = W;
layers = (
{
anchors = (
{
name = bottom;
position = "{514, 0}";
},
{
name = top;
position = "{514, 644}";
}
);
background = {
paths = (
{
closed = 1;
nodes = (
"723 0 LINE",
"942 644 LINE",
"908 644 LINE",
"699 15 LINE",
"710 15 LINE",
"507 644 LINE",
"474 644 LINE",
"684 0 LINE"
);
},
{
closed = 1;
nodes = (
"336 0 LINE",
"523 551 LINE",
"503 586 LINE",
"313 15 LINE",
"324 15 LINE",
"123 644 LINE",
"88 644 LINE",
"298 0 LINE"
);
},
{
closed = 1;
nodes = (
"249 633 LINE",
"249 644 LINE",
"27 644 LINE",
"27 635 LINE",
"57 626 OFFCURVE",
"89 620 OFFCURVE",
"120 616 CURVE"
);
},
{
closed = 1;
nodes = (
"624 633 LINE",
"624 644 LINE",
"394 644 LINE",
"394 635 LINE",
"432 626 OFFCURVE",
"469 620 OFFCURVE",
"506 616 CURVE"
);
},
{
closed = 1;
nodes = (
"1000 633 LINE",
"1000 644 LINE",
"770 644 LINE",
"770 635 LINE",
"820 626 OFFCURVE",
"871 620 OFFCURVE",
"921 616 CURVE"
);
}
);
};
layerId = "0E5388DE-A0E6-4EB4-BC9B-CE5870C9023F";
paths = (
{
closed = 1;
nodes = (
"723 0 LINE",
"939 634 LINE",
"905 634 LINE",
"699 15 LINE",
"710 15 LINE",
"510 634 LINE",
"477 634 LINE",
"684 0 LINE"
);
},
{
closed = 1;
nodes = (
"336 0 LINE",
"523 551 LINE",
"503 586 LINE",
"313 15 LINE",
"324 15 LINE",
"126 634 LINE",
"91 634 LINE",
"298 0 LINE"
);
},
{
closed = 1;
nodes = (
"249 633 LINE",
"249 644 LINE",
"27 644 LINE",
"27 635 LINE",
"57 626 OFFCURVE",
"89 620 OFFCURVE",
"120 616 CURVE"
);
},
{
closed = 1;
nodes = (
"624 633 LINE",
"624 644 LINE",
"394 644 LINE",
"394 635 LINE",
"432 626 OFFCURVE",
"469 620 OFFCURVE",
"506 616 CURVE"
);
},
{
closed = 1;
nodes = (
"1000 633 LINE",
"1000 644 LINE",
"770 644 LINE",
"770 635 LINE",
"820 626 OFFCURVE",
"871 620 OFFCURVE",
"921 616 CURVE"
);
}
);
width = 1027;
},
{
anchors = (
{
name = bottom;
position = "{506, 0}";
},
{
name = top;
position = "{506, 660}";
}
);
background = {
paths = (
{
closed = 1;
nodes = (
"812 0 LINE",
"1013 660 LINE",
"851 660 LINE",
"711 105 LINE",
"744 105 LINE",
"608 660 LINE",
"401 660 LINE",
"573 0 LINE"
);
},
{
closed = 1;
nodes = (
"440 0 LINE",
"568 495 LINE",
"468 618 LINE",
"340 105 LINE",
"372 105 LINE",
"240 660 LINE",
"-10 660 LINE",
"198 0 LINE"
);
},
{
closed = 1;
nodes = (
"326 587 LINE",
"326 660 LINE",
"-31 660 LINE",
"-31 584 LINE",
"32 549 OFFCURVE",
"94 526 OFFCURVE",
"163 513 CURVE"
);
},
{
closed = 1;
nodes = (
"701 587 LINE",
"701 660 LINE",
"378 660 LINE",
"378 584 LINE",
"435 549 OFFCURVE",
"495 526 OFFCURVE",
"559 513 CURVE"
);
},
{
closed = 1;
nodes = (
"1043 587 LINE",
"1043 660 LINE",
"753 660 LINE",
"753 584 LINE",
"809 549 OFFCURVE",
"867 526 OFFCURVE",
"930 513 CURVE"
);
}
);
};
layerId = "BFC82823-8905-47CE-90FC-B44BF62F9018";
paths = (
{
closed = 1;
nodes = (
"812 0 LINE",
"1010 650 LINE",
"848 650 LINE",
"711 105 LINE",
"744 105 LINE",
"610 650 LINE",
"403 650 LINE",
"573 0 LINE"
);
},
{
closed = 1;
nodes = (
"440 0 LINE",
"568 495 LINE",
"468 618 LINE",
"340 105 LINE",
"372 105 LINE",
"242 650 LINE",
"-8 650 LINE",
"198 0 LINE"
);
},
{
closed = 1;
nodes = (
"326 587 LINE",
"326 660 LINE",
"-31 660 LINE",
"-31 584 LINE",
"32 549 OFFCURVE",
"94 526 OFFCURVE",
"163 513 CURVE"
);
},
{
closed = 1;
nodes = (
"701 587 LINE",
"701 660 LINE",
"378 660 LINE",
"378 584 LINE",
"435 549 OFFCURVE",
"495 526 OFFCURVE",
"559 513 CURVE"
);
},
{
closed = 1;
nodes = (
"1043 587 LINE",
"1043 660 LINE",
"753 660 LINE",
"753 584 LINE",
"809 549 OFFCURVE",
"867 526 OFFCURVE",
"930 513 CURVE"
);
}
);
width = 1011;
}
);
leftKerningGroup = V;
rightKerningGroup = V;
unicode = 0057;
},
{
color = 10;
glyphname = X;
layers = (
{
anchors = (
{
name = bottom;
position = "{383, 0}";
},
{
name = center;
position = "{384, 344}";
},
{
name = top;
position = "{383, 644}";
}
);
background = {
paths = (
{
closed = 1;
nodes = (
"151 0 LINE",
"392 328 LINE",
"377 328 LINE",
"610 0 LINE",
"643 0 LINE",
"643 8 LINE",
"389 363 LINE",
"379 363 LINE",
"116 3 LINE",
"116 0 LINE"
);
},
{
closed = 1;
nodes = (
"390 327 LINE",
"615 638 LINE",
"615 641 LINE",
"581 641 LINE",
"379 363 LINE",
"391 363 LINE",
"192 642 LINE",
"160 642 LINE",
"160 633 LINE",
"378 327 LINE"
);
},
{
closed = 1;
nodes = (
"727 0 LINE",
"727 12 LINE",
"611 32 LINE",
"557 30 OFFCURVE",
"506 22 OFFCURVE",
"455 7 CURVE",
"455 0 LINE"
);
},
{
closed = 1;
nodes = (
"306 0 LINE",
"306 12 LINE",
"160 32 LINE",
"116 30 OFFCURVE",
"75 22 OFFCURVE",
"34 7 CURVE",
"34 0 LINE"
);
},
{
closed = 1;
nodes = (
"77 644 LINE",
"77 632 LINE",
"183 612 LINE",
"240 614 OFFCURVE",
"295 622 OFFCURVE",
"349 637 CURVE",
"349 644 LINE"
);
},
{
closed = 1;
nodes = (
"436 644 LINE",
"436 632 LINE",
"572 612 LINE",
"619 614 OFFCURVE",
"664 622 OFFCURVE",
"708 637 CURVE",
"708 644 LINE"
);
}
);
};
layerId = "0E5388DE-A0E6-4EB4-BC9B-CE5870C9023F";
paths = (
{
closed = 1;
nodes = (
"158 10 LINE",
"392 328 LINE",
"377 328 LINE",
"603 10 LINE",
"636 10 LINE",
"636 18 LINE",
"389 363 LINE",
"379 363 LINE",
"123 13 LINE",
"123 10 LINE"
);
},
{
closed = 1;
nodes = (
"390 327 LINE",
"610 631 LINE",
"610 634 LINE",
"576 634 LINE",
"379 363 LINE",
"391 363 LINE",
"198 634 LINE",
"166 634 LINE",
"166 625 LINE",
"378 327 LINE"
);
},
{
closed = 1;
nodes = (
"727 0 LINE",
"727 12 LINE",
"611 32 LINE",
"557 30 OFFCURVE",
"506 22 OFFCURVE",
"455 7 CURVE",
"455 0 LINE"
);
},
{
closed = 1;
nodes = (
"306 0 LINE",
"306 12 LINE",
"160 32 LINE",
"116 30 OFFCURVE",
"75 22 OFFCURVE",
"34 7 CURVE",
"34 0 LINE"
);
},
{
closed = 1;
nodes = (
"77 644 LINE",
"77 632 LINE",
"183 612 LINE",
"240 614 OFFCURVE",
"295 622 OFFCURVE",
"349 637 CURVE",
"349 644 LINE"
);
},
{
closed = 1;
nodes = (
"436 644 LINE",
"436 632 LINE",
"572 612 LINE",
"619 614 OFFCURVE",
"664 622 OFFCURVE",
"708 637 CURVE",
"708 644 LINE"
);
}
);
width = 766;
},
{
anchors = (
{
name = bottom;
position = "{368, 0}";
},
{
name = center;
position = "{365, 335}";
},
{
name = top;
position = "{368, 660}";
}
);
background = {
paths = (
{
closed = 1;
nodes = (
"159 0 LINE",
"356 302 LINE",
"295 302 LINE",
"486 0 LINE",
"723 0 LINE",
"723 79 LINE",
"511 386 LINE",
"246 386 LINE",
"29 90 LINE",
"29 0 LINE"
);
},
{
closed = 1;
nodes = (
"506 309 LINE",
"710 585 LINE",
"709 660 LINE",
"568 660 LINE",
"397 393 LINE",
"456 393 LINE",
"286 660 LINE",
"38 660 LINE",
"38 594 LINE",
"242 309 LINE"
);
},
{
closed = 1;
nodes = (
"750 0 LINE",
"750 81 LINE",
"571 146 LINE",
"498 135 OFFCURVE",
"423 111 OFFCURVE",
"354 74 CURVE",
"354 0 LINE"
);
},
{
closed = 1;
nodes = (
"293 0 LINE",
"293 81 LINE",
"154 146 LINE",
"97 135 OFFCURVE",
"39 111 OFFCURVE",
"-15 74 CURVE",
"-15 0 LINE"
);
},
{
closed = 1;
nodes = (
"0 660 LINE",
"0 580 LINE",
"177 514 LINE",
"249 526 OFFCURVE",
"322 550 OFFCURVE",
"390 587 CURVE",
"390 660 LINE"
);
},
{
closed = 1;
nodes = (
"442 660 LINE",
"442 580 LINE",
"574 514 LINE",
"630 526 OFFCURVE",
"685 550 OFFCURVE",
"737 587 CURVE",
"737 660 LINE"
);
}
);
};
layerId = "BFC82823-8905-47CE-90FC-B44BF62F9018";
paths = (
{
closed = 1;
nodes = (
"165 10 LINE",
"356 302 LINE",
"295 302 LINE",
"480 10 LINE",
"723 10 LINE",
"723 79 LINE",
"511 386 LINE",
"246 386 LINE",
"29 90 LINE",
"29 10 LINE"
);
},
{
closed = 1;
nodes = (
"506 309 LINE",
"710 585 LINE",
"709 650 LINE",
"562 650 LINE",
"397 393 LINE",
"456 393 LINE",
"292 650 LINE",
"38 650 LINE",
"38 594 LINE",
"242 309 LINE"
);
},
{
closed = 1;
nodes = (
"750 0 LINE",
"750 81 LINE",
"571 146 LINE",
"498 135 OFFCURVE",
"423 111 OFFCURVE",
"354 74 CURVE",
"354 0 LINE"
);
},
{
closed = 1;
nodes = (
"293 0 LINE",
"293 81 LINE",
"154 146 LINE",
"97 135 OFFCURVE",
"39 111 OFFCURVE",
"-15 74 CURVE",
"-15 0 LINE"
);
},
{
closed = 1;
nodes = (
"0 660 LINE",
"0 580 LINE",
"177 514 LINE",
"249 526 OFFCURVE",
"322 550 OFFCURVE",
"390 587 CURVE",
"390 660 LINE"
);
},
{
closed = 1;
nodes = (
"442 660 LINE",
"442 580 LINE",
"574 514 LINE",
"630 526 OFFCURVE",
"685 550 OFFCURVE",
"737 587 CURVE",
"737 660 LINE"
);
}
);
width = 737;
}
);
leftKerningGroup = X;
rightKerningGroup = X;
unicode = 0058;
},
{
color = 10;
glyphname = Y;
layers = (
{
anchors = (
{
name = bottom;
position = "{340, 0}";
},
{
name = center;
position = "{333, 179}";
},
{
name = top;
position = "{340, 644}";
},
{
name = topleft;
position = "{47, 644}";
}
);
background = {
paths = (
{
closed = 1;
nodes = (
"338 237 LINE",
"565 641 LINE",
"565 644 LINE",
"531 644 LINE",
"327 273 LINE",
"339 273 LINE",
"139 644 LINE",
"107 644 LINE",
"107 635 LINE",
"326 237 LINE"
);
},
{
closed = 1;
nodes = (
"480 0 LINE",
"480 12 LINE",
"349 30 LINE",
"349 270 LINE",
"315 270 LINE",
"311 29 LINE",
"270 27 OFFCURVE",
"227 21 OFFCURVE",
"181 10 CURVE",
"181 0 LINE"
);
},
{
closed = 1;
nodes = (
"188 614 OFFCURVE",
"243 622 OFFCURVE",
"297 637 CURVE",
"297 644 LINE",
"25 644 LINE",
"25 632 LINE",
"131 612 LINE"
);
},
{
closed = 1;
nodes = (
"567 614 OFFCURVE",
"612 622 OFFCURVE",
"656 637 CURVE",
"656 644 LINE",
"384 644 LINE",
"384 632 LINE",
"520 612 LINE"
);
}
);
};
layerId = "0E5388DE-A0E6-4EB4-BC9B-CE5870C9023F";
paths = (
{
closed = 1;
nodes = (
"338 237 LINE",
"559 631 LINE",
"559 634 LINE",
"525 634 LINE",
"327 273 LINE",
"339 273 LINE",
"145 634 LINE",
"113 634 LINE",
"113 625 LINE",
"326 237 LINE"
);
},
{
closed = 1;
nodes = (
"480 0 LINE",
"480 12 LINE",
"349 30 LINE",
"349 270 LINE",
"315 270 LINE",
"311 29 LINE",
"270 27 OFFCURVE",
"227 21 OFFCURVE",
"181 10 CURVE",
"181 0 LINE"
);
},
{
closed = 1;
nodes = (
"188 614 OFFCURVE",
"243 622 OFFCURVE",
"297 637 CURVE",
"297 644 LINE",
"25 644 LINE",
"25 632 LINE",
"131 612 LINE"
);
},
{
closed = 1;
nodes = (
"567 614 OFFCURVE",
"612 622 OFFCURVE",
"656 637 CURVE",
"656 644 LINE",
"384 644 LINE",
"384 632 LINE",
"520 612 LINE"
);
}
);
width = 680;
},
{
anchors = (
{
name = bottom;
position = "{334, 0}";
},
{
name = center;
position = "{337, 181}";
},
{
name = top;
position = "{363, 660}";
},
{
name = topleft;
position = "{-23, 660}";
}
);
background = {
paths = (
{
closed = 1;
nodes = (
"400 154 LINE",
"674 585 LINE",
"673 660 LINE",
"542 660 LINE",
"358 331 LINE",
"424 331 LINE",
"244 660 LINE",
"4 660 LINE",
"4 594 LINE",
"275 154 LINE"
);
},
{
closed = 1;
nodes = (
"547 0 LINE",
"547 81 LINE",
"449 103 LINE",
"449 317 LINE",
"230 317 LINE",
"224 107 LINE",
"188 98 OFFCURVE",
"158 87 OFFCURVE",
"127 73 CURVE",
"127 0 LINE"
);
},
{
closed = 1;
nodes = (
"214 526 OFFCURVE",
"287 550 OFFCURVE",
"355 587 CURVE",
"355 660 LINE",
"-35 660 LINE",
"-35 580 LINE",
"142 514 LINE"
);
},
{
closed = 1;
nodes = (
"595 526 OFFCURVE",
"650 550 OFFCURVE",
"702 587 CURVE",
"702 660 LINE",
"407 660 LINE",
"407 580 LINE",
"539 514 LINE"
);
}
);
};
layerId = "BFC82823-8905-47CE-90FC-B44BF62F9018";
paths = (
{
closed = 1;
nodes = (
"400 154 LINE",
"674 585 LINE",
"673 650 LINE",
"537 650 LINE",
"358 331 LINE",
"424 331 LINE",
"248 650 LINE",
"4 650 LINE",
"4 594 LINE",
"275 154 LINE"
);
},
{
closed = 1;
nodes = (
"547 0 LINE",
"547 81 LINE",
"449 103 LINE",
"449 317 LINE",
"230 317 LINE",
"224 107 LINE",
"188 98 OFFCURVE",
"158 87 OFFCURVE",
"127 73 CURVE",
"127 0 LINE"
);
},
{
closed = 1;
nodes = (
"214 526 OFFCURVE",
"287 550 OFFCURVE",
"355 587 CURVE",
"355 660 LINE",
"-35 660 LINE",
"-35 580 LINE",
"142 514 LINE"
);
},
{
closed = 1;
nodes = (
"595 526 OFFCURVE",
"650 550 OFFCURVE",
"702 587 CURVE",
"702 660 LINE",
"407 660 LINE",
"407 580 LINE",
"539 514 LINE"
);
}
);
width = 667;
}
);
leftKerningGroup = Y;
rightKerningGroup = Y;
unicode = 0059;
},
{
color = 10;
glyphname = Z;
layers = (
{
anchors = (
{
name = bottom;
position = "{321, 0}";
},
{
name = top;
position = "{321, 644}";
}
);
layerId = "0E5388DE-A0E6-4EB4-BC9B-CE5870C9023F";
paths = (
{
closed = 1;
nodes = (
"568 0 LINE",
"563 186 LINE",
"556 186 LINE",
"534 31 LINE",
"121 24 LINE",
"562 641 LINE",
"562 644 LINE",
"89 644 LINE",
"93 465 LINE",
"100 465 LINE",
"122 613 LINE",
"509 620 LINE",
"67 3 LINE",
"67 0 LINE"
);
}
);
width = 644;
},
{
anchors = (
{
name = bottom;
position = "{335, 0}";
},
{
name = top;
position = "{335, 660}";
}
);
layerId = "BFC82823-8905-47CE-90FC-B44BF62F9018";
paths = (
{
closed = 1;
nodes = (
"635 0 LINE",
"633 269 LINE",
"537 269 LINE",
"484 134 LINE",
"310 123 LINE",
"639 572 LINE",
"639 660 LINE",
"39 660 LINE",
"38 384 LINE",
"136 384 LINE",
"193 530 LINE",
"356 537 LINE",
"27 89 LINE",
"27 0 LINE"
);
}
);
width = 667;
}
);
leftKerningGroup = Z;
rightKerningGroup = Z;
unicode = 005A;
},
{
glyphname = B.curr;
layers = (
{
anchors = (
{
name = bottom;
position = "{331, 0}";
},
{
name = top;
position = "{331, 592}";
}
);
layerId = "0E5388DE-A0E6-4EB4-BC9B-CE5870C9023F";
paths = (
{
closed = 1;
nodes = (
"492 333 OFFCURVE",
"547 389 OFFCURVE",
"547 458 CURVE SMOOTH",
"547 538 OFFCURVE",
"475 592 OFFCURVE",
"368 592 CURVE SMOOTH",
"54 592 LINE",
"54 581 LINE",
"175 565 LINE",
"167 28 LINE",
"111 26 OFFCURVE",
"75 19 OFFCURVE",
"54 10 CURVE",
"54 0 LINE",
"360 0 LINE SMOOTH",
"494 0 OFFCURVE",
"579 63 OFFCURVE",
"579 161 CURVE SMOOTH",
"579 235 OFFCURVE",
"513 293 OFFCURVE",
"410 310 CURVE"
);
},
{
closed = 1;
nodes = (
"205 577 LINE",
"192 564 LINE",
"365 564 LINE SMOOTH",
"457 564 OFFCURVE",
"514 520 OFFCURVE",
"514 452 CURVE SMOOTH",
"514 392 OFFCURVE",
"467 347 OFFCURVE",
"377 321 CURVE",
"198 321 LINE",
"198 292 LINE",
"357 292 LINE SMOOTH",
"469 292 OFFCURVE",
"545 237 OFFCURVE",
"545 157 CURVE SMOOTH",
"545 94 OFFCURVE",
"498 45 OFFCURVE",
"414 29 CURVE",
"192 29 LINE",
"205 16 LINE"
);
}
);
userData = {
RMXScaler = {
height = 91.9;
width = 97;
};
};
width = 653;
},
{
anchors = (
{
name = bottom;
position = "{346, 0}";
},
{
name = top;
position = "{346, 609}";
}
);
layerId = "BFC82823-8905-47CE-90FC-B44BF62F9018";
paths = (
{
closed = 1;
nodes = (
"607 339 OFFCURVE",
"659 393 OFFCURVE",
"659 464 CURVE SMOOTH",
"659 556 OFFCURVE",
"573 609 OFFCURVE",
"420 609 CURVE SMOOTH",
"13 609 LINE",
"13 530 LINE",
"100 501 LINE",
"87 104 LINE",
"53 90 OFFCURVE",
"35 82 OFFCURVE",
"13 71 CURVE",
"13 0 LINE",
"409 0 LINE SMOOTH",
"580 0 OFFCURVE",
"679 61 OFFCURVE",
"679 167 CURVE SMOOTH",
"679 242 OFFCURVE",
"628 291 OFFCURVE",
"522 313 CURVE"
);
},
{
closed = 1;
nodes = (
"307 577 LINE",
"215 485 LINE",
"363 485 LINE SMOOTH",
"411 485 OFFCURVE",
"436 465 OFFCURVE",
"436 424 CURVE SMOOTH",
"436 401 OFFCURVE",
"426 380 OFFCURVE",
"403 362 CURVE",
"292 362 LINE",
"292 239 LINE",
"393 239 LINE SMOOTH",
"434 239 OFFCURVE",
"456 220 OFFCURVE",
"456 181 CURVE SMOOTH",
"456 153 OFFCURVE",
"447 136 OFFCURVE",
"422 122 CURVE",
"215 122 LINE",
"307 30 LINE"
);
}
);
userData = {
RMXScaler = {
height = 91.8;
weight = -5;
width = 97;
};
};
width = 691;
}
);
leftKerningGroup = H.curr;
rightKerningGroup = B.curr;
userData = {
RMXScaler = {
source = B;
};
};
},
{
glyphname = C.curr;
layers = (
{
anchors = (
{
name = bottom;
position = "{372, 0}";
},
{
name = top;
position = "{372, 592}";
}
);
layerId = "0E5388DE-A0E6-4EB4-BC9B-CE5870C9023F";
paths = (
{
closed = 1;
nodes = (
"427 -6 OFFCURVE",
"478 1 OFFCURVE",
"539 15 CURVE",
"534 46 LINE",
"479 31 OFFCURVE",
"428 24 OFFCURVE",
"383 24 CURVE SMOOTH",
"212 24 OFFCURVE",
"109 121 OFFCURVE",
"109 291 CURVE SMOOTH",
"109 384 OFFCURVE",
"139 465 OFFCURVE",
"190 531 CURVE",
"177 520 LINE",
"244 552 OFFCURVE",
"316 569 OFFCURVE",
"390 569 CURVE SMOOTH",
"436 569 OFFCURVE",
"484 562 OFFCURVE",
"534 548 CURVE",
"539 581 LINE",
"487 594 OFFCURVE",
"436 601 OFFCURVE",
"389 601 CURVE SMOOTH",
"195 601 OFFCURVE",
"75 485 OFFCURVE",
"75 295 CURVE SMOOTH",
"75 101 OFFCURVE",
"182 -6 OFFCURVE",
"377 -6 CURVE SMOOTH"
);
},
{
closed = 1;
nodes = (
"539 15 LINE",
"539 182 LINE",
"531 182 LINE",
"494 15 LINE"
);
},
{
closed = 1;
nodes = (
"539 414 LINE",
"539 581 LINE",
"494 581 LINE",
"531 414 LINE"
);
}
);
userData = {
RMXScaler = {
height = 91.9;
width = 97;
};
};
width = 646;
},
{
anchors = (
{
name = bottom;
position = "{345, 0}";
},
{
name = top;
position = "{345, 609}";
}
);
layerId = "BFC82823-8905-47CE-90FC-B44BF62F9018";
paths = (
{
closed = 1;
nodes = (
"398 -12 OFFCURVE",
"476 -1 OFFCURVE",
"564 23 CURVE",
"500 168 LINE",
"440 143 OFFCURVE",
"388 128 OFFCURVE",
"348 128 CURVE SMOOTH",
"267 128 OFFCURVE",
"233 183 OFFCURVE",
"233 302 CURVE SMOOTH",
"233 392 OFFCURVE",
"251 460 OFFCURVE",
"290 534 CURVE",
"205 473 LINE",
"233 475 OFFCURVE",
"267 477 OFFCURVE",
"301 477 CURVE SMOOTH",
"372 477 OFFCURVE",
"442 465 OFFCURVE",
"511 444 CURVE",
"564 596 LINE",
"485 614 OFFCURVE",
"414 622 OFFCURVE",
"357 622 CURVE SMOOTH",
"138 622 OFFCURVE",
"10 503 OFFCURVE",
"10 297 CURVE SMOOTH",
"10 102 OFFCURVE",
"129 -12 OFFCURVE",
"333 -12 CURVE SMOOTH"
);
},
{
closed = 1;
nodes = (
"564 23 LINE",
"564 239 LINE",
"472 239 LINE",
"366 19 LINE"
);
},
{
closed = 1;
nodes = (
"564 380 LINE",
"564 596 LINE",
"367 598 LINE",
"472 380 LINE"
);
}
);
userData = {
RMXScaler = {
height = 91.8;
weight = -5;
width = 97;
};
};
width = 614;
}
);
leftKerningGroup = O.curr;
rightKerningGroup = C.curr;
userData = {
RMXScaler = {
source = C;
};
};
},
{
glyphname = G.curr;
layers = (
{
anchors = (
{
name = bottom;
position = "{382, 0}";
},
{
name = top;
position = "{401, 592}";
}
);
layerId = "0E5388DE-A0E6-4EB4-BC9B-CE5870C9023F";
paths = (
{
closed = 1;
nodes = (
"435 -6 OFFCURVE",
"491 1 OFFCURVE",
"553 15 CURVE",
"548 46 LINE",
"491 31 OFFCURVE",
"440 24 OFFCURVE",
"392 24 CURVE SMOOTH",
"215 24 OFFCURVE",
"108 121 OFFCURVE",
"108 291 CURVE SMOOTH",
"108 384 OFFCURVE",
"139 465 OFFCURVE",
"192 531 CURVE",
"179 520 LINE",
"250 552 OFFCURVE",
"325 568 OFFCURVE",
"401 568 CURVE SMOOTH",
"453 568 OFFCURVE",
"499 561 OFFCURVE",
"548 548 CURVE",
"553 581 LINE",
"496 595 OFFCURVE",
"443 601 OFFCURVE",
"401 601 CURVE SMOOTH",
"198 601 OFFCURVE",
"74 485 OFFCURVE",
"74 295 CURVE SMOOTH",
"74 100 OFFCURVE",
"185 -6 OFFCURVE",
"386 -6 CURVE SMOOTH"
);
},
{
closed = 1;
nodes = (
"553 15 LINE",
"553 262 LINE",
"582 265 OFFCURVE",
"611 271 OFFCURVE",
"640 280 CURVE",
"640 289 LINE",
"370 289 LINE",
"370 278 LINE",
"519 261 LINE",
"515 15 LINE"
);
},
{
closed = 1;
nodes = (
"553 414 LINE",
"553 581 LINE",
"507 581 LINE",
"545 414 LINE"
);
}
);
userData = {
RMXScaler = {
height = 91.9;
width = 97;
};
};
width = 693;
},
{
anchors = (
{
name = bottom;
position = "{341, 0}";
},
{
name = top;
position = "{360, 609}";
}
);
layerId = "BFC82823-8905-47CE-90FC-B44BF62F9018";
paths = (
{
closed = 1;
nodes = (
"430 -12 OFFCURVE",
"510 -1 OFFCURVE",
"600 23 CURVE",
"536 157 LINE",
"470 133 OFFCURVE",
"415 121 OFFCURVE",
"372 121 CURVE SMOOTH",
"276 121 OFFCURVE",
"231 178 OFFCURVE",
"231 302 CURVE SMOOTH",
"231 386 OFFCURVE",
"254 456 OFFCURVE",
"305 534 CURVE",
"147 466 LINE",
"199 474 OFFCURVE",
"251 476 OFFCURVE",
"294 476 CURVE SMOOTH",
"374 476 OFFCURVE",
"453 465 OFFCURVE",
"527 444 CURVE",
"600 596 LINE",
"520 614 OFFCURVE",
"447 622 OFFCURVE",
"382 622 CURVE SMOOTH",
"147 622 OFFCURVE",
"8 503 OFFCURVE",
"8 297 CURVE SMOOTH",
"8 102 OFFCURVE",
"137 -12 OFFCURVE",
"359 -12 CURVE SMOOTH"
);
},
{
closed = 1;
nodes = (
"600 23 LINE",
"600 225 LINE",
"634 237 OFFCURVE",
"649 245 OFFCURVE",
"672 257 CURVE",
"672 329 LINE",
"309 329 LINE",
"309 250 LINE",
"395 221 LINE",
"389 23 LINE"
);
},
{
closed = 1;
nodes = (
"600 385 LINE",
"600 596 LINE",
"403 598 LINE",
"509 385 LINE"
);
}
);
userData = {
RMXScaler = {
height = 91.8;
weight = -5;
width = 97;
};
};
width = 674;
}
);
leftKerningGroup = O.curr;
rightKerningGroup = G.curr;
userData = {
RMXScaler = {
source = G;
};
};
},
{
glyphname = K.curr;
layers = (
{
anchors = (
{
name = bottom;
position = "{364, 0}";
},
{
name = top;
position = "{364, 592}";
}
);
layerId = "0E5388DE-A0E6-4EB4-BC9B-CE5870C9023F";
paths = (
{
closed = 1;
nodes = (
"318 0 LINE",
"318 12 LINE",
"205 29 LINE",
"205 566 LINE",
"247 568 OFFCURVE",
"288 576 OFFCURVE",
"318 583 CURVE",
"318 592 LINE",
"54 592 LINE",
"54 581 LINE",
"175 565 LINE",
"167 28 LINE",
"133 26 OFFCURVE",
"94 20 OFFCURVE",
"54 10 CURVE",
"54 0 LINE"
);
},
{
closed = 1;
nodes = (
"689 0 LINE",
"689 12 LINE",
"586 31 LINE",
"531 29 OFFCURVE",
"479 21 OFFCURVE",
"425 7 CURVE",
"425 0 LINE"
);
},
{
closed = 1;
nodes = (
"584 563 OFFCURVE",
"631 573 OFFCURVE",
"671 585 CURVE",
"671 592 LINE",
"407 592 LINE",
"407 580 LINE",
"539 561 LINE"
);
},
{
closed = 1;
nodes = (
"582 580 LINE",
"582 583 LINE",
"542 583 LINE",
"251 307 LINE",
"564 9 LINE",
"608 9 LINE",
"608 17 LINE",
"287 320 LINE",
"287 299 LINE"
);
}
);
userData = {
RMXScaler = {
height = 91.9;
width = 97;
};
};
width = 732;
},
{
anchors = (
{
name = bottom;
position = "{385, 0}";
},
{
name = top;
position = "{385, 609}";
}
);
layerId = "BFC82823-8905-47CE-90FC-B44BF62F9018";
paths = (
{
closed = 1;
nodes = (
"382 0 LINE",
"382 79 LINE",
"308 99 LINE",
"308 504 LINE",
"338 515 OFFCURVE",
"357 525 OFFCURVE",
"382 537 CURVE",
"382 609 LINE",
"13 609 LINE",
"13 530 LINE",
"101 501 LINE",
"88 104 LINE",
"49 90 OFFCURVE",
"41 85 OFFCURVE",
"13 71 CURVE",
"13 0 LINE"
);
},
{
closed = 1;
nodes = (
"757 0 LINE",
"757 79 LINE",
"598 142 LINE",
"535 131 OFFCURVE",
"470 109 OFFCURVE",
"409 72 CURVE",
"409 0 LINE"
);
},
{
closed = 1;
nodes = (
"633 479 OFFCURVE",
"685 501 OFFCURVE",
"737 537 CURVE",
"737 609 LINE",
"451 609 LINE",
"451 529 LINE",
"580 467 LINE"
);
},
{
closed = 1;
nodes = (
"703 537 LINE",
"702 599 LINE",
"558 599 LINE",
"305 293 LINE",
"485 9 LINE",
"722 9 LINE",
"722 77 LINE",
"483 421 LINE",
"476 274 LINE"
);
}
);
userData = {
RMXScaler = {
height = 91.8;
weight = -5;
width = 97;
};
};
width = 746;
}
);
leftKerningGroup = H.curr;
rightKerningGroup = X.curr;
userData = {
RMXScaler = {
source = K;
};
};
},
{
glyphname = N.curr;
layers = (
{
anchors = (
{
name = bottom;
position = "{389, 0}";
},
{
name = top;
position = "{389, 592}";
}
);
layerId = "0E5388DE-A0E6-4EB4-BC9B-CE5870C9023F";
paths = (
{
closed = 1;
nodes = (
"469 581 LINE",
"586 565 LINE",
"594 37 LINE",
"602 39 LINE",
"202 592 LINE",
"54 592 LINE",
"54 581 LINE",
"175 565 LINE",
"167 28 LINE",
"133 26 OFFCURVE",
"94 20 OFFCURVE",
"54 10 CURVE",
"54 0 LINE",
"327 0 LINE",
"327 12 LINE",
"201 29 LINE",
"201 548 LINE",
"193 546 LINE",
"587 0 LINE",
"619 0 LINE",
"620 566 LINE",
"654 567 OFFCURVE",
"696 574 OFFCURVE",
"733 583 CURVE",
"733 592 LINE",
"469 592 LINE"
);
}
);
userData = {
RMXScaler = {
height = 91.9;
width = 97;
};
};
width = 773;
},
{
anchors = (
{
name = bottom;
position = "{388, 0}";
},
{
name = top;
position = "{388, 609}";
}
);
layerId = "BFC82823-8905-47CE-90FC-B44BF62F9018";
paths = (
{
closed = 1;
nodes = (
"471 530 LINE",
"556 509 LINE",
"567 156 LINE",
"610 170 LINE",
"336 609 LINE",
"13 609 LINE",
"13 530 LINE",
"98 501 LINE",
"85 104 LINE",
"61 96 OFFCURVE",
"37 84 OFFCURVE",
"16 71 CURVE",
"16 0 LINE",
"327 0 LINE",
"327 79 LINE",
"230 99 LINE",
"230 472 LINE",
"184 458 LINE",
"469 0 LINE",
"699 0 LINE",
"700 504 LINE",
"733 515 OFFCURVE",
"753 526 OFFCURVE",
"772 537 CURVE",
"772 609 LINE",
"471 609 LINE"
);
}
);
userData = {
RMXScaler = {
height = 91.8;
weight = -5;
width = 97;
};
};
width = 777;
}
);
leftKerningGroup = H.curr;
rightKerningGroup = H.curr;
userData = {
RMXScaler = {
source = N;
};
};
},
{
glyphname = P.curr;
layers = (
{
anchors = (
{
name = _center;
position = "{417, 264}";
},
{
name = bottom;
position = "{189, 0}";
},
{
name = top;
position = "{306, 592}";
}
);
layerId = "0E5388DE-A0E6-4EB4-BC9B-CE5870C9023F";
paths = (
{
closed = 1;
nodes = (
"54 592 LINE",
"54 581 LINE",
"175 565 LINE",
"167 28 LINE",
"112 26 OFFCURVE",
"75 20 OFFCURVE",
"54 10 CURVE",
"54 0 LINE",
"346 0 LINE",
"346 12 LINE",
"205 29 LINE",
"205 564 LINE",
"355 564 LINE SMOOTH",
"457 564 OFFCURVE",
"513 514 OFFCURVE",
"513 424 CURVE SMOOTH",
"513 360 OFFCURVE",
"483 315 OFFCURVE",
"410 275 CURVE",
"188 275 LINE",
"188 246 LINE",
"334 246 LINE SMOOTH",
"462 246 OFFCURVE",
"546 319 OFFCURVE",
"546 430 CURVE SMOOTH",
"546 532 OFFCURVE",
"477 592 OFFCURVE",
"358 592 CURVE SMOOTH"
);
}
);
userData = {
RMXScaler = {
height = 91.9;
width = 97;
};
};
width = 600;
},
{
anchors = (
{
name = _center;
position = "{449, 250}";
},
{
name = bottom;
position = "{338, 0}";
},
{
name = top;
position = "{337, 609}";
}
);
layerId = "BFC82823-8905-47CE-90FC-B44BF62F9018";
paths = (
{
closed = 1;
nodes = (
"13 609 LINE",
"13 530 LINE",
"101 501 LINE",
"88 104 LINE",
"59 94 OFFCURVE",
"39 85 OFFCURVE",
"13 71 CURVE",
"13 0 LINE",
"420 0 LINE",
"420 79 LINE",
"308 99 LINE",
"308 485 LINE",
"363 485 LINE SMOOTH",
"411 485 OFFCURVE",
"438 461 OFFCURVE",
"438 406 CURVE SMOOTH",
"438 373 OFFCURVE",
"429 342 OFFCURVE",
"414 322 CURVE",
"198 322 LINE",
"198 199 LINE",
"389 199 LINE SMOOTH",
"551 199 OFFCURVE",
"661 286 OFFCURVE",
"661 414 CURVE SMOOTH",
"661 531 OFFCURVE",
"568 609 OFFCURVE",
"425 609 CURVE SMOOTH"
);
}
);
userData = {
RMXScaler = {
height = 91.8;
weight = -5;
width = 97;
};
};
width = 650;
}
);
leftKerningGroup = H.curr;
rightKerningGroup = P.curr;
userData = {
RMXScaler = {
source = P;
};
};
},
{
glyphname = R.curr;
layers = (
{
anchors = (
{
name = bottom;
position = "{335, 0}";
},
{
name = top;
position = "{335, 592}";
}
);
layerId = "0E5388DE-A0E6-4EB4-BC9B-CE5870C9023F";
paths = (
{
closed = 1;
nodes = (
"508 170 LINE SMOOTH",
"495 233 OFFCURVE",
"468 278 OFFCURVE",
"404 290 CURVE",
"488 313 OFFCURVE",
"544 375 OFFCURVE",
"544 450 CURVE SMOOTH",
"544 534 OFFCURVE",
"472 592 OFFCURVE",
"365 592 CURVE SMOOTH",
"46 592 LINE",
"46 581 LINE",
"167 565 LINE",
"159 28 LINE",
"105 26 OFFCURVE",
"67 19 OFFCURVE",
"46 10 CURVE",
"46 0 LINE",
"310 0 LINE",
"310 12 LINE",
"197 29 LINE",
"197 564 LINE",
"362 564 LINE SMOOTH",
"453 564 OFFCURVE",
"511 517 OFFCURVE",
"511 442 CURVE SMOOTH",
"511 381 OFFCURVE",
"472 338 OFFCURVE",
"383 302 CURVE",
"187 302 LINE",
"187 273 LINE",
"344 273 LINE SMOOTH",
"425 273 OFFCURVE",
"458 242 OFFCURVE",
"473 167 CURVE SMOOTH",
"507 0 LINE",
"637 0 LINE",
"637 12 LINE",
"538 30 LINE"
);
}
);
userData = {
RMXScaler = {
height = 91.9;
width = 97;
};
};
width = 668;
},
{
anchors = (
{
name = bottom;
position = "{363, 0}";
},
{
name = top;
position = "{363, 609}";
}
);
layerId = "BFC82823-8905-47CE-90FC-B44BF62F9018";
paths = (
{
closed = 1;
nodes = (
"643 147 LINE SMOOTH",
"632 212 OFFCURVE",
"599 264 OFFCURVE",
"520 285 CURVE",
"605 313 OFFCURVE",
"663 377 OFFCURVE",
"663 453 CURVE SMOOTH",
"663 550 OFFCURVE",
"566 609 OFFCURVE",
"413 609 CURVE SMOOTH",
"7 609 LINE",
"7 530 LINE",
"95 501 LINE",
"82 104 LINE",
"34 86 OFFCURVE",
"24 80 OFFCURVE",
"7 71 CURVE",
"7 0 LINE",
"378 0 LINE",
"378 79 LINE",
"302 99 LINE",
"302 485 LINE",
"365 485 LINE SMOOTH",
"414 485 OFFCURVE",
"441 461 OFFCURVE",
"441 415 CURVE SMOOTH",
"441 385 OFFCURVE",
"428 363 OFFCURVE",
"408 343 CURVE",
"195 343 LINE",
"195 221 LINE",
"357 221 LINE SMOOTH",
"407 221 OFFCURVE",
"415 204 OFFCURVE",
"422 161 CURVE SMOOTH",
"446 0 LINE",
"728 0 LINE",
"728 79 LINE",
"652 100 LINE"
);
}
);
userData = {
RMXScaler = {
height = 91.8;
weight = -5;
width = 97;
};
};
width = 709;
}
);
leftKerningGroup = H.curr;
rightKerningGroup = R.curr;
userData = {
RMXScaler = {
source = R;
};
};
},
{
glyphname = S.curr;
layers = (
{
anchors = (
{
name = bottom;
position = "{287, 0}";
},
{
name = top;
position = "{310, 592}";
}
);
layerId = "0E5388DE-A0E6-4EB4-BC9B-CE5870C9023F";
paths = (
{
closed = 1;
nodes = (
"408 -7 OFFCURVE",
"504 50 OFFCURVE",
"504 139 CURVE SMOOTH",
"504 306 OFFCURVE",
"134 309 OFFCURVE",
"134 463 CURVE SMOOTH",
"134 508 OFFCURVE",
"166 545 OFFCURVE",
"203 562 CURVE",
"187 556 LINE",
"227 564 OFFCURVE",
"266 569 OFFCURVE",
"315 569 CURVE SMOOTH",
"368 569 OFFCURVE",
"418 563 OFFCURVE",
"474 554 CURVE",
"480 580 LINE",
"431 592 OFFCURVE",
"380 599 OFFCURVE",
"330 599 CURVE SMOOTH",
"190 599 OFFCURVE",
"102 544 OFFCURVE",
"102 457 CURVE SMOOTH",
"102 282 OFFCURVE",
"471 271 OFFCURVE",
"471 134 CURVE SMOOTH",
"471 90 OFFCURVE",
"436 50 OFFCURVE",
"383 24 CURVE",
"401 30 LINE",
"357 24 OFFCURVE",
"315 23 OFFCURVE",
"282 23 CURVE SMOOTH",
"215 23 OFFCURVE",
"152 30 OFFCURVE",
"94 44 CURVE",
"86 17 LINE",
"149 1 OFFCURVE",
"205 -7 OFFCURVE",
"263 -7 CURVE SMOOTH"
);
},
{
closed = 1;
nodes = (
"99 184 LINE",
"91 184 LINE",
"86 17 LINE",
"127 17 LINE"
);
},
{
closed = 1;
nodes = (
"473 422 LINE",
"480 580 LINE",
"439 580 LINE",
"465 422 LINE"
);
}
);
userData = {
RMXScaler = {
height = 91.9;
width = 97;
};
};
width = 586;
},
{
anchors = (
{
name = bottom;
position = "{276, 0}";
},
{
name = top;
position = "{315, 608}";
}
);
layerId = "BFC82823-8905-47CE-90FC-B44BF62F9018";
paths = (
{
closed = 1;
nodes = (
"453 -13 OFFCURVE",
"589 63 OFFCURVE",
"589 186 CURVE SMOOTH",
"589 380 OFFCURVE",
"243 403 OFFCURVE",
"243 465 CURVE SMOOTH",
"243 473 OFFCURVE",
"250 483 OFFCURVE",
"271 499 CURVE",
"181 477 LINE",
"219 480 OFFCURVE",
"250 481 OFFCURVE",
"276 481 CURVE SMOOTH",
"357 481 OFFCURVE",
"432 470 OFFCURVE",
"502 446 CURVE",
"566 594 LINE",
"502 611 OFFCURVE",
"428 621 OFFCURVE",
"352 621 CURVE SMOOTH",
"157 621 OFFCURVE",
"34 547 OFFCURVE",
"34 428 CURVE SMOOTH",
"34 229 OFFCURVE",
"381 212 OFFCURVE",
"381 147 CURVE SMOOTH",
"381 129 OFFCURVE",
"356 112 OFFCURVE",
"364 118 CURVE",
"440 140 LINE",
"403 132 OFFCURVE",
"364 129 OFFCURVE",
"320 129 CURVE SMOOTH",
"253 129 OFFCURVE",
"190 139 OFFCURVE",
"127 159 CURVE",
"29 22 LINE",
"103 -1 OFFCURVE",
"185 -13 OFFCURVE",
"263 -13 CURVE SMOOTH"
);
},
{
closed = 1;
nodes = (
"128 225 LINE",
"33 225 LINE",
"29 22 LINE",
"226 18 LINE"
);
},
{
closed = 1;
nodes = (
"562 389 LINE",
"566 594 LINE",
"369 597 LINE",
"467 389 LINE"
);
}
);
userData = {
RMXScaler = {
height = 91.8;
weight = -5;
width = 97;
};
};
width = 614;
}
);
leftKerningGroup = S.curr;
rightKerningGroup = S.curr;
userData = {
RMXScaler = {
source = S;
};
};
},
{
glyphname = T.curr;
layers = (
{
anchors = (
{
name = bottom;
position = "{336, 0}";
},
{
name = center;
position = "{336, 296}";
},
{
name = top;
position = "{337, 592}";
}
);
layerId = "0E5388DE-A0E6-4EB4-BC9B-CE5870C9023F";
paths = (
{
closed = 1;
nodes = (
"69 592 LINE",
"69 370 LINE",
"77 370 LINE",
"106 564 LINE",
"322 564 LINE",
"314 28 LINE",
"272 26 OFFCURVE",
"225 19 OFFCURVE",
"179 10 CURVE",
"179 0 LINE",
"489 0 LINE",
"489 12 LINE",
"352 29 LINE",
"352 564 LINE",
"566 564 LINE",
"595 370 LINE",
"603 370 LINE",
"603 592 LINE"
);
}
);
userData = {
RMXScaler = {
height = 91.9;
width = 97;
};
};
width = 672;
},
{
anchors = (
{
name = bottom;
position = "{338, 0}";
},
{
name = center;
position = "{338, 291}";
},
{
name = top;
position = "{338, 609}";
}
);
layerId = "BFC82823-8905-47CE-90FC-B44BF62F9018";
paths = (
{
closed = 1;
nodes = (
"8 609 LINE",
"8 355 LINE",
"94 355 LINE",
"147 485 LINE",
"235 485 LINE",
"222 108 LINE",
"181 100 OFFCURVE",
"149 86 OFFCURVE",
"108 71 CURVE",
"108 0 LINE",
"555 0 LINE",
"555 79 LINE",
"441 104 LINE",
"441 485 LINE",
"527 485 LINE",
"580 355 LINE",
"667 355 LINE",
"667 609 LINE"
);
}
);
userData = {
RMXScaler = {
height = 91.8;
weight = -5;
width = 97;
};
};
width = 673;
}
);
leftKerningGroup = T.curr;
rightKerningGroup = T.curr;
userData = {
RMXScaler = {
source = T;
};
};
},
{
glyphname = W.curr;
layers = (
{
anchors = (
{
name = bottom;
position = "{504, 0}";
},
{
name = top;
position = "{504, 592}";
}
);
layerId = "0E5388DE-A0E6-4EB4-BC9B-CE5870C9023F";
paths = (
{
closed = 1;
nodes = (
"707 0 LINE",
"916 583 LINE",
"883 583 LINE",
"683 15 LINE",
"694 15 LINE",
"500 583 LINE",
"468 583 LINE",
"668 0 LINE"
);
},
{
closed = 1;
nodes = (
"332 0 LINE",
"513 506 LINE",
"493 539 LINE",
"309 15 LINE",
"320 15 LINE",
"128 583 LINE",
"93 583 LINE",
"294 0 LINE"
);
},
{
closed = 1;
nodes = (
"247 581 LINE",
"247 592 LINE",
"31 592 LINE",
"31 583 LINE",
"63 574 OFFCURVE",
"92 569 OFFCURVE",
"122 565 CURVE"
);
},
{
closed = 1;
nodes = (
"611 581 LINE",
"611 592 LINE",
"387 592 LINE",
"387 583 LINE",
"422 575 OFFCURVE",
"460 569 OFFCURVE",
"496 565 CURVE"
);
},
{
closed = 1;
nodes = (
"976 581 LINE",
"976 592 LINE",
"752 592 LINE",
"752 583 LINE",
"798 575 OFFCURVE",
"848 569 OFFCURVE",
"899 565 CURVE"
);
}
);
userData = {
RMXScaler = {
height = 91.9;
width = 97;
};
};
width = 1007;
},
{
anchors = (
{
name = bottom;
position = "{498, 0}";
},
{
name = top;
position = "{498, 609}";
}
);
layerId = "BFC82823-8905-47CE-90FC-B44BF62F9018";
paths = (
{
closed = 1;
nodes = (
"795 0 LINE",
"987 599 LINE",
"829 599 LINE",
"696 102 LINE",
"729 102 LINE",
"598 599 LINE",
"396 599 LINE",
"562 0 LINE"
);
},
{
closed = 1;
nodes = (
"434 0 LINE",
"557 452 LINE",
"460 571 LINE",
"337 102 LINE",
"367 102 LINE",
"242 599 LINE",
"-2 599 LINE",
"198 0 LINE"
);
},
{
closed = 1;
nodes = (
"323 537 LINE",
"323 609 LINE",
"-24 609 LINE",
"-24 534 LINE",
"37 500 OFFCURVE",
"99 478 OFFCURVE",
"165 466 CURVE"
);
},
{
closed = 1;
nodes = (
"687 537 LINE",
"687 609 LINE",
"373 609 LINE",
"373 534 LINE",
"429 500 OFFCURVE",
"490 478 OFFCURVE",
"550 466 CURVE"
);
},
{
closed = 1;
nodes = (
"1019 537 LINE",
"1019 609 LINE",
"737 609 LINE",
"737 534 LINE",
"794 499 OFFCURVE",
"850 478 OFFCURVE",
"909 466 CURVE"
);
}
);
userData = {
RMXScaler = {
height = 91.8;
weight = -5;
width = 97;
};
};
width = 994;
}
);
leftKerningGroup = V.curr;
rightKerningGroup = V.curr;
userData = {
RMXScaler = {
source = W;
};
};
},
{
color = 10;
glyphname = "Oslash.rule-Weight_118_208";
layers = (
{
anchors = (
{
name = bottom;
position = "{348, 0}";
},
{
name = center;
position = "{364, 322}";
},
{
name = ogonek;
position = "{530, 30}";
},
{
name = top;
position = "{348, 644}";
},
{
name = topleft;
position = "{39, 644}";
},
{
name = topright;
position = "{615, 644}";
}
);
layerId = "0E5388DE-A0E6-4EB4-BC9B-CE5870C9023F";
paths = (
{
closed = 1;
nodes = (
"200 50 LINE",
"136 -80 LINE",
"161 -90 LINE",
"224 36 LINE"
);
},
{
closed = 1;
nodes = (
"497 592 LINE",
"560 722 LINE",
"535 732 LINE",
"473 606 LINE"
);
},
{
closed = 1;
nodes = (
"525 -7 OFFCURVE",
"647 137 OFFCURVE",
"647 328 CURVE SMOOTH",
"647 515 OFFCURVE",
"529 651 OFFCURVE",
"370 651 CURVE SMOOTH",
"205 651 OFFCURVE",
"83 506 OFFCURVE",
"83 313 CURVE SMOOTH",
"83 125 OFFCURVE",
"199 -7 OFFCURVE",
"358 -7 CURVE SMOOTH"
);
},
{
closed = 1;
nodes = (
"221 23 OFFCURVE",
"117 148 OFFCURVE",
"117 315 CURVE SMOOTH",
"117 400 OFFCURVE",
"144 485 OFFCURVE",
"197 563 CURVE",
"245 599 OFFCURVE",
"306 618 OFFCURVE",
"365 618 CURVE SMOOTH",
"513 618 OFFCURVE",
"612 497 OFFCURVE",
"612 327 CURVE SMOOTH",
"612 151 OFFCURVE",
"506 23 OFFCURVE",
"363 23 CURVE SMOOTH"
);
}
);
width = 725;
},
{
anchors = (
{
name = bottom;
position = "{363, 0}";
},
{
name = center;
position = "{351, 330}";
},
{
name = ogonek;
position = "{577, 12}";
},
{
name = top;
position = "{363, 660}";
},
{
name = topleft;
position = "{7, 660}";
},
{
name = topright;
position = "{602, 660}";
}
);
layerId = "BFC82823-8905-47CE-90FC-B44BF62F9018";
paths = (
{
closed = 1;
nodes = (
"203 121 LINE",
"120 -71 LINE",
"235 -113 LINE",
"316 71 LINE"
);
},
{
closed = 1;
nodes = (
"528 556 LINE",
"600 723 LINE",
"485 764 LINE",
"416 607 LINE"
);
},
{
closed = 1;
nodes = (
"558 -14 OFFCURVE",
"686 117 OFFCURVE",
"686 347 CURVE SMOOTH",
"686 554 OFFCURVE",
"565 674 OFFCURVE",
"355 674 CURVE SMOOTH",
"144 674 OFFCURVE",
"15 541 OFFCURVE",
"15 322 CURVE SMOOTH",
"15 107 OFFCURVE",
"133 -14 OFFCURVE",
"339 -14 CURVE SMOOTH"
);
},
{
closed = 1;
nodes = (
"277 117 OFFCURVE",
"245 181 OFFCURVE",
"245 326 CURVE SMOOTH",
"245 397 OFFCURVE",
"254 459 OFFCURVE",
"274 520 CURVE",
"297 530 OFFCURVE",
"320 535 OFFCURVE",
"342 535 CURVE SMOOTH",
"423 535 OFFCURVE",
"456 474 OFFCURVE",
"456 330 CURVE SMOOTH",
"456 182 OFFCURVE",
"425 117 OFFCURVE",
"353 117 CURVE SMOOTH"
);
}
);
width = 701;
}
);
leftKerningGroup = O;
rightKerningGroup = O;
},
{
color = 10;
glyphname = C.ss01;
layers = (
{
components = (
{
alignment = -1;
name = C;
transform = "{0.97087, 0, 0, 0.97087, 127, 9}";
}
);
layerId = "0E5388DE-A0E6-4EB4-BC9B-CE5870C9023F";
paths = (
{
closed = 1;
nodes = (
"927 624 LINE",
"927 644 LINE",
"-25 644 LINE",
"-25 624 LINE"
);
},
{
closed = 1;
nodes = (
"927 0 LINE",
"927 20 LINE",
"-25 20 LINE",
"-25 0 LINE"
);
}
);
width = 902;
},
{
components = (
{
alignment = -1;
name = C;
transform = "{0.95238, 0, 0, 0.95238, 56, 13}";
}
);
layerId = "BFC82823-8905-47CE-90FC-B44BF62F9018";
paths = (
{
closed = 1;
nodes = (
"744 580 LINE",
"744 660 LINE",
"-25 660 LINE",
"-25 580 LINE"
);
},
{
closed = 1;
nodes = (
"744 0 LINE",
"744 80 LINE",
"-25 80 LINE",
"-25 0 LINE"
);
}
);
width = 719;
}
);
leftKerningGroup = i.ss01;
leftMetricsKey = "=-25";
rightKerningGroup = i.ss01;
rightMetricsKey = "=-25";
},
{
color = 10;
glyphname = D.ss01;
layers = (
{
components = (
{
alignment = -1;
name = D;
transform = "{0.97087, 0, 0, 0.97087, 130, 9}";
}
);
layerId = "0E5388DE-A0E6-4EB4-BC9B-CE5870C9023F";
paths = (
{
closed = 1;
nodes = (
"994 624 LINE",
"994 644 LINE",
"-25 644 LINE",
"-25 624 LINE"
);
},
{
closed = 1;
nodes = (
"994 0 LINE",
"994 20 LINE",
"-25 20 LINE",
"-25 0 LINE"
);
}
);
width = 969;
},
{
components = (
{
alignment = -1;
name = D;
transform = "{1, 0, 0, 1, 56, 0}";
}
);
layerId = "BFC82823-8905-47CE-90FC-B44BF62F9018";
paths = (
{
closed = 1;
nodes = (
"876 580 LINE",
"876 660 LINE",
"-25 660 LINE",
"-25 580 LINE"
);
},
{
closed = 1;
nodes = (
"876 0 LINE",
"876 80 LINE",
"-25 80 LINE",
"-25 0 LINE"
);
}
);
width = 851;
}
);
leftKerningGroup = i.ss01;
leftMetricsKey = "=-25";
rightKerningGroup = i.ss01;
rightMetricsKey = "=-25";
},
{
color = 10;
glyphname = I.ss01;
layers = (
{
components = (
{
alignment = -1;
name = I;
transform = "{0.97087, 0, 0, 0.97087, 130, 9}";
}
);
layerId = "0E5388DE-A0E6-4EB4-BC9B-CE5870C9023F";
paths = (
{
closed = 1;
nodes = (
"644 624 LINE",
"644 644 LINE",
"-25 644 LINE",
"-25 624 LINE"
);
},
{
closed = 1;
nodes = (
"644 0 LINE",
"644 20 LINE",
"-25 20 LINE",
"-25 0 LINE"
);
}
);
width = 619;
},
{
components = (
{
alignment = -1;
name = I;
transform = "{1, 0, 0, 1, 56, 0}";
}
);
layerId = "BFC82823-8905-47CE-90FC-B44BF62F9018";
paths = (
{
closed = 1;
nodes = (
"534 580 LINE",
"534 660 LINE",
"-25 660 LINE",
"-25 580 LINE"
);
},
{
closed = 1;
nodes = (
"534 0 LINE",
"534 80 LINE",
"-25 80 LINE",
"-25 0 LINE"
);
}
);
width = 509;
}
);
leftKerningGroup = i.ss01;
leftMetricsKey = "=-25";
rightKerningGroup = i.ss01;
rightMetricsKey = "=-25";
},
{
color = 10;
glyphname = L.ss01;
layers = (
{
components = (
{
alignment = -1;
name = L;
transform = "{0.97087, 0, 0, 0.97087, 130, 9}";
}
);
layerId = "0E5388DE-A0E6-4EB4-BC9B-CE5870C9023F";
paths = (
{
closed = 1;
nodes = (
"826 624 LINE",
"826 644 LINE",
"-25 644 LINE",
"-25 624 LINE"
);
},
{
closed = 1;
nodes = (
"826 0 LINE",
"826 20 LINE",
"-25 20 LINE",
"-25 0 LINE"
);
}
);
width = 801;
},
{
components = (
{
alignment = -1;
name = L;
transform = "{1, 0, 0, 1, 56, 0}";
}
);
layerId = "BFC82823-8905-47CE-90FC-B44BF62F9018";
paths = (
{
closed = 1;
nodes = (
"716 580 LINE",
"716 660 LINE",
"-25 660 LINE",
"-25 580 LINE"
);
},
{
closed = 1;
nodes = (
"716 0 LINE",
"716 80 LINE",
"-25 80 LINE",
"-25 0 LINE"
);
}
);
width = 691;
}
);
leftKerningGroup = i.ss01;
leftMetricsKey = "=-25";
rightKerningGroup = i.ss01;
rightMetricsKey = "=-25";
},
{
color = 10;
glyphname = M.ss01;
layers = (
{
components = (
{
alignment = -1;
name = M;
transform = "{0.97087, 0, 0, 0.97087, 129, 9}";
}
);
layerId = "0E5388DE-A0E6-4EB4-BC9B-CE5870C9023F";
paths = (
{
closed = 1;
nodes = (
"1197 624 LINE",
"1197 644 LINE",
"-25 644 LINE",
"-25 624 LINE"
);
},
{
closed = 1;
nodes = (
"1197 0 LINE",
"1197 20 LINE",
"-25 20 LINE",
"-25 0 LINE"
);
}
);
width = 1172;
},
{
components = (
{
alignment = -1;
name = M;
transform = "{1, 0, 0, 1, 56, 0}";
}
);
layerId = "BFC82823-8905-47CE-90FC-B44BF62F9018";
paths = (
{
closed = 1;
nodes = (
"1113 580 LINE",
"1113 660 LINE",
"-25 660 LINE",
"-25 580 LINE"
);
},
{
closed = 1;
nodes = (
"1113 0 LINE",
"1113 80 LINE",
"-25 80 LINE",
"-25 0 LINE"
);
}
);
width = 1088;
}
);
leftKerningGroup = i.ss01;
leftMetricsKey = "=-25";
rightKerningGroup = i.ss01;
rightMetricsKey = "=-25";
},
{
color = 10;
glyphname = V.ss01;
layers = (
{
components = (
{
alignment = -1;
name = V;
transform = "{0.97087, 0, 0, 0.97087, 106, 9}";
}
);
layerId = "0E5388DE-A0E6-4EB4-BC9B-CE5870C9023F";
paths = (
{
closed = 1;
nodes = (
"923 624 LINE",
"923 644 LINE",
"-25 644 LINE",
"-25 624 LINE"
);
},
{
closed = 1;
nodes = (
"923 0 LINE",
"923 20 LINE",
"-25 20 LINE",
"-25 0 LINE"
);
}
);
width = 898;
},
{
components = (
{
alignment = -1;
name = V;
transform = "{1, 0, 0, 1, 37, 0}";
}
);
layerId = "BFC82823-8905-47CE-90FC-B44BF62F9018";
paths = (
{
closed = 1;
nodes = (
"781 580 LINE",
"781 660 LINE",
"-25 660 LINE",
"-25 580 LINE"
);
},
{
closed = 1;
nodes = (
"781 0 LINE",
"781 80 LINE",
"-25 80 LINE",
"-25 0 LINE"
);
}
);
width = 756;
}
);
leftKerningGroup = i.ss01;
leftMetricsKey = "=-25";
rightKerningGroup = i.ss01;
rightMetricsKey = "=-25";
},
{
color = 10;
glyphname = X.ss01;
layers = (
{
components = (
{
alignment = -1;
name = X;
transform = "{0.97087, 0, 0, 0.97087, 128, 9}";
}
);
layerId = "0E5388DE-A0E6-4EB4-BC9B-CE5870C9023F";
paths = (
{
closed = 1;
nodes = (
"1025 624 LINE",
"1025 644 LINE",
"-25 644 LINE",
"-25 624 LINE"
);
},
{
closed = 1;
nodes = (
"1025 0 LINE",
"1025 20 LINE",
"-25 20 LINE",
"-25 0 LINE"
);
}
);
width = 1000;
},
{
components = (
{
alignment = -1;
name = X;
transform = "{1, 0, 0, 1, 57, 0}";
}
);
layerId = "BFC82823-8905-47CE-90FC-B44BF62F9018";
paths = (
{
closed = 1;
nodes = (
"874 580 LINE",
"874 660 LINE",
"-25 660 LINE",
"-25 580 LINE"
);
},
{
closed = 1;
nodes = (
"874 0 LINE",
"874 80 LINE",
"-25 80 LINE",
"-25 0 LINE"
);
}
);
width = 849;
}
);
leftKerningGroup = i.ss01;
leftMetricsKey = "=-25";
rightKerningGroup = i.ss01;
rightMetricsKey = "=-25";
},
{
color = 10;
glyphname = a;
layers = (
{
anchors = (
{
name = bottom;
position = "{223, 0}";
},
{
name = ogonek;
position = "{475, 10}";
},
{
name = top;
position = "{233, 478}";
}
);
background = {
paths = (
{
closed = 1;
nodes = (
"140 452 OFFCURVE",
"165 456 OFFCURVE",
"190 456 CURVE SMOOTH",
"249 456 OFFCURVE",
"303 436 OFFCURVE",
"344 398 CURVE",
"336 78 LINE",
"346 25 OFFCURVE",
"379 -4 OFFCURVE",
"413 -4 CURVE SMOOTH",
"437 -4 OFFCURVE",
"462 10 OFFCURVE",
"479 42 CURVE",
"370 40 LINE",
"370 414 LINE",
"328 460 OFFCURVE",
"271 485 OFFCURVE",
"210 485 CURVE SMOOTH",
"129 485 OFFCURVE",
"68 440 OFFCURVE",
"68 380 CURVE SMOOTH",
"68 354 OFFCURVE",
"80 330 OFFCURVE",
"100 319 CURVE",
"114 445 LINE"
);
},
{
closed = 1;
nodes = (
"245 6 OFFCURVE",
"295 31 OFFCURVE",
"348 75 CURVE",
"348 93 LINE",
"286 49 OFFCURVE",
"229 27 OFFCURVE",
"182 27 CURVE SMOOTH",
"120 27 OFFCURVE",
"87 63 OFFCURVE",
"87 123 CURVE SMOOTH",
"87 141 OFFCURVE",
"90 162 OFFCURVE",
"96 184 CURVE",
"358 244 LINE",
"358 271 LINE",
"110 223 OFFCURVE",
"53 193 OFFCURVE",
"53 116 CURVE SMOOTH",
"53 44 OFFCURVE",
"104 -8 OFFCURVE",
"178 -9 CURVE"
);
}
);
};
layerId = "0E5388DE-A0E6-4EB4-BC9B-CE5870C9023F";
paths = (
{
closed = 1;
nodes = (
"437 -4 OFFCURVE",
"462 10 OFFCURVE",
"479 42 CURVE",
"370 40 LINE",
"370 414 LINE",
"328 460 OFFCURVE",
"271 485 OFFCURVE",
"210 485 CURVE SMOOTH",
"129 485 OFFCURVE",
"68 440 OFFCURVE",
"68 380 CURVE SMOOTH",
"68 354 OFFCURVE",
"80 330 OFFCURVE",
"100 319 CURVE",
"115 451 LINE",
"105 442 LINE",
"134 451 OFFCURVE",
"162 456 OFFCURVE",
"190 456 CURVE SMOOTH",
"249 456 OFFCURVE",
"303 436 OFFCURVE",
"344 398 CURVE",
"336 78 LINE",
"346 25 OFFCURVE",
"379 -4 OFFCURVE",
"413 -4 CURVE SMOOTH"
);
},
{
closed = 1;
nodes = (
"245 6 OFFCURVE",
"295 31 OFFCURVE",
"348 75 CURVE",
"348 93 LINE",
"286 49 OFFCURVE",
"229 27 OFFCURVE",
"182 27 CURVE SMOOTH",
"120 27 OFFCURVE",
"87 63 OFFCURVE",
"87 123 CURVE SMOOTH",
"87 143 OFFCURVE",
"91 168 OFFCURVE",
"98 190 CURVE",
"87 182 LINE",
"358 244 LINE",
"358 271 LINE",
"110 223 OFFCURVE",
"53 193 OFFCURVE",
"53 116 CURVE SMOOTH",
"53 44 OFFCURVE",
"104 -8 OFFCURVE",
"178 -9 CURVE"
);
}
);
width = 485;
},
{
anchors = (
{
name = bottom;
position = "{272, 0}";
},
{
name = ogonek;
position = "{550, 10}";
},
{
name = top;
position = "{272, 495}";
}
);
background = {
paths = (
{
closed = 1;
nodes = (
"481 -11 OFFCURVE",
"550 39 OFFCURVE",
"550 127 CURVE SMOOTH",
"550 134 OFFCURVE",
"550 140 OFFCURVE",
"549 147 CURVE",
"479 132 LINE",
"479 408 LINE",
"427 472 OFFCURVE",
"352 505 OFFCURVE",
"262 505 CURVE SMOOTH",
"130 505 OFFCURVE",
"14 437 OFFCURVE",
"14 360 CURVE SMOOTH",
"14 308 OFFCURVE",
"66 282 OFFCURVE",
"167 283 CURVE",
"194 448 LINE",
"69 391 LINE",
"84 392 OFFCURVE",
"99 393 OFFCURVE",
"114 393 CURVE SMOOTH",
"183 393 OFFCURVE",
"245 379 OFFCURVE",
"294 353 CURVE",
"278 100 LINE",
"296 24 OFFCURVE",
"354 -11 OFFCURVE",
"411 -11 CURVE SMOOTH"
);
},
{
closed = 1;
nodes = (
"258 31 OFFCURVE",
"286 74 OFFCURVE",
"310 126 CURVE",
"310 134 LINE",
"293 128 OFFCURVE",
"278 125 OFFCURVE",
"259 125 CURVE SMOOTH",
"228 125 OFFCURVE",
"214 141 OFFCURVE",
"214 186 CURVE SMOOTH",
"214 202 OFFCURVE",
"216 219 OFFCURVE",
"221 239 CURVE",
"160 213 LINE",
"317 223 LINE",
"317 318 LINE",
"58 231 OFFCURVE",
"12 203 OFFCURVE",
"12 133 CURVE SMOOTH",
"12 43 OFFCURVE",
"91 -12 OFFCURVE",
"222 -12 CURVE"
);
}
);
};
layerId = "BFC82823-8905-47CE-90FC-B44BF62F9018";
paths = (
{
closed = 1;
nodes = (
"495 -11 OFFCURVE",
"559 56 OFFCURVE",
"549 147 CURVE",
"479 132 LINE",
"479 408 LINE",
"427 472 OFFCURVE",
"352 505 OFFCURVE",
"262 505 CURVE SMOOTH",
"130 505 OFFCURVE",
"14 437 OFFCURVE",
"14 360 CURVE SMOOTH",
"14 308 OFFCURVE",
"66 282 OFFCURVE",
"167 283 CURVE",
"194 448 LINE",
"69 391 LINE",
"84 392 OFFCURVE",
"99 393 OFFCURVE",
"114 393 CURVE SMOOTH",
"183 393 OFFCURVE",
"245 379 OFFCURVE",
"294 353 CURVE",
"278 100 LINE",
"296 24 OFFCURVE",
"354 -11 OFFCURVE",
"411 -11 CURVE SMOOTH"
);
},
{
closed = 1;
nodes = (
"258 31 OFFCURVE",
"286 74 OFFCURVE",
"310 126 CURVE",
"310 134 LINE",
"293 128 OFFCURVE",
"278 125 OFFCURVE",
"259 125 CURVE SMOOTH",
"228 125 OFFCURVE",
"214 141 OFFCURVE",
"214 186 CURVE SMOOTH",
"214 202 OFFCURVE",
"216 219 OFFCURVE",
"221 239 CURVE",
"160 213 LINE",
"317 223 LINE",
"317 318 LINE",
"58 231 OFFCURVE",
"12 203 OFFCURVE",
"12 133 CURVE SMOOTH",
"12 43 OFFCURVE",
"91 -12 OFFCURVE",
"222 -12 CURVE"
);
}
);
width = 537;
},
{
anchors = (
{
name = bottom;
position = "{240, 0}";
},
{
name = ogonek;
position = "{499, 10}";
},
{
name = top;
position = "{246, 483}";
}
);
associatedMasterId = "0E5388DE-A0E6-4EB4-BC9B-CE5870C9023F";
background = {
paths = (
{
closed = 1;
nodes = (
"140 452 OFFCURVE",
"165 456 OFFCURVE",
"190 456 CURVE SMOOTH",
"249 456 OFFCURVE",
"303 436 OFFCURVE",
"344 398 CURVE",
"336 78 LINE",
"346 25 OFFCURVE",
"379 -4 OFFCURVE",
"413 -4 CURVE SMOOTH",
"437 -4 OFFCURVE",
"462 10 OFFCURVE",
"479 42 CURVE",
"370 40 LINE",
"370 414 LINE",
"328 460 OFFCURVE",
"271 485 OFFCURVE",
"210 485 CURVE SMOOTH",
"129 485 OFFCURVE",
"68 440 OFFCURVE",
"68 380 CURVE SMOOTH",
"68 354 OFFCURVE",
"80 330 OFFCURVE",
"100 319 CURVE",
"114 445 LINE"
);
},
{
closed = 1;
nodes = (
"245 6 OFFCURVE",
"295 31 OFFCURVE",
"348 75 CURVE",
"348 93 LINE",
"286 49 OFFCURVE",
"229 27 OFFCURVE",
"182 27 CURVE SMOOTH",
"120 27 OFFCURVE",
"87 63 OFFCURVE",
"87 123 CURVE SMOOTH",
"87 141 OFFCURVE",
"90 162 OFFCURVE",
"96 184 CURVE",
"358 244 LINE",
"358 271 LINE",
"110 223 OFFCURVE",
"53 193 OFFCURVE",
"53 116 CURVE SMOOTH",
"53 44 OFFCURVE",
"104 -8 OFFCURVE",
"178 -9 CURVE"
);
}
);
};
layerId = "E43E033A-B8F9-46DF-8619-D36993D037AA";
name = "{80,30}";
paths = (
{
closed = 1;
nodes = (
"455 -6 OFFCURVE",
"493 24 OFFCURVE",
"502 74 CURVE",
"405 69 LINE",
"405 412 LINE",
"360 463 OFFCURVE",
"298 492 OFFCURVE",
"228 492 CURVE SMOOTH",
"131 492 OFFCURVE",
"53 439 OFFCURVE",
"53 373 CURVE SMOOTH",
"53 339 OFFCURVE",
"77 316 OFFCURVE",
"122 308 CURVE",
"140 450 LINE",
"95 427 LINE",
"118 432 OFFCURVE",
"143 436 OFFCURVE",
"168 436 CURVE SMOOTH",
"230 436 OFFCURVE",
"287 418 OFFCURVE",
"330 384 CURVE",
"319 85 LINE",
"332 25 OFFCURVE",
"372 -6 OFFCURVE",
"413 -6 CURVE SMOOTH"
);
},
{
closed = 1;
nodes = (
"252 14 OFFCURVE",
"295 47 OFFCURVE",
"337 90 CURVE",
"337 106 LINE",
"289 73 OFFCURVE",
"245 58 OFFCURVE",
"207 58 CURVE SMOOTH",
"154 58 OFFCURVE",
"128 88 OFFCURVE",
"128 143 CURVE SMOOTH",
"128 162 OFFCURVE",
"131 185 OFFCURVE",
"138 205 CURVE",
"111 192 LINE",
"346 237 LINE",
"346 285 LINE",
"95 225 OFFCURVE",
"41 196 OFFCURVE",
"41 121 CURVE SMOOTH",
"41 44 OFFCURVE",
"101 -9 OFFCURVE",
"192 -10 CURVE"
);
}
);
width = 503;
}
);
leftKerningGroup = a;
rightKerningGroup = n;
unicode = 0061;
},
{
color = 10;
glyphname = ae;
layers = (
{
anchors = (
{
name = bottom;
position = "{375, 0}";
},
{
name = top;
position = "{375, 478}";
}
);
background = {
paths = (
{
closed = 1;
nodes = (
"588 -6 OFFCURVE",
"642 16 OFFCURVE",
"698 62 CURVE",
"695 68 LINE",
"641 39 OFFCURVE",
"590 26 OFFCURVE",
"546 26 CURVE SMOOTH",
"440 26 OFFCURVE",
"370 106 OFFCURVE",
"370 247 CURVE SMOOTH",
"370 307 OFFCURVE",
"383 370 OFFCURVE",
"404 419 CURVE",
"447 441 OFFCURVE",
"496 455 OFFCURVE",
"534 455 CURVE SMOOTH",
"616 455 OFFCURVE",
"671 398 OFFCURVE",
"671 313 CURVE",
"666 265 LINE",
"354 260 LINE",
"354 232 LINE",
"517 232 OFFCURVE",
"592 237 OFFCURVE",
"697 254 CURVE",
"701 316 LINE",
"702 414 OFFCURVE",
"637 485 OFFCURVE",
"543 485 CURVE SMOOTH",
"408 485 OFFCURVE",
"338 404 OFFCURVE",
"338 250 CURVE SMOOTH",
"338 89 OFFCURVE",
"410 -6 OFFCURVE",
"531 -6 CURVE SMOOTH"
);
},
{
closed = 1;
nodes = (
"261 10 OFFCURVE",
"320 42 OFFCURVE",
"379 97 CURVE",
"379 117 LINE",
"305 58 OFFCURVE",
"240 27 OFFCURVE",
"183 27 CURVE SMOOTH",
"122 27 OFFCURVE",
"89 62 OFFCURVE",
"89 123 CURVE SMOOTH",
"89 141 OFFCURVE",
"92 162 OFFCURVE",
"98 184 CURVE",
"358 244 LINE",
"358 271 LINE",
"109 222 OFFCURVE",
"55 194 OFFCURVE",
"55 113 CURVE SMOOTH",
"55 38 OFFCURVE",
"104 -8 OFFCURVE",
"187 -9 CURVE"
);
},
{
closed = 1;
nodes = (
"116 445 LINE",
"142 452 OFFCURVE",
"167 456 OFFCURVE",
"192 456 CURVE SMOOTH",
"259 456 OFFCURVE",
"319 429 OFFCURVE",
"367 376 CURVE",
"388 397 LINE",
"335 456 OFFCURVE",
"277 485 OFFCURVE",
"211 485 CURVE SMOOTH",
"130 485 OFFCURVE",
"70 440 OFFCURVE",
"70 380 CURVE SMOOTH",
"70 353 OFFCURVE",
"82 330 OFFCURVE",
"102 319 CURVE"
);
}
);
};
layerId = "0E5388DE-A0E6-4EB4-BC9B-CE5870C9023F";
paths = (
{
closed = 1;
nodes = (
"588 -6 OFFCURVE",
"642 16 OFFCURVE",
"698 62 CURVE",
"695 68 LINE",
"641 39 OFFCURVE",
"590 26 OFFCURVE",
"546 26 CURVE SMOOTH",
"440 26 OFFCURVE",
"370 106 OFFCURVE",
"370 247 CURVE SMOOTH",
"370 307 OFFCURVE",
"383 370 OFFCURVE",
"404 419 CURVE",
"447 441 OFFCURVE",
"496 455 OFFCURVE",
"534 455 CURVE SMOOTH",
"616 455 OFFCURVE",
"671 398 OFFCURVE",
"671 313 CURVE",
"666 265 LINE",
"354 260 LINE",
"354 232 LINE",
"517 232 OFFCURVE",
"592 237 OFFCURVE",
"697 254 CURVE",
"701 316 LINE",
"702 414 OFFCURVE",
"637 485 OFFCURVE",
"543 485 CURVE SMOOTH",
"408 485 OFFCURVE",
"338 404 OFFCURVE",
"338 250 CURVE SMOOTH",
"338 89 OFFCURVE",
"410 -6 OFFCURVE",
"531 -6 CURVE SMOOTH"
);
},
{
closed = 1;
nodes = (
"261 10 OFFCURVE",
"320 42 OFFCURVE",
"379 97 CURVE",
"379 117 LINE",
"305 58 OFFCURVE",
"240 27 OFFCURVE",
"183 27 CURVE SMOOTH",
"122 27 OFFCURVE",
"89 62 OFFCURVE",
"89 123 CURVE SMOOTH",
"89 141 OFFCURVE",
"92 162 OFFCURVE",
"98 184 CURVE",
"358 244 LINE",
"358 271 LINE",
"109 222 OFFCURVE",
"55 194 OFFCURVE",
"55 113 CURVE SMOOTH",
"55 38 OFFCURVE",
"104 -8 OFFCURVE",
"187 -9 CURVE"
);
},
{
closed = 1;
nodes = (
"388 397 LINE",
"342 454 OFFCURVE",
"278 485 OFFCURVE",
"211 485 CURVE SMOOTH",
"130 485 OFFCURVE",
"69 440 OFFCURVE",
"69 380 CURVE SMOOTH",
"69 354 OFFCURVE",
"81 330 OFFCURVE",
"101 319 CURVE",
"116 451 LINE",
"106 442 LINE",
"135 451 OFFCURVE",
"163 456 OFFCURVE",
"191 456 CURVE SMOOTH",
"258 456 OFFCURVE",
"320 428 OFFCURVE",
"367 376 CURVE"
);
}
);
width = 756;
},
{
anchors = (
{
name = bottom;
position = "{386, 0}";
},
{
name = top;
position = "{386, 495}";
}
);
background = {
paths = (
{
closed = 1;
nodes = (
"614 -14 OFFCURVE",
"692 29 OFFCURVE",
"760 121 CURVE",
"746 157 LINE",
"688 140 OFFCURVE",
"639 130 OFFCURVE",
"599 130 CURVE SMOOTH",
"515 130 OFFCURVE",
"471 174 OFFCURVE",
"471 290 CURVE SMOOTH",
"471 316 OFFCURVE",
"473 344 OFFCURVE",
"477 377 CURVE",
"494 380 OFFCURVE",
"506 382 OFFCURVE",
"517 382 CURVE SMOOTH",
"558 382 OFFCURVE",
"574 363 OFFCURVE",
"574 316 CURVE",
"572 276 LINE",
"410 277 LINE",
"409 188 LINE",
"503 196 OFFCURVE",
"605 211 OFFCURVE",
"749 239 CURVE",
"752 302 LINE",
"752 430 OFFCURVE",
"676 505 OFFCURVE",
"549 505 CURVE SMOOTH",
"375 505 OFFCURVE",
"286 424 OFFCURVE",
"286 266 CURVE SMOOTH",
"286 82 OFFCURVE",
"364 -14 OFFCURVE",
"515 -14 CURVE SMOOTH"
);
},
{
closed = 1;
nodes = (
"295 37 OFFCURVE",
"332 84 OFFCURVE",
"363 139 CURVE",
"355 153 LINE",
"324 134 OFFCURVE",
"292 124 OFFCURVE",
"262 124 CURVE SMOOTH",
"228 124 OFFCURVE",
"214 139 OFFCURVE",
"214 184 CURVE SMOOTH",
"214 194 OFFCURVE",
"215 205 OFFCURVE",
"216 217 CURVE",
"316 223 LINE",
"317 318 LINE",
"60 232 OFFCURVE",
"12 202 OFFCURVE",
"12 133 CURVE SMOOTH",
"12 36 OFFCURVE",
"90 -12 OFFCURVE",
"246 -12 CURVE"
);
},
{
closed = 1;
nodes = (
"183 388 LINE",
"233 380 OFFCURVE",
"276 364 OFFCURVE",
"316 341 CURVE",
"479 408 LINE",
"427 472 OFFCURVE",
"352 505 OFFCURVE",
"261 505 CURVE SMOOTH",
"130 505 OFFCURVE",
"14 437 OFFCURVE",
"14 360 CURVE SMOOTH",
"14 308 OFFCURVE",
"66 282 OFFCURVE",
"167 283 CURVE"
);
}
);
};
layerId = "BFC82823-8905-47CE-90FC-B44BF62F9018";
paths = (
{
closed = 1;
nodes = (
"614 -14 OFFCURVE",
"692 29 OFFCURVE",
"760 121 CURVE",
"746 157 LINE",
"688 140 OFFCURVE",
"639 130 OFFCURVE",
"599 130 CURVE SMOOTH",
"515 130 OFFCURVE",
"471 174 OFFCURVE",
"471 290 CURVE SMOOTH",
"471 316 OFFCURVE",
"473 344 OFFCURVE",
"477 377 CURVE",
"494 380 OFFCURVE",
"506 382 OFFCURVE",
"517 382 CURVE SMOOTH",
"558 382 OFFCURVE",
"574 363 OFFCURVE",
"574 316 CURVE",
"572 276 LINE",
"410 277 LINE",
"409 188 LINE",
"503 196 OFFCURVE",
"605 211 OFFCURVE",
"749 239 CURVE",
"752 302 LINE",
"752 430 OFFCURVE",
"676 505 OFFCURVE",
"549 505 CURVE SMOOTH",
"375 505 OFFCURVE",
"286 424 OFFCURVE",
"286 266 CURVE SMOOTH",
"286 82 OFFCURVE",
"364 -14 OFFCURVE",
"515 -14 CURVE SMOOTH"
);
},
{
closed = 1;
nodes = (
"295 37 OFFCURVE",
"332 84 OFFCURVE",
"363 139 CURVE",
"355 153 LINE",
"324 134 OFFCURVE",
"292 124 OFFCURVE",
"262 124 CURVE SMOOTH",
"228 124 OFFCURVE",
"214 139 OFFCURVE",
"214 184 CURVE SMOOTH",
"214 194 OFFCURVE",
"215 205 OFFCURVE",
"216 217 CURVE",
"316 223 LINE",
"317 318 LINE",
"60 232 OFFCURVE",
"12 202 OFFCURVE",
"12 133 CURVE SMOOTH",
"12 36 OFFCURVE",
"90 -12 OFFCURVE",
"246 -12 CURVE"
);
},
{
closed = 1;
nodes = (
"479 408 LINE",
"427 472 OFFCURVE",
"352 505 OFFCURVE",
"262 505 CURVE SMOOTH",
"130 505 OFFCURVE",
"14 437 OFFCURVE",
"14 360 CURVE SMOOTH",
"14 308 OFFCURVE",
"66 282 OFFCURVE",
"167 283 CURVE",
"194 448 LINE",
"69 390 LINE",
"85 392 OFFCURVE",
"102 393 OFFCURVE",
"118 393 CURVE SMOOTH",
"194 393 OFFCURVE",
"262 375 OFFCURVE",
"316 341 CURVE"
);
}
);
width = 770;
}
);
leftKerningGroup = a;
rightKerningGroup = e;
unicode = 00E6;
},
{
color = 10;
glyphname = b;
layers = (
{
anchors = (
{
name = bottom;
position = "{256, 0}";
},
{
name = top;
position = "{256, 478}";
}
);
background = {
paths = (
{
closed = 1;
nodes = (
"139 1 OFFCURVE",
"184 -7 OFFCURVE",
"224 -7 CURVE SMOOTH",
"365 -7 OFFCURVE",
"458 89 OFFCURVE",
"458 246 CURVE SMOOTH",
"458 385 OFFCURVE",
"382 486 OFFCURVE",
"250 486 CURVE",
"200 470 OFFCURVE",
"155 443 OFFCURVE",
"119 414 CURVE",
"119 394 LINE",
"166 434 OFFCURVE",
"213 454 OFFCURVE",
"260 454 CURVE SMOOTH",
"307 454 OFFCURVE",
"355 434 OFFCURVE",
"403 394 CURVE",
"363 435 LINE",
"406 382 OFFCURVE",
"428 320 OFFCURVE",
"428 245 CURVE SMOOTH",
"428 103 OFFCURVE",
"351 20 OFFCURVE",
"226 20 CURVE SMOOTH",
"192 20 OFFCURVE",
"155 26 OFFCURVE",
"115 38 CURVE",
"92 18 LINE"
);
},
{
closed = 1;
nodes = (
"127 18 LINE",
"127 734 LINE",
"101 728 OFFCURVE",
"80 719 OFFCURVE",
"56 705 CURVE",
"101 653 LINE",
"92 18 LINE"
);
}
);
};
layerId = "0E5388DE-A0E6-4EB4-BC9B-CE5870C9023F";
paths = (
{
closed = 1;
nodes = (
"139 1 OFFCURVE",
"184 -7 OFFCURVE",
"224 -7 CURVE SMOOTH",
"365 -7 OFFCURVE",
"458 89 OFFCURVE",
"458 246 CURVE SMOOTH",
"458 382 OFFCURVE",
"381 486 OFFCURVE",
"255 486 CURVE SMOOTH",
"253 486 OFFCURVE",
"250 486 OFFCURVE",
"248 486 CURVE",
"203 471 OFFCURVE",
"160 448 OFFCURVE",
"119 414 CURVE",
"119 394 LINE",
"166 434 OFFCURVE",
"213 454 OFFCURVE",
"260 454 CURVE SMOOTH",
"307 454 OFFCURVE",
"355 434 OFFCURVE",
"403 394 CURVE",
"363 435 LINE",
"406 382 OFFCURVE",
"428 320 OFFCURVE",
"428 245 CURVE SMOOTH",
"428 103 OFFCURVE",
"351 20 OFFCURVE",
"226 20 CURVE SMOOTH",
"192 20 OFFCURVE",
"155 26 OFFCURVE",
"115 38 CURVE",
"92 18 LINE"
);
},
{
closed = 1;
nodes = (
"127 18 LINE",
"127 734 LINE",
"101 728 OFFCURVE",
"80 719 OFFCURVE",
"56 705 CURVE",
"101 653 LINE",
"92 18 LINE"
);
}
);
width = 507;
},
{
anchors = (
{
name = bottom;
position = "{285, 0}";
},
{
name = top;
position = "{285, 495}";
}
);
layerId = "BFC82823-8905-47CE-90FC-B44BF62F9018";
paths = (
{
closed = 1;
nodes = (
"128 4 OFFCURVE",
"209 -12 OFFCURVE",
"279 -12 CURVE SMOOTH",
"449 -12 OFFCURVE",
"552 84 OFFCURVE",
"552 262 CURVE SMOOTH",
"552 412 OFFCURVE",
"476 506 OFFCURVE",
"360 506 CURVE SMOOTH",
"349 506 OFFCURVE",
"338 505 OFFCURVE",
"326 503 CURVE",
"291 454 OFFCURVE",
"264 407 OFFCURVE",
"239 352 CURVE",
"241 323 LINE",
"257 327 OFFCURVE",
"272 329 OFFCURVE",
"288 329 CURVE SMOOTH",
"326 329 OFFCURVE",
"362 316 OFFCURVE",
"396 289 CURVE",
"330 345 LINE",
"340 308 OFFCURVE",
"344 262 OFFCURVE",
"344 223 CURVE SMOOTH",
"344 158 OFFCURVE",
"333 126 OFFCURVE",
"285 126 CURVE SMOOTH",
"248 126 OFFCURVE",
"191 144 OFFCURVE",
"103 180 CURVE",
"37 38 LINE"
);
},
{
closed = 1;
nodes = (
"250 95 LINE",
"250 752 LINE",
"158 749 OFFCURVE",
"71 724 OFFCURVE",
"-12 677 CURVE",
"53 560 LINE",
"37 38 LINE"
);
}
);
width = 562;
}
);
leftKerningGroup = h;
rightKerningGroup = o;
unicode = 0062;
},
{
color = 10;
glyphname = c;
layers = (
{
anchors = (
{
name = bottom;
position = "{226, 0}";
},
{
name = top;
position = "{250, 478}";
}
);
layerId = "0E5388DE-A0E6-4EB4-BC9B-CE5870C9023F";
paths = (
{
closed = 1;
nodes = (
"288 -6 OFFCURVE",
"337 15 OFFCURVE",
"385 59 CURVE",
"382 66 LINE",
"338 38 OFFCURVE",
"295 25 OFFCURVE",
"255 25 CURVE SMOOTH",
"156 25 OFFCURVE",
"81 106 OFFCURVE",
"81 238 CURVE SMOOTH",
"81 307 OFFCURVE",
"102 376 OFFCURVE",
"138 427 CURVE",
"124 414 LINE",
"165 441 OFFCURVE",
"212 455 OFFCURVE",
"259 455 CURVE SMOOTH",
"297 455 OFFCURVE",
"334 446 OFFCURVE",
"366 427 CURVE",
"377 457 LINE",
"339 475 OFFCURVE",
"300 485 OFFCURVE",
"260 485 CURVE SMOOTH",
"141 485 OFFCURVE",
"49 388 OFFCURVE",
"49 236 CURVE SMOOTH",
"49 96 OFFCURVE",
"129 -6 OFFCURVE",
"238 -6 CURVE SMOOTH"
);
},
{
closed = 1;
nodes = (
"373 334 LINE",
"377 457 LINE",
"337 457 LINE",
"365 334 LINE"
);
}
);
width = 431;
},
{
anchors = (
{
name = bottom;
position = "{229, 0}";
},
{
name = top;
position = "{245, 495}";
}
);
layerId = "BFC82823-8905-47CE-90FC-B44BF62F9018";
paths = (
{
closed = 1;
nodes = (
"326 -14 OFFCURVE",
"398 34 OFFCURVE",
"445 126 CURVE",
"430 162 LINE",
"389 150 OFFCURVE",
"355 143 OFFCURVE",
"327 143 CURVE SMOOTH",
"253 143 OFFCURVE",
"220 187 OFFCURVE",
"220 279 CURVE SMOOTH",
"220 324 OFFCURVE",
"226 377 OFFCURVE",
"241 441 CURVE",
"151 367 LINE",
"161 367 OFFCURVE",
"171 368 OFFCURVE",
"182 368 CURVE SMOOTH",
"260 368 OFFCURVE",
"333 357 OFFCURVE",
"404 335 CURVE",
"425 481 LINE",
"377 499 OFFCURVE",
"322 508 OFFCURVE",
"270 508 CURVE SMOOTH",
"105 508 OFFCURVE",
"9 410 OFFCURVE",
"9 241 CURVE SMOOTH",
"9 84 OFFCURVE",
"94 -14 OFFCURVE",
"231 -14 CURVE SMOOTH"
);
},
{
closed = 1;
nodes = (
"425 289 LINE",
"425 481 LINE",
"257 481 LINE",
"341 289 LINE"
);
}
);
width = 456;
}
);
leftKerningGroup = o;
rightKerningGroup = c;
unicode = 0063;
},
{
color = 10;
glyphname = d;
layers = (
{
anchors = (
{
name = bottom;
position = "{264, 0}";
},
{
name = center;
position = "{346, 568}";
},
{
name = top;
position = "{264, 478}";
},
{
name = topright;
position = "{531, 725}";
}
);
layerId = "0E5388DE-A0E6-4EB4-BC9B-CE5870C9023F";
paths = (
{
closed = 1;
nodes = (
"253 -8 OFFCURVE",
"254 -8 OFFCURVE",
"255 -8 CURVE",
"305 8 OFFCURVE",
"349 35 OFFCURVE",
"386 64 CURVE",
"386 83 LINE",
"337 43 OFFCURVE",
"287 24 OFFCURVE",
"242 24 CURVE SMOOTH",
"151 24 OFFCURVE",
"80 101 OFFCURVE",
"80 233 CURVE SMOOTH",
"80 305 OFFCURVE",
"99 373 OFFCURVE",
"133 422 CURVE",
"120 409 LINE",
"171 441 OFFCURVE",
"221 457 OFFCURVE",
"279 457 CURVE SMOOTH",
"313 457 OFFCURVE",
"351 451 OFFCURVE",
"393 440 CURVE",
"402 467 LINE",
"361 479 OFFCURVE",
"322 485 OFFCURVE",
"286 485 CURVE SMOOTH",
"142 485 OFFCURVE",
"49 390 OFFCURVE",
"49 232 CURVE SMOOTH",
"49 87 OFFCURVE",
"131 -8 OFFCURVE",
"251 -8 CURVE SMOOTH"
);
},
{
closed = 1;
nodes = (
"479 -4 OFFCURVE",
"503 11 OFFCURVE",
"520 42 CURVE",
"413 40 LINE",
"413 734 LINE",
"384 727 OFFCURVE",
"364 718 OFFCURVE",
"343 705 CURVE",
"387 653 LINE",
"379 74 LINE",
"389 24 OFFCURVE",
"422 -4 OFFCURVE",
"455 -4 CURVE SMOOTH"
);
},
{
closed = 1;
nodes = (
"398 752 LINE",
"397 752 LINE",
"398 751 LINE"
);
}
);
width = 531;
},
{
anchors = (
{
name = bottom;
position = "{289, 0}";
},
{
name = center;
position = "{382, 578}";
},
{
name = top;
position = "{289, 495}";
},
{
name = topright;
position = "{646, 737}";
}
);
background = {
paths = (
{
closed = 1;
nodes = (
"269 37 OFFCURVE",
"298 89 OFFCURVE",
"319 143 CURVE",
"319 173 LINE",
"298 168 OFFCURVE",
"282 165 OFFCURVE",
"269 165 CURVE SMOOTH",
"226 165 OFFCURVE",
"217 190 OFFCURVE",
"217 256 CURVE SMOOTH",
"217 313 OFFCURVE",
"224 371 OFFCURVE",
"243 417 CURVE",
"159 369 LINE",
"178 372 OFFCURVE",
"199 374 OFFCURVE",
"218 374 CURVE SMOOTH",
"294 374 OFFCURVE",
"369 349 OFFCURVE",
"443 299 CURVE",
"466 477 LINE",
"400 499 OFFCURVE",
"339 509 OFFCURVE",
"284 509 CURVE SMOOTH",
"115 509 OFFCURVE",
"10 409 OFFCURVE",
"10 234 CURVE SMOOTH",
"10 83 OFFCURVE",
"85 -10 OFFCURVE",
"201 -10 CURVE SMOOTH",
"212 -10 OFFCURVE",
"223 -10 OFFCURVE",
"234 -8 CURVE"
);
},
{
closed = 1;
nodes = (
"518 752 LINE",
"420 749 OFFCURVE",
"334 721 OFFCURVE",
"255 677 CURVE",
"320 560 LINE",
"308 148 LINE",
"314 42 OFFCURVE",
"386 -11 OFFCURVE",
"456 -11 CURVE SMOOTH",
"525 -11 OFFCURVE",
"591 41 OFFCURVE",
"586 145 CURVE",
"518 130 LINE"
);
},
{
closed = 1;
nodes = (
"393 751 LINE",
"393 752 LINE",
"392 752 LINE"
);
}
);
};
layerId = "BFC82823-8905-47CE-90FC-B44BF62F9018";
paths = (
{
closed = 1;
nodes = (
"212 -10 OFFCURVE",
"223 -10 OFFCURVE",
"234 -8 CURVE",
"269 37 OFFCURVE",
"298 90 OFFCURVE",
"319 143 CURVE",
"319 173 LINE",
"298 168 OFFCURVE",
"282 165 OFFCURVE",
"269 165 CURVE SMOOTH",
"226 165 OFFCURVE",
"217 190 OFFCURVE",
"217 256 CURVE SMOOTH",
"217 313 OFFCURVE",
"224 371 OFFCURVE",
"243 417 CURVE",
"159 369 LINE",
"178 372 OFFCURVE",
"199 374 OFFCURVE",
"218 374 CURVE SMOOTH",
"294 374 OFFCURVE",
"369 349 OFFCURVE",
"442 299 CURVE",
"465 477 LINE",
"399 499 OFFCURVE",
"338 509 OFFCURVE",
"283 509 CURVE SMOOTH",
"115 509 OFFCURVE",
"10 409 OFFCURVE",
"10 234 CURVE SMOOTH",
"10 83 OFFCURVE",
"85 -10 OFFCURVE",
"201 -10 CURVE SMOOTH"
);
},
{
closed = 1;
nodes = (
"525 -11 OFFCURVE",
"591 41 OFFCURVE",
"586 145 CURVE",
"518 130 LINE",
"518 752 LINE",
"420 749 OFFCURVE",
"334 721 OFFCURVE",
"255 677 CURVE",
"320 560 LINE",
"308 148 LINE",
"314 42 OFFCURVE",
"386 -11 OFFCURVE",
"456 -11 CURVE SMOOTH"
);
},
{
closed = 1;
nodes = (
"393 752 LINE",
"392 752 LINE",
"393 751 LINE"
);
}
);
width = 581;
}
);
leftKerningGroup = o;
rightKerningGroup = d;
unicode = 0064;
},
{
color = 10;
glyphname = eth;
layers = (
{
layerId = "0E5388DE-A0E6-4EB4-BC9B-CE5870C9023F";
paths = (
{
closed = 1;
nodes = (
"368 -7 OFFCURVE",
"450 98 OFFCURVE",
"450 253 CURVE SMOOTH",
"450 429 OFFCURVE",
"340 593 OFFCURVE",
"130 732 CURVE",
"116 717 LINE",
"320 573 OFFCURVE",
"419 422 OFFCURVE",
"419 255 CURVE SMOOTH",
"419 115 OFFCURVE",
"351 21 OFFCURVE",
"249 21 CURVE SMOOTH",
"150 21 OFFCURVE",
"80 110 OFFCURVE",
"80 235 CURVE SMOOTH",
"80 300 OFFCURVE",
"98 364 OFFCURVE",
"134 422 CURVE",
"169 443 OFFCURVE",
"208 453 OFFCURVE",
"246 453 CURVE SMOOTH",
"310 453 OFFCURVE",
"373 425 OFFCURVE",
"419 371 CURVE",
"416 395 LINE",
"366 454 OFFCURVE",
"306 480 OFFCURVE",
"250 480 CURVE SMOOTH",
"144 480 OFFCURVE",
"49 385 OFFCURVE",
"49 230 CURVE SMOOTH",
"49 89 OFFCURVE",
"129 -7 OFFCURVE",
"246 -7 CURVE SMOOTH"
);
},
{
closed = 1;
nodes = (
"401 633 LINE",
"394 657 LINE",
"129 573 LINE",
"137 550 LINE"
);
}
);
width = 509;
},
{
layerId = "BFC82823-8905-47CE-90FC-B44BF62F9018";
paths = (
{
closed = 1;
nodes = (
"427 -14 OFFCURVE",
"524 86 OFFCURVE",
"524 259 CURVE SMOOTH",
"524 461 OFFCURVE",
"389 641 OFFCURVE",
"156 752 CURVE",
"76 706 LINE",
"246 554 OFFCURVE",
"310 423 OFFCURVE",
"310 222 CURVE SMOOTH",
"310 138 OFFCURVE",
"298 107 OFFCURVE",
"268 107 CURVE SMOOTH",
"234 107 OFFCURVE",
"221 142 OFFCURVE",
"221 235 CURVE SMOOTH",
"221 278 OFFCURVE",
"223 316 OFFCURVE",
"231 364 CURVE",
"238 364 OFFCURVE",
"245 365 OFFCURVE",
"251 365 CURVE SMOOTH",
"290 365 OFFCURVE",
"326 358 OFFCURVE",
"362 344 CURVE",
"386 477 LINE",
"338 490 OFFCURVE",
"293 496 OFFCURVE",
"253 496 CURVE SMOOTH",
"100 496 OFFCURVE",
"8 403 OFFCURVE",
"8 235 CURVE SMOOTH",
"8 73 OFFCURVE",
"94 -14 OFFCURVE",
"254 -14 CURVE SMOOTH"
);
},
{
closed = 1;
nodes = (
"469 644 LINE",
"436 733 LINE",
"42 594 LINE",
"75 505 LINE"
);
}
);
width = 538;
}
);
leftKerningGroup = o;
unicode = 00F0;
},
{
color = 10;
glyphname = e;
layers = (
{
anchors = (
{
name = bottom;
position = "{239, 0}";
},
{
name = ogonek;
position = "{348, 15}";
},
{
name = top;
position = "{249, 478}";
}
);
layerId = "0E5388DE-A0E6-4EB4-BC9B-CE5870C9023F";
paths = (
{
closed = 1;
nodes = (
"298 -6 OFFCURVE",
"356 17 OFFCURVE",
"410 62 CURVE",
"407 69 LINE",
"353 40 OFFCURVE",
"302 26 OFFCURVE",
"257 26 CURVE SMOOTH",
"152 26 OFFCURVE",
"81 103 OFFCURVE",
"81 236 CURVE SMOOTH",
"81 300 OFFCURVE",
"100 365 OFFCURVE",
"135 419 CURVE",
"170 442 OFFCURVE",
"211 455 OFFCURVE",
"248 455 CURVE SMOOTH",
"326 455 OFFCURVE",
"382 396 OFFCURVE",
"382 313 CURVE",
"380 265 LINE",
"65 260 LINE",
"65 232 LINE",
"222 232 OFFCURVE",
"311 237 OFFCURVE",
"410 252 CURVE",
"413 316 LINE",
"414 414 OFFCURVE",
"346 485 OFFCURVE",
"253 485 CURVE",
"133 485 OFFCURVE",
"49 375 OFFCURVE",
"49 231 CURVE SMOOTH",
"49 91 OFFCURVE",
"128 -6 OFFCURVE",
"242 -6 CURVE SMOOTH"
);
}
);
width = 468;
},
{
anchors = (
{
name = bottom;
position = "{247, 0}";
},
{
name = ogonek;
position = "{435, 10}";
},
{
name = top;
position = "{257, 494}";
}
);
layerId = "BFC82823-8905-47CE-90FC-B44BF62F9018";
paths = (
{
closed = 1;
nodes = (
"342 -14 OFFCURVE",
"428 34 OFFCURVE",
"488 124 CURVE",
"474 162 LINE",
"417 146 OFFCURVE",
"370 138 OFFCURVE",
"332 138 CURVE SMOOTH",
"242 138 OFFCURVE",
"201 183 OFFCURVE",
"201 277 CURVE SMOOTH",
"201 308 OFFCURVE",
"204 341 OFFCURVE",
"211 377 CURVE",
"223 378 OFFCURVE",
"233 379 OFFCURVE",
"242 379 CURVE SMOOTH",
"280 379 OFFCURVE",
"294 362 OFFCURVE",
"294 317 CURVE",
"292 284 LINE",
"138 286 LINE",
"136 185 LINE",
"228 194 OFFCURVE",
"323 208 OFFCURVE",
"478 238 CURVE",
"480 302 LINE",
"480 433 OFFCURVE",
"400 507 OFFCURVE",
"261 507 CURVE SMOOTH",
"103 507 OFFCURVE",
"8 409 OFFCURVE",
"8 243 CURVE SMOOTH",
"8 84 OFFCURVE",
"99 -14 OFFCURVE",
"243 -14 CURVE SMOOTH"
);
}
);
width = 498;
}
);
leftKerningGroup = o;
rightKerningGroup = e;
unicode = 0065;
},
{
glyphname = schwa;
layers = (
{
anchors = (
{
name = bottom;
position = "{219, 0}";
},
{
name = ogonek;
position = "{120, 463}";
},
{
name = top;
position = "{229, 478}";
}
);
layerId = "0E5388DE-A0E6-4EB4-BC9B-CE5870C9023F";
paths = (
{
closed = 1;
nodes = (
"170 484 OFFCURVE",
"112 461 OFFCURVE",
"58 416 CURVE",
"61 409 LINE",
"115 438 OFFCURVE",
"166 452 OFFCURVE",
"211 452 CURVE SMOOTH",
"316 452 OFFCURVE",
"387 375 OFFCURVE",
"387 242 CURVE SMOOTH",
"387 178 OFFCURVE",
"368 113 OFFCURVE",
"333 59 CURVE",
"298 36 OFFCURVE",
"257 23 OFFCURVE",
"220 23 CURVE SMOOTH",
"142 23 OFFCURVE",
"86 82 OFFCURVE",
"86 165 CURVE",
"88 213 LINE",
"403 218 LINE",
"403 246 LINE",
"246 246 OFFCURVE",
"157 241 OFFCURVE",
"58 226 CURVE",
"55 162 LINE",
"54 64 OFFCURVE",
"122 -7 OFFCURVE",
"215 -7 CURVE",
"335 -7 OFFCURVE",
"419 103 OFFCURVE",
"419 247 CURVE SMOOTH",
"419 387 OFFCURVE",
"340 484 OFFCURVE",
"226 484 CURVE SMOOTH"
);
}
);
width = 468;
},
{
anchors = (
{
name = bottom;
position = "{241, 1}";
},
{
name = ogonek;
position = "{62, 485}";
},
{
name = top;
position = "{250, 495}";
}
);
layerId = "BFC82823-8905-47CE-90FC-B44BF62F9018";
paths = (
{
closed = 1;
nodes = (
"155 509 OFFCURVE",
"70 461 OFFCURVE",
"10 371 CURVE",
"24 333 LINE",
"81 349 OFFCURVE",
"128 357 OFFCURVE",
"166 357 CURVE SMOOTH",
"256 357 OFFCURVE",
"296 312 OFFCURVE",
"296 218 CURVE SMOOTH",
"296 187 OFFCURVE",
"293 153 OFFCURVE",
"287 118 CURVE",
"274 117 OFFCURVE",
"265 116 OFFCURVE",
"256 116 CURVE SMOOTH",
"218 116 OFFCURVE",
"203 133 OFFCURVE",
"203 177 CURVE",
"206 211 LINE",
"360 209 LINE",
"362 310 LINE",
"269 301 OFFCURVE",
"175 287 OFFCURVE",
"20 257 CURVE",
"18 193 LINE",
"18 61 OFFCURVE",
"98 -12 OFFCURVE",
"237 -12 CURVE SMOOTH",
"395 -12 OFFCURVE",
"490 86 OFFCURVE",
"490 252 CURVE SMOOTH",
"490 410 OFFCURVE",
"399 509 OFFCURVE",
"255 509 CURVE SMOOTH"
);
}
);
width = 498;
}
);
leftKerningGroup = o;
rightKerningGroup = o;
unicode = 0259;
},
{
color = 10;
glyphname = f;
layers = (
{
anchors = (
{
name = bottom;
position = "{126, 0}";
},
{
name = top;
position = "{126, 496}";
}
);
layerId = "0E5388DE-A0E6-4EB4-BC9B-CE5870C9023F";
paths = (
{
closed = 1;
nodes = (
"298 452 LINE",
"301 478 LINE",
"152 478 LINE",
"152 584 OFFCURVE",
"164 664 OFFCURVE",
"185 692 CURVE",
"212 697 OFFCURVE",
"239 699 OFFCURVE",
"266 699 CURVE SMOOTH",
"283 699 OFFCURVE",
"301 698 OFFCURVE",
"319 696 CURVE",
"319 732 LINE",
"305 734 OFFCURVE",
"291 735 OFFCURVE",
"279 735 CURVE SMOOTH",
"166 735 OFFCURVE",
"122 661 OFFCURVE",
"122 478 CURVE",
"89 477 OFFCURVE",
"63 471 OFFCURVE",
"36 460 CURVE",
"36 452 LINE"
);
},
{
closed = 1;
nodes = (
"123 463 LINE",
"116 27 LINE",
"84 23 OFFCURVE",
"62 16 OFFCURVE",
"44 8 CURVE",
"44 0 LINE",
"251 0 LINE",
"251 7 LINE",
"151 26 LINE",
"151 463 LINE"
);
}
);
width = 306;
},
{
anchors = (
{
name = bottom;
position = "{278, 0}";
},
{
name = top;
position = "{278, 495}";
}
);
layerId = "BFC82823-8905-47CE-90FC-B44BF62F9018";
rightMetricsKey = "=-30";
paths = (
{
closed = 1;
nodes = (
"384 384 LINE",
"393 490 LINE",
"271 490 LINE",
"264 519 OFFCURVE",
"258 550 OFFCURVE",
"254 580 CURVE",
"266 580 OFFCURVE",
"278 581 OFFCURVE",
"290 581 CURVE SMOOTH",
"327 581 OFFCURVE",
"363 578 OFFCURVE",
"400 573 CURVE",
"400 748 LINE",
"395 748 OFFCURVE",
"390 748 OFFCURVE",
"386 748 CURVE SMOOTH",
"247 748 OFFCURVE",
"100 626 OFFCURVE",
"78 490 CURVE",
"50 476 OFFCURVE",
"22 452 OFFCURVE",
"1 420 CURVE",
"1 384 LINE"
);
},
{
closed = 1;
nodes = (
"76 444 LINE",
"67 100 LINE",
"46 89 OFFCURVE",
"28 78 OFFCURVE",
"13 66 CURVE",
"13 0 LINE",
"359 0 LINE",
"359 73 LINE",
"279 95 LINE",
"279 444 LINE"
);
}
);
width = 370;
}
);
leftKerningGroup = f;
rightKerningGroup = f;
unicode = 0066;
},
{
color = 10;
glyphname = g;
layers = (
{
anchors = (
{
name = bottom;
position = "{213, -195}";
},
{
name = top;
position = "{253, 485}";
}
);
layerId = "0E5388DE-A0E6-4EB4-BC9B-CE5870C9023F";
leftMetricsKey = "=33.0";
rightMetricsKey = "=2.0";
paths = (
{
closed = 1;
nodes = (
"367 -206 OFFCURVE",
"463 -139 OFFCURVE",
"463 -39 CURVE SMOOTH",
"463 26 OFFCURVE",
"418 75 OFFCURVE",
"359 75 CURVE SMOOTH",
"141 75 LINE",
"143 196 LINE",
"120 172 OFFCURVE",
"108 145 OFFCURVE",
"108 119 CURVE SMOOTH",
"108 94 OFFCURVE",
"120 66 OFFCURVE",
"143 42 CURVE",
"393 42 LINE",
"419 15 OFFCURVE",
"432 -20 OFFCURVE",
"432 -47 CURVE SMOOTH",
"432 -125 OFFCURVE",
"352 -178 OFFCURVE",
"237 -178 CURVE SMOOTH",
"137 -178 OFFCURVE",
"68 -135 OFFCURVE",
"68 -70 CURVE SMOOTH",
"68 -36 OFFCURVE",
"91 -1 OFFCURVE",
"166 54 CURVE",
"150 54 LINE",
"97 31 OFFCURVE",
"56 -6 OFFCURVE",
"33 -57 CURVE",
"32 -151 OFFCURVE",
"109 -206 OFFCURVE",
"231 -206 CURVE SMOOTH"
);
},
{
closed = 1;
nodes = (
"353 161 OFFCURVE",
"435 229 OFFCURVE",
"435 331 CURVE SMOOTH",
"435 424 OFFCURVE",
"360 485 OFFCURVE",
"252 485 CURVE SMOOTH",
"137 485 OFFCURVE",
"59 416 OFFCURVE",
"59 314 CURVE SMOOTH",
"59 220 OFFCURVE",
"129 161 OFFCURVE",
"237 161 CURVE SMOOTH"
);
},
{
closed = 1;
nodes = (
"147 189 OFFCURVE",
"88 237 OFFCURVE",
"88 313 CURVE SMOOTH",
"88 345 OFFCURVE",
"101 387 OFFCURVE",
"130 436 CURVE",
"168 449 OFFCURVE",
"211 456 OFFCURVE",
"248 456 CURVE SMOOTH",
"342 456 OFFCURVE",
"405 407 OFFCURVE",
"405 326 CURVE SMOOTH",
"405 243 OFFCURVE",
"341 189 OFFCURVE",
"238 189 CURVE SMOOTH"
);
},
{
closed = 1;
nodes = (
"380 432 LINE",
"399 525 LINE",
"496 525 LINE",
"501 553 LINE",
"481 557 OFFCURVE",
"465 559 OFFCURVE",
"450 559 CURVE SMOOTH",
"395 559 OFFCURVE",
"367 535 OFFCURVE",
"367 487 CURVE SMOOTH",
"367 470 OFFCURVE",
"371 451 OFFCURVE",
"376 432 CURVE"
);
}
);
width = 503;
},
{
anchors = (
{
name = bottom;
position = "{221, -193}";
},
{
name = top;
position = "{256, 498}";
}
);
associatedMasterId = "0E5388DE-A0E6-4EB4-BC9B-CE5870C9023F";
background = {
paths = (
{
closed = 1;
nodes = (
"376 -206 OFFCURVE",
"465 -139 OFFCURVE",
"465 -40 CURVE SMOOTH",
"465 25 OFFCURVE",
"423 75 OFFCURVE",
"360 75 CURVE SMOOTH",
"141 75 LINE",
"141 196 LINE",
"95 146 OFFCURVE",
"95 89 OFFCURVE",
"143 42 CURVE",
"392 42 LINE",
"419 13 OFFCURVE",
"432 -18 OFFCURVE",
"432 -49 CURVE SMOOTH",
"432 -125 OFFCURVE",
"358 -176 OFFCURVE",
"243 -176 CURVE SMOOTH",
"135 -176 OFFCURVE",
"73 -131 OFFCURVE",
"73 -70 CURVE SMOOTH",
"73 -30 OFFCURVE",
"95 0 OFFCURVE",
"166 54 CURVE",
"150 54 LINE",
"98 31 OFFCURVE",
"59 -6 OFFCURVE",
"36 -57 CURVE",
"37 -153 OFFCURVE",
"114 -206 OFFCURVE",
"238 -206 CURVE SMOOTH"
);
},
{
closed = 1;
nodes = (
"352 161 OFFCURVE",
"430 227 OFFCURVE",
"430 328 CURVE SMOOTH",
"430 424 OFFCURVE",
"358 485 OFFCURVE",
"246 485 CURVE SMOOTH",
"130 485 OFFCURVE",
"55 419 OFFCURVE",
"55 317 CURVE SMOOTH",
"55 220 OFFCURVE",
"124 161 OFFCURVE",
"235 161 CURVE SMOOTH"
);
},
{
closed = 1;
nodes = (
"145 191 OFFCURVE",
"87 237 OFFCURVE",
"87 315 CURVE SMOOTH",
"87 351 OFFCURVE",
"100 390 OFFCURVE",
"125 436 CURVE",
"166 450 OFFCURVE",
"207 456 OFFCURVE",
"241 456 CURVE SMOOTH",
"338 456 OFFCURVE",
"398 407 OFFCURVE",
"398 324 CURVE SMOOTH",
"398 240 OFFCURVE",
"337 191 OFFCURVE",
"239 191 CURVE SMOOTH"
);
},
{
closed = 1;
nodes = (
"374 438 LINE",
"392 531 LINE",
"488 531 LINE",
"492 561 LINE",
"382 583 OFFCURVE",
"337 540 OFFCURVE",
"370 438 CURVE"
);
}
);
};
layerId = "F04EF428-2592-49AE-830F-037C1E5262A3";
leftMetricsKey = "=21.0";
rightMetricsKey = "=-5.0";
name = "{80,30}";
paths = (
{
closed = 1;
nodes = (
"390 -205 OFFCURVE",
"498 -133 OFFCURVE",
"498 -27 CURVE SMOOTH",
"498 44 OFFCURVE",
"446 98 OFFCURVE",
"382 98 CURVE SMOOTH",
"151 98 LINE",
"153 199 LINE",
"114 179 OFFCURVE",
"89 146 OFFCURVE",
"89 111 CURVE SMOOTH",
"89 84 OFFCURVE",
"106 50 OFFCURVE",
"141 27 CURVE",
"389 27 LINE",
"407 7 OFFCURVE",
"417 -20 OFFCURVE",
"417 -41 CURVE SMOOTH",
"417 -104 OFFCURVE",
"350 -145 OFFCURVE",
"250 -145 CURVE SMOOTH",
"158 -145 OFFCURVE",
"102 -111 OFFCURVE",
"102 -56 CURVE SMOOTH",
"102 -30 OFFCURVE",
"118 -1 OFFCURVE",
"170 41 CURVE",
"154 41 LINE",
"97 22 OFFCURVE",
"52 -12 OFFCURVE",
"21 -57 CURVE",
"22 -150 OFFCURVE",
"104 -205 OFFCURVE",
"236 -205 CURVE SMOOTH"
);
},
{
closed = 1;
nodes = (
"379 167 OFFCURVE",
"461 232 OFFCURVE",
"461 337 CURVE SMOOTH",
"461 434 OFFCURVE",
"387 492 OFFCURVE",
"261 492 CURVE SMOOTH",
"127 492 OFFCURVE",
"48 427 OFFCURVE",
"48 322 CURVE SMOOTH",
"48 224 OFFCURVE",
"119 167 OFFCURVE",
"246 167 CURVE SMOOTH"
);
},
{
closed = 1;
nodes = (
"175 220 OFFCURVE",
"129 260 OFFCURVE",
"129 323 CURVE SMOOTH",
"129 349 OFFCURVE",
"139 385 OFFCURVE",
"159 423 CURVE",
"189 432 OFFCURVE",
"225 437 OFFCURVE",
"254 437 CURVE SMOOTH",
"332 437 OFFCURVE",
"381 399 OFFCURVE",
"381 333 CURVE SMOOTH",
"381 264 OFFCURVE",
"331 220 OFFCURVE",
"250 220 CURVE SMOOTH"
);
},
{
closed = 1;
nodes = (
"404 439 LINE",
"418 519 LINE",
"519 519 LINE",
"527 574 LINE",
"501 582 OFFCURVE",
"481 585 OFFCURVE",
"463 585 CURVE SMOOTH",
"406 585 OFFCURVE",
"372 557 OFFCURVE",
"372 508 CURVE SMOOTH",
"372 490 OFFCURVE",
"380 463 OFFCURVE",
"395 439 CURVE"
);
}
);
width = 522;
},
{
anchors = (
{
name = bottom;
position = "{234, -187}";
},
{
name = top;
position = "{257, 528}";
}
);
layerId = "BFC82823-8905-47CE-90FC-B44BF62F9018";
leftMetricsKey = "=-11.0";
rightMetricsKey = "=-22.0";
paths = (
{
closed = 1;
nodes = (
"436 -202 OFFCURVE",
"569 -120 OFFCURVE",
"569 1 CURVE SMOOTH",
"569 84 OFFCURVE",
"503 148 OFFCURVE",
"426 148 CURVE SMOOTH",
"170 148 LINE",
"170 205 LINE",
"87 191 OFFCURVE",
"43 141 OFFCURVE",
"43 95 CURVE SMOOTH",
"43 58 OFFCURVE",
"71 17 OFFCURVE",
"132 -5 CURVE",
"374 -5 LINE",
"376 -11 OFFCURVE",
"377 -20 OFFCURVE",
"377 -28 CURVE SMOOTH",
"377 -59 OFFCURVE",
"344 -73 OFFCURVE",
"274 -73 CURVE SMOOTH",
"200 -73 OFFCURVE",
"171 -59 OFFCURVE",
"171 -25 CURVE SMOOTH",
"171 -14 OFFCURVE",
"172 -1 OFFCURVE",
"173 11 CURVE",
"158 11 LINE",
"94 2 OFFCURVE",
"38 -21 OFFCURVE",
"-11 -58 CURVE",
"-3 -149 OFFCURVE",
"83 -202 OFFCURVE",
"243 -202 CURVE SMOOTH"
);
},
{
closed = 1;
nodes = (
"434 178 OFFCURVE",
"515 238 OFFCURVE",
"515 350 CURVE SMOOTH",
"515 457 OFFCURVE",
"443 508 OFFCURVE",
"277 508 CURVE SMOOTH",
"100 508 OFFCURVE",
"21 452 OFFCURVE",
"21 338 CURVE SMOOTH",
"21 231 OFFCURVE",
"92 178 OFFCURVE",
"261 178 CURVE SMOOTH"
);
},
{
closed = 1;
nodes = (
"231 290 OFFCURVE",
"213 307 OFFCURVE",
"213 346 CURVE SMOOTH",
"213 355 OFFCURVE",
"214 375 OFFCURVE",
"218 392 CURVE",
"230 394 OFFCURVE",
"252 396 OFFCURVE",
"264 396 CURVE SMOOTH",
"306 396 OFFCURVE",
"323 382 OFFCURVE",
"323 346 CURVE SMOOTH",
"323 310 OFFCURVE",
"307 290 OFFCURVE",
"271 290 CURVE SMOOTH"
);
},
{
closed = 1;
nodes = (
"452 455 LINE",
"456 507 LINE",
"564 507 LINE",
"579 621 LINE",
"544 636 OFFCURVE",
"513 641 OFFCURVE",
"486 641 CURVE SMOOTH",
"423 641 OFFCURVE",
"379 605 OFFCURVE",
"379 556 CURVE SMOOTH",
"379 526 OFFCURVE",
"395 489 OFFCURVE",
"434 455 CURVE"
);
}
);
width = 557;
}
);
leftKerningGroup = g;
rightKerningGroup = g;
unicode = 0067;
},
{
color = 10;
glyphname = h;
layers = (
{
anchors = (
{
name = bottom;
position = "{273, 0}";
},
{
name = center;
position = "{181, 568}";
},
{
name = top;
position = "{116, 708}";
}
);
layerId = "0E5388DE-A0E6-4EB4-BC9B-CE5870C9023F";
paths = (
{
closed = 1;
nodes = (
"229 0 LINE",
"229 7 LINE",
"140 26 LINE",
"140 734 LINE",
"113 728 OFFCURVE",
"89 718 OFFCURVE",
"66 704 CURVE",
"115 653 LINE",
"105 27 LINE",
"68 23 OFFCURVE",
"44 16 OFFCURVE",
"23 8 CURVE",
"23 0 LINE"
);
},
{
closed = 1;
nodes = (
"529 0 LINE",
"529 7 LINE",
"440 26 LINE",
"440 413 LINE",
"414 398 LINE",
"405 27 LINE",
"368 23 OFFCURVE",
"344 16 OFFCURVE",
"323 8 CURVE",
"323 0 LINE"
);
},
{
closed = 1;
nodes = (
"184 434 OFFCURVE",
"234 455 OFFCURVE",
"283 455 CURVE SMOOTH",
"329 455 OFFCURVE",
"374 436 OFFCURVE",
"414 398 CURVE",
"440 413 LINE",
"394 463 OFFCURVE",
"344 485 OFFCURVE",
"286 485 CURVE SMOOTH",
"282 485 OFFCURVE",
"277 485 OFFCURVE",
"272 485 CURVE",
"222 472 OFFCURVE",
"177 449 OFFCURVE",
"135 412 CURVE",
"135 393 LINE"
);
}
);
width = 544;
},
{
anchors = (
{
name = bottom;
position = "{296, 0}";
},
{
name = center;
position = "{178, 578}";
},
{
name = top;
position = "{156, 718}";
}
);
layerId = "BFC82823-8905-47CE-90FC-B44BF62F9018";
paths = (
{
closed = 1;
nodes = (
"289 0 LINE",
"289 73 LINE",
"257 95 LINE",
"257 752 LINE",
"159 749 OFFCURVE",
"72 721 OFFCURVE",
"-6 677 CURVE",
"59 560 LINE",
"45 100 LINE",
"33 89 OFFCURVE",
"22 78 OFFCURVE",
"13 66 CURVE",
"13 0 LINE"
);
},
{
closed = 1;
nodes = (
"585 0 LINE",
"585 73 LINE",
"551 95 LINE",
"551 411 LINE",
"351 317 LINE",
"339 100 LINE",
"327 90 OFFCURVE",
"316 79 OFFCURVE",
"309 66 CURVE",
"309 0 LINE"
);
},
{
closed = 1;
nodes = (
"264 327 OFFCURVE",
"278 329 OFFCURVE",
"293 329 CURVE SMOOTH",
"313 329 OFFCURVE",
"332 325 OFFCURVE",
"351 317 CURVE",
"551 411 LINE",
"512 475 OFFCURVE",
"456 507 OFFCURVE",
"384 507 CURVE SMOOTH",
"369 507 OFFCURVE",
"353 506 OFFCURVE",
"336 503 CURVE",
"298 456 OFFCURVE",
"267 403 OFFCURVE",
"242 343 CURVE",
"247 322 LINE"
);
}
);
width = 596;
}
);
leftKerningGroup = h;
rightKerningGroup = n;
unicode = 0068;
},
{
color = 10;
glyphname = idotless;
layers = (
{
anchors = (
{
name = bottom;
position = "{125, 0}";
},
{
name = ogonek;
position = "{210, 5}";
},
{
name = top;
position = "{122, 478}";
}
);
layerId = "0E5388DE-A0E6-4EB4-BC9B-CE5870C9023F";
paths = (
{
closed = 1;
nodes = (
"231 0 LINE",
"231 7 LINE",
"142 26 LINE",
"142 487 LINE",
"115 481 OFFCURVE",
"91 471 OFFCURVE",
"68 457 CURVE",
"116 406 LINE",
"107 27 LINE",
"76 24 OFFCURVE",
"49 17 OFFCURVE",
"25 8 CURVE",
"25 0 LINE"
);
}
);
width = 251;
},
{
anchors = (
{
name = bottom;
position = "{161, 0}";
},
{
name = ogonek;
position = "{282, 12}";
},
{
name = top;
position = "{161, 495}";
}
);
layerId = "BFC82823-8905-47CE-90FC-B44BF62F9018";
paths = (
{
closed = 1;
nodes = (
"298 0 LINE",
"298 73 LINE",
"267 95 LINE",
"267 509 LINE",
"169 506 OFFCURVE",
"82 479 OFFCURVE",
"4 434 CURVE",
"66 330 LINE",
"55 100 LINE",
"42 89 OFFCURVE",
"32 78 OFFCURVE",
"23 66 CURVE",
"23 0 LINE"
);
}
);
width = 316;
}
);
leftKerningGroup = idotless;
rightKerningGroup = idotless;
unicode = 0131;
},
{
color = 10;
glyphname = jdotless;
layers = (
{
anchors = (
{
name = bottom;
position = "{109, 0}";
},
{
name = top;
position = "{109, 478}";
}
);
layerId = "0E5388DE-A0E6-4EB4-BC9B-CE5870C9023F";
paths = (
{
closed = 1;
nodes = (
"87 -141 OFFCURVE",
"130 -81 OFFCURVE",
"130 -1 CURVE SMOOTH",
"130 487 LINE",
"103 481 OFFCURVE",
"79 471 OFFCURVE",
"56 457 CURVE",
"104 406 LINE",
"95 -60 LINE",
"6 -193 LINE",
"11 -199 LINE"
);
}
);
width = 226;
},
{
anchors = (
{
name = bottom;
position = "{151, 0}";
},
{
name = top;
position = "{151, 495}";
}
);
layerId = "BFC82823-8905-47CE-90FC-B44BF62F9018";
paths = (
{
closed = 1;
nodes = (
"157 -187 OFFCURVE",
"257 -105 OFFCURVE",
"257 31 CURVE",
"257 509 LINE",
"159 506 OFFCURVE",
"72 479 OFFCURVE",
"-6 434 CURVE",
"57 330 LINE",
"45 -52 LINE",
"-33 -152 LINE",
"-14 -196 LINE"
);
}
);
width = 301;
}
);
leftKerningGroup = j;
rightKerningGroup = j;
unicode = 0237;
},
{
color = 10;
glyphname = k;
layers = (
{
anchors = (
{
name = bottom;
position = "{246, 0}";
},
{
name = center;
position = "{181, 568}";
},
{
name = top;
position = "{126, 704}";
},
{
name = topright;
position = "{215, 478}";
}
);
background = {
paths = (
{
closed = 1;
nodes = (
"229 0 LINE",
"229 7 LINE",
"140 26 LINE",
"140 734 LINE",
"113 728 OFFCURVE",
"89 718 OFFCURVE",
"66 704 CURVE",
"115 653 LINE",
"105 27 LINE",
"68 23 OFFCURVE",
"44 16 OFFCURVE",
"23 8 CURVE",
"23 0 LINE"
);
},
{
closed = 1;
nodes = (
"417 -4 OFFCURVE",
"429 1 OFFCURVE",
"440 7 CURVE",
"215 265 LINE",
"215 245 LINE",
"413 471 LINE",
"413 478 LINE",
"384 478 LINE",
"186 254 LINE",
"403 -8 LINE"
);
},
{
closed = 1;
nodes = (
"451 470 LINE",
"451 478 LINE",
"292 478 LINE",
"292 470 LINE",
"321 460 OFFCURVE",
"351 452 OFFCURVE",
"387 450 CURVE"
);
}
);
};
layerId = "0E5388DE-A0E6-4EB4-BC9B-CE5870C9023F";
paths = (
{
closed = 1;
nodes = (
"229 0 LINE",
"229 7 LINE",
"140 26 LINE",
"140 734 LINE",
"113 728 OFFCURVE",
"89 718 OFFCURVE",
"66 704 CURVE",
"115 653 LINE",
"105 27 LINE",
"68 23 OFFCURVE",
"44 16 OFFCURVE",
"23 8 CURVE",
"23 0 LINE"
);
},
{
closed = 1;
nodes = (
"417 -4 OFFCURVE",
"429 1 OFFCURVE",
"440 7 CURVE",
"215 265 LINE",
"215 245 LINE",
"404 461 LINE",
"404 468 LINE",
"375 468 LINE",
"186 254 LINE",
"403 -8 LINE"
);
},
{
closed = 1;
nodes = (
"451 470 LINE",
"451 478 LINE",
"292 478 LINE",
"292 470 LINE",
"321 460 OFFCURVE",
"351 452 OFFCURVE",
"387 450 CURVE"
);
}
);
width = 465;
},
{
anchors = (
{
name = bottom;
position = "{323, 0}";
},
{
name = center;
position = "{178, 578}";
},
{
name = top;
position = "{159, 711}";
},
{
name = topright;
position = "{296, 495}";
}
);
background = {
paths = (
{
closed = 1;
nodes = (
"290 0 LINE",
"290 73 LINE",
"258 95 LINE",
"258 752 LINE",
"160 749 OFFCURVE",
"73 721 OFFCURVE",
"-5 677 CURVE",
"60 560 LINE",
"46 100 LINE",
"34 89 OFFCURVE",
"23 78 OFFCURVE",
"14 66 CURVE",
"14 0 LINE"
);
},
{
closed = 1;
nodes = (
"483 -2 OFFCURVE",
"557 12 OFFCURVE",
"626 31 CURVE",
"375 377 LINE",
"369 229 LINE",
"574 474 LINE",
"574 495 LINE",
"433 495 LINE",
"236 255 LINE",
"402 -8 LINE"
);
},
{
closed = 1;
nodes = (
"588 421 LINE",
"588 495 LINE",
"310 495 LINE",
"310 421 LINE",
"343 386 OFFCURVE",
"383 362 OFFCURVE",
"426 347 CURVE"
);
}
);
};
layerId = "BFC82823-8905-47CE-90FC-B44BF62F9018";
paths = (
{
closed = 1;
nodes = (
"290 0 LINE",
"290 73 LINE",
"258 95 LINE",
"258 752 LINE",
"160 749 OFFCURVE",
"73 721 OFFCURVE",
"-5 677 CURVE",
"60 560 LINE",
"46 100 LINE",
"34 89 OFFCURVE",
"23 78 OFFCURVE",
"14 66 CURVE",
"14 0 LINE"
);
},
{
closed = 1;
nodes = (
"483 -2 OFFCURVE",
"557 12 OFFCURVE",
"626 31 CURVE",
"375 377 LINE",
"369 229 LINE",
"566 464 LINE",
"566 485 LINE",
"425 485 LINE",
"236 255 LINE",
"402 -8 LINE"
);
},
{
closed = 1;
nodes = (
"588 421 LINE",
"588 495 LINE",
"310 495 LINE",
"310 421 LINE",
"343 386 OFFCURVE",
"383 362 OFFCURVE",
"426 347 CURVE"
);
}
);
width = 595;
}
);
leftKerningGroup = h;
rightKerningGroup = x;
unicode = 006B;
},
{
color = 10;
glyphname = kgreenlandic;
layers = (
{
anchors = (
{
name = bottom;
position = "{228, 0}";
},
{
name = top;
position = "{228, 478}";
}
);
background = {
paths = (
{
closed = 1;
nodes = (
"232 0 LINE",
"232 7 LINE",
"143 26 LINE",
"143 487 LINE",
"116 481 OFFCURVE",
"92 471 OFFCURVE",
"69 457 CURVE",
"117 406 LINE",
"108 27 LINE",
"71 23 OFFCURVE",
"47 16 OFFCURVE",
"26 8 CURVE",
"26 0 LINE"
);
},
{
closed = 1;
nodes = (
"454 470 LINE",
"454 478 LINE",
"295 478 LINE",
"295 470 LINE",
"324 460 OFFCURVE",
"354 452 OFFCURVE",
"390 450 CURVE"
);
},
{
closed = 1;
nodes = (
"416 471 LINE",
"416 478 LINE",
"387 478 LINE",
"189 254 LINE",
"406 -8 LINE",
"420 -4 OFFCURVE",
"432 1 OFFCURVE",
"443 7 CURVE",
"218 265 LINE",
"218 245 LINE"
);
}
);
};
layerId = "0E5388DE-A0E6-4EB4-BC9B-CE5870C9023F";
paths = (
{
closed = 1;
nodes = (
"232 0 LINE",
"232 7 LINE",
"143 26 LINE",
"143 487 LINE",
"116 481 OFFCURVE",
"92 471 OFFCURVE",
"69 457 CURVE",
"117 406 LINE",
"108 27 LINE",
"71 23 OFFCURVE",
"47 16 OFFCURVE",
"26 8 CURVE",
"26 0 LINE"
);
},
{
closed = 1;
nodes = (
"454 470 LINE",
"454 478 LINE",
"295 478 LINE",
"295 470 LINE",
"324 460 OFFCURVE",
"354 452 OFFCURVE",
"390 450 CURVE"
);
},
{
closed = 1;
nodes = (
"407 461 LINE",
"407 468 LINE",
"378 468 LINE",
"189 254 LINE",
"406 -8 LINE",
"420 -4 OFFCURVE",
"432 1 OFFCURVE",
"443 7 CURVE",
"218 265 LINE",
"218 245 LINE"
);
}
);
width = 468;
},
{
anchors = (
{
name = bottom;
position = "{312, 0}";
},
{
name = top;
position = "{312, 495}";
}
);
background = {
paths = (
{
closed = 1;
nodes = (
"298 0 LINE",
"298 73 LINE",
"267 95 LINE",
"267 509 LINE",
"169 506 OFFCURVE",
"82 479 OFFCURVE",
"4 434 CURVE",
"66 330 LINE",
"55 100 LINE",
"42 89 OFFCURVE",
"32 78 OFFCURVE",
"23 66 CURVE",
"23 0 LINE"
);
},
{
closed = 1;
nodes = (
"596 421 LINE",
"596 495 LINE",
"318 495 LINE",
"318 421 LINE",
"352 386 OFFCURVE",
"391 362 OFFCURVE",
"434 347 CURVE"
);
},
{
closed = 1;
nodes = (
"583 474 LINE",
"583 495 LINE",
"442 495 LINE",
"245 255 LINE",
"410 -8 LINE",
"492 -2 OFFCURVE",
"566 12 OFFCURVE",
"635 31 CURVE",
"384 377 LINE",
"378 229 LINE"
);
}
);
};
layerId = "BFC82823-8905-47CE-90FC-B44BF62F9018";
paths = (
{
closed = 1;
nodes = (
"298 0 LINE",
"298 73 LINE",
"267 95 LINE",
"267 509 LINE",
"169 506 OFFCURVE",
"82 479 OFFCURVE",
"4 434 CURVE",
"66 330 LINE",
"55 100 LINE",
"42 89 OFFCURVE",
"32 78 OFFCURVE",
"23 66 CURVE",
"23 0 LINE"
);
},
{
closed = 1;
nodes = (
"596 421 LINE",
"596 495 LINE",
"318 495 LINE",
"318 421 LINE",
"352 386 OFFCURVE",
"391 362 OFFCURVE",
"434 347 CURVE"
);
},
{
closed = 1;
nodes = (
"574 464 LINE",
"574 485 LINE",
"433 485 LINE",
"245 255 LINE",
"410 -8 LINE",
"492 -2 OFFCURVE",
"566 12 OFFCURVE",
"635 31 CURVE",
"384 377 LINE",
"378 229 LINE"
);
}
);
width = 603;
}
);
leftKerningGroup = n;
rightKerningGroup = x;
unicode = 0138;
},
{
color = 10;
glyphname = l;
layers = (
{
anchors = (
{
name = bottom;
position = "{125, 0}";
},
{
name = center;
position = "{128, 366}";
},
{
name = top;
position = "{116, 680}";
},
{
name = topright;
position = "{246, 725}";
}
);
layerId = "0E5388DE-A0E6-4EB4-BC9B-CE5870C9023F";
paths = (
{
closed = 1;
nodes = (
"229 0 LINE",
"229 7 LINE",
"140 26 LINE",
"140 734 LINE",
"113 728 OFFCURVE",
"89 718 OFFCURVE",
"66 704 CURVE",
"115 653 LINE",
"105 27 LINE",
"68 23 OFFCURVE",
"44 16 OFFCURVE",
"23 8 CURVE",
"23 0 LINE"
);
}
);
width = 250;
},
{
anchors = (
{
name = bottom;
position = "{152, 0}";
},
{
name = center;
position = "{153, 346}";
},
{
name = top;
position = "{152, 710}";
},
{
name = topright;
position = "{380, 737}";
}
);
layerId = "BFC82823-8905-47CE-90FC-B44BF62F9018";
paths = (
{
closed = 1;
nodes = (
"289 0 LINE",
"289 73 LINE",
"257 95 LINE",
"257 752 LINE",
"159 749 OFFCURVE",
"72 721 OFFCURVE",
"-6 677 CURVE",
"59 560 LINE",
"45 100 LINE",
"33 89 OFFCURVE",
"22 78 OFFCURVE",
"13 66 CURVE",
"13 0 LINE"
);
}
);
width = 307;
}
);
leftKerningGroup = h;
rightKerningGroup = l;
unicode = 006C;
},
{
color = 10;
glyphname = m;
layers = (
{
anchors = (
{
name = bottom;
position = "{420, 0}";
},
{
name = top;
position = "{420, 478}";
}
);
layerId = "0E5388DE-A0E6-4EB4-BC9B-CE5870C9023F";
paths = (
{
closed = 1;
nodes = (
"231 0 LINE",
"231 7 LINE",
"142 26 LINE",
"142 410 LINE",
"138 487 LINE",
"114 481 OFFCURVE",
"90 471 OFFCURVE",
"68 457 CURVE",
"116 406 LINE",
"107 27 LINE",
"70 23 OFFCURVE",
"46 16 OFFCURVE",
"25 8 CURVE",
"25 0 LINE"
);
},
{
closed = 1;
nodes = (
"531 0 LINE",
"531 7 LINE",
"442 26 LINE",
"442 407 LINE",
"442 413 LINE",
"416 398 LINE",
"407 27 LINE",
"370 23 OFFCURVE",
"346 16 OFFCURVE",
"325 8 CURVE",
"325 0 LINE"
);
},
{
closed = 1;
nodes = (
"442 413 LINE",
"396 463 OFFCURVE",
"346 485 OFFCURVE",
"288 485 CURVE SMOOTH",
"284 485 OFFCURVE",
"279 485 OFFCURVE",
"274 485 CURVE",
"224 472 OFFCURVE",
"179 449 OFFCURVE",
"137 412 CURVE",
"137 393 LINE",
"186 434 OFFCURVE",
"236 455 OFFCURVE",
"285 455 CURVE SMOOTH",
"331 455 OFFCURVE",
"376 436 OFFCURVE",
"416 398 CURVE"
);
},
{
closed = 1;
nodes = (
"831 0 LINE",
"831 7 LINE",
"742 26 LINE",
"742 413 LINE",
"716 398 LINE",
"707 27 LINE",
"670 23 OFFCURVE",
"646 16 OFFCURVE",
"625 8 CURVE",
"625 0 LINE"
);
},
{
closed = 1;
nodes = (
"742 413 LINE",
"696 463 OFFCURVE",
"646 485 OFFCURVE",
"588 485 CURVE SMOOTH",
"584 485 OFFCURVE",
"579 485 OFFCURVE",
"574 485 CURVE",
"524 472 OFFCURVE",
"479 449 OFFCURVE",
"437 412 CURVE",
"437 393 LINE",
"486 434 OFFCURVE",
"536 455 OFFCURVE",
"585 455 CURVE SMOOTH",
"631 455 OFFCURVE",
"676 436 OFFCURVE",
"716 398 CURVE"
);
}
);
width = 846;
},
{
anchors = (
{
name = bottom;
position = "{451, 0}";
},
{
name = top;
position = "{451, 495}";
}
);
layerId = "BFC82823-8905-47CE-90FC-B44BF62F9018";
paths = (
{
closed = 1;
nodes = (
"298 0 LINE",
"298 73 LINE",
"267 95 LINE",
"267 350 LINE",
"248 509 LINE",
"164 503 OFFCURVE",
"82 478 OFFCURVE",
"4 434 CURVE",
"66 330 LINE",
"55 100 LINE",
"42 89 OFFCURVE",
"32 78 OFFCURVE",
"23 66 CURVE",
"23 0 LINE"
);
},
{
closed = 1;
nodes = (
"595 0 LINE",
"595 73 LINE",
"561 95 LINE",
"561 347 LINE",
"578 382 LINE",
"361 317 LINE",
"349 100 LINE",
"337 90 OFFCURVE",
"326 79 OFFCURVE",
"318 66 CURVE",
"318 0 LINE"
);
},
{
closed = 1;
nodes = (
"578 382 LINE",
"535 468 OFFCURVE",
"474 507 OFFCURVE",
"394 507 CURVE SMOOTH",
"378 507 OFFCURVE",
"362 506 OFFCURVE",
"345 503 CURVE",
"308 456 OFFCURVE",
"276 403 OFFCURVE",
"251 343 CURVE",
"257 322 LINE",
"273 327 OFFCURVE",
"288 329 OFFCURVE",
"303 329 CURVE SMOOTH",
"322 329 OFFCURVE",
"341 325 OFFCURVE",
"361 317 CURVE"
);
},
{
closed = 1;
nodes = (
"889 0 LINE",
"889 73 LINE",
"855 95 LINE",
"855 411 LINE",
"655 317 LINE",
"643 100 LINE",
"631 90 OFFCURVE",
"620 79 OFFCURVE",
"613 66 CURVE",
"613 0 LINE"
);
},
{
closed = 1;
nodes = (
"855 411 LINE",
"816 475 OFFCURVE",
"760 507 OFFCURVE",
"688 507 CURVE SMOOTH",
"673 507 OFFCURVE",
"657 506 OFFCURVE",
"640 503 CURVE",
"602 456 OFFCURVE",
"571 403 OFFCURVE",
"546 343 CURVE",
"551 322 LINE",
"568 327 OFFCURVE",
"582 329 OFFCURVE",
"597 329 CURVE SMOOTH",
"617 329 OFFCURVE",
"636 325 OFFCURVE",
"655 317 CURVE"
);
}
);
width = 900;
}
);
leftKerningGroup = n;
rightKerningGroup = n;
unicode = 006D;
},
{
glyphname = n;
layers = (
{
anchors = (
{
name = bottom;
position = "{268, 0}";
},
{
name = top;
position = "{277, 478}";
}
);
layerId = "0E5388DE-A0E6-4EB4-BC9B-CE5870C9023F";
paths = (
{
closed = 1;
nodes = (
"231 0 LINE",
"231 7 LINE",
"142 26 LINE",
"142 410 LINE",
"138 487 LINE",
"114 481 OFFCURVE",
"90 471 OFFCURVE",
"68 457 CURVE",
"116 406 LINE",
"107 27 LINE",
"70 23 OFFCURVE",
"46 16 OFFCURVE",
"25 8 CURVE",
"25 0 LINE"
);
},
{
closed = 1;
nodes = (
"531 0 LINE",
"531 7 LINE",
"442 26 LINE",
"442 413 LINE",
"416 398 LINE",
"407 27 LINE",
"370 23 OFFCURVE",
"346 16 OFFCURVE",
"325 8 CURVE",
"325 0 LINE"
);
},
{
closed = 1;
nodes = (
"186 434 OFFCURVE",
"236 455 OFFCURVE",
"285 455 CURVE SMOOTH",
"331 455 OFFCURVE",
"376 436 OFFCURVE",
"416 398 CURVE",
"442 413 LINE",
"396 463 OFFCURVE",
"346 485 OFFCURVE",
"288 485 CURVE SMOOTH",
"284 485 OFFCURVE",
"279 485 OFFCURVE",
"274 485 CURVE",
"224 472 OFFCURVE",
"179 449 OFFCURVE",
"137 412 CURVE",
"137 393 LINE"
);
}
);
width = 546;
},
{
anchors = (
{
name = bottom;
position = "{304, 0}";
},
{
name = top;
position = "{323, 495}";
}
);
layerId = "BFC82823-8905-47CE-90FC-B44BF62F9018";
paths = (
{
closed = 1;
nodes = (
"298 0 LINE",
"298 73 LINE",
"267 95 LINE",
"267 350 LINE",
"248 509 LINE",
"164 503 OFFCURVE",
"82 478 OFFCURVE",
"4 434 CURVE",
"66 330 LINE",
"55 100 LINE",
"42 89 OFFCURVE",
"32 78 OFFCURVE",
"23 66 CURVE",
"23 0 LINE"
);
},
{
closed = 1;
nodes = (
"595 0 LINE",
"595 73 LINE",
"561 95 LINE",
"561 411 LINE",
"361 317 LINE",
"349 100 LINE",
"337 90 OFFCURVE",
"326 79 OFFCURVE",
"318 66 CURVE",
"318 0 LINE"
);
},
{
closed = 1;
nodes = (
"273 327 OFFCURVE",
"288 329 OFFCURVE",
"303 329 CURVE SMOOTH",
"322 329 OFFCURVE",
"341 325 OFFCURVE",
"361 317 CURVE",
"561 411 LINE",
"522 475 OFFCURVE",
"466 507 OFFCURVE",
"393 507 CURVE SMOOTH",
"378 507 OFFCURVE",
"362 506 OFFCURVE",
"345 503 CURVE",
"308 456 OFFCURVE",
"276 403 OFFCURVE",
"251 343 CURVE",
"257 322 LINE"
);
}
);
width = 605;
}
);
leftKerningGroup = n;
rightKerningGroup = n;
unicode = 006E;
},
{
color = 10;
glyphname = eng;
layers = (
{
layerId = "0E5388DE-A0E6-4EB4-BC9B-CE5870C9023F";
paths = (
{
closed = 1;
nodes = (
"231 0 LINE",
"231 7 LINE",
"142 26 LINE",
"142 410 LINE",
"138 487 LINE",
"114 481 OFFCURVE",
"90 471 OFFCURVE",
"68 457 CURVE",
"116 406 LINE",
"107 27 LINE",
"70 23 OFFCURVE",
"46 16 OFFCURVE",
"25 8 CURVE",
"25 0 LINE"
);
},
{
closed = 1;
nodes = (
"389 -141 OFFCURVE",
"432 -81 OFFCURVE",
"432 -1 CURVE SMOOTH",
"432 413 LINE",
"406 398 LINE",
"397 -60 LINE",
"308 -193 LINE",
"313 -199 LINE"
);
},
{
closed = 1;
nodes = (
"184 434 OFFCURVE",
"232 455 OFFCURVE",
"279 455 CURVE SMOOTH",
"323 455 OFFCURVE",
"367 436 OFFCURVE",
"406 398 CURVE",
"432 413 LINE",
"388 463 OFFCURVE",
"340 485 OFFCURVE",
"284 485 CURVE SMOOTH",
"279 485 OFFCURVE",
"275 485 OFFCURVE",
"270 485 CURVE",
"221 472 OFFCURVE",
"178 449 OFFCURVE",
"137 412 CURVE",
"137 393 LINE"
);
}
);
width = 519;
},
{
layerId = "BFC82823-8905-47CE-90FC-B44BF62F9018";
paths = (
{
closed = 1;
nodes = (
"298 0 LINE",
"298 73 LINE",
"267 95 LINE",
"267 350 LINE",
"248 509 LINE",
"164 503 OFFCURVE",
"82 478 OFFCURVE",
"4 434 CURVE",
"66 330 LINE",
"55 100 LINE",
"42 89 OFFCURVE",
"32 78 OFFCURVE",
"23 66 CURVE",
"23 0 LINE"
);
},
{
closed = 1;
nodes = (
"453 -187 OFFCURVE",
"552 -105 OFFCURVE",
"552 31 CURVE SMOOTH",
"552 411 LINE",
"352 317 LINE",
"340 -52 LINE",
"263 -152 LINE",
"281 -196 LINE"
);
},
{
closed = 1;
nodes = (
"271 327 OFFCURVE",
"286 329 OFFCURVE",
"299 329 CURVE SMOOTH",
"317 329 OFFCURVE",
"335 325 OFFCURVE",
"352 317 CURVE",
"552 411 LINE",
"514 475 OFFCURVE",
"459 507 OFFCURVE",
"388 507 CURVE SMOOTH",
"374 507 OFFCURVE",
"358 506 OFFCURVE",
"342 503 CURVE",
"306 456 OFFCURVE",
"275 403 OFFCURVE",
"251 343 CURVE",
"257 322 LINE"
);
}
);
width = 591;
}
);
leftKerningGroup = n;
rightKerningGroup = j;
unicode = 014B;
},
{
color = 10;
glyphname = o;
layers = (
{
anchors = (
{
name = bottom;
position = "{250, 0}";
},
{
name = center;
position = "{250, 239}";
},
{
name = ogonek;
position = "{358, 10}";
},
{
name = top;
position = "{250, 478}";
},
{
name = topright;
position = "{427, 478}";
}
);
layerId = "0E5388DE-A0E6-4EB4-BC9B-CE5870C9023F";
paths = (
{
closed = 1;
nodes = (
"363 -7 OFFCURVE",
"451 98 OFFCURVE",
"451 244 CURVE SMOOTH",
"451 383 OFFCURVE",
"369 485 OFFCURVE",
"254 485 CURVE SMOOTH",
"136 485 OFFCURVE",
"49 378 OFFCURVE",
"49 230 CURVE SMOOTH",
"49 92 OFFCURVE",
"129 -7 OFFCURVE",
"244 -7 CURVE SMOOTH"
);
},
{
closed = 1;
nodes = (
"152 21 OFFCURVE",
"81 110 OFFCURVE",
"81 236 CURVE SMOOTH",
"81 302 OFFCURVE",
"101 367 OFFCURVE",
"140 427 CURVE",
"127 413 LINE",
"165 441 OFFCURVE",
"208 455 OFFCURVE",
"248 455 CURVE SMOOTH",
"349 455 OFFCURVE",
"419 370 OFFCURVE",
"419 243 CURVE SMOOTH",
"419 112 OFFCURVE",
"347 21 OFFCURVE",
"248 21 CURVE SMOOTH"
);
}
);
width = 500;
},
{
anchors = (
{
name = bottom;
position = "{268, 0}";
},
{
name = center;
position = "{268, 247}";
},
{
name = ogonek;
position = "{459, 10}";
},
{
name = top;
position = "{268, 495}";
},
{
name = topright;
position = "{452, 495}";
}
);
background = {
paths = (
{
closed = 1;
nodes = (
"432 -14 OFFCURVE",
"526 83 OFFCURVE",
"526 262 CURVE SMOOTH",
"526 422 OFFCURVE",
"435 509 OFFCURVE",
"271 509 CURVE SMOOTH",
"104 509 OFFCURVE",
"10 413 OFFCURVE",
"10 243 CURVE SMOOTH",
"10 77 OFFCURVE",
"97 -14 OFFCURVE",
"258 -14 CURVE SMOOTH"
);
},
{
closed = 1;
nodes = (
"233 107 OFFCURVE",
"223 136 OFFCURVE",
"223 246 CURVE SMOOTH",
"223 299 OFFCURVE",
"226 339 OFFCURVE",
"233 377 CURVE",
"244 379 OFFCURVE",
"252 380 OFFCURVE",
"260 380 CURVE SMOOTH",
"303 380 OFFCURVE",
"312 349 OFFCURVE",
"312 246 CURVE SMOOTH",
"312 135 OFFCURVE",
"303 107 OFFCURVE",
"269 107 CURVE SMOOTH"
);
}
);
};
layerId = "BFC82823-8905-47CE-90FC-B44BF62F9018";
paths = (
{
closed = 1;
nodes = (
"432 -14 OFFCURVE",
"526 83 OFFCURVE",
"526 262 CURVE SMOOTH",
"526 422 OFFCURVE",
"435 509 OFFCURVE",
"271 509 CURVE SMOOTH",
"104 509 OFFCURVE",
"10 413 OFFCURVE",
"10 243 CURVE SMOOTH",
"10 77 OFFCURVE",
"97 -14 OFFCURVE",
"258 -14 CURVE SMOOTH"
);
},
{
closed = 1;
nodes = (
"233 107 OFFCURVE",
"223 136 OFFCURVE",
"223 246 CURVE SMOOTH",
"223 325 OFFCURVE",
"230 375 OFFCURVE",
"246 430 CURVE",
"118 348 LINE",
"199 369 OFFCURVE",
"235 380 OFFCURVE",
"260 380 CURVE SMOOTH",
"303 380 OFFCURVE",
"312 349 OFFCURVE",
"312 246 CURVE SMOOTH",
"312 135 OFFCURVE",
"303 107 OFFCURVE",
"269 107 CURVE SMOOTH"
);
}
);
width = 535;
}
);
leftKerningGroup = o;
rightKerningGroup = o;
unicode = 006F;
},
{
color = 10;
glyphname = ohorn;
layers = (
{
anchors = (
{
name = bottom;
position = "{258, 0}";
},
{
name = top;
position = "{258, 478}";
}
);
background = {
paths = (
{
closed = 1;
nodes = (
"363 -7 OFFCURVE",
"451 99 OFFCURVE",
"451 244 CURVE SMOOTH",
"451 377 OFFCURVE",
"364 485 OFFCURVE",
"254 485 CURVE SMOOTH",
"136 485 OFFCURVE",
"49 377 OFFCURVE",
"49 230 CURVE SMOOTH",
"49 92 OFFCURVE",
"129 -7 OFFCURVE",
"244 -7 CURVE SMOOTH"
);
},
{
closed = 1;
nodes = (
"151 21 OFFCURVE",
"81 111 OFFCURVE",
"81 236 CURVE SMOOTH",
"81 292 OFFCURVE",
"100 355 OFFCURVE",
"135 419 CURVE",
"171 443 OFFCURVE",
"211 455 OFFCURVE",
"248 455 CURVE SMOOTH",
"350 455 OFFCURVE",
"419 369 OFFCURVE",
"419 243 CURVE SMOOTH",
"419 114 OFFCURVE",
"348 21 OFFCURVE",
"248 21 CURVE SMOOTH"
);
},
{
closed = 1;
nodes = (
"421 442 OFFCURVE",
"426 442 OFFCURVE",
"431 442 CURVE SMOOTH",
"455 442 OFFCURVE",
"467 455 OFFCURVE",
"467 482 CURVE SMOOTH",
"467 504 OFFCURVE",
"460 534 OFFCURVE",
"445 572 CURVE",
"407 562 LINE",
"434 469 LINE",
"396 469 OFFCURVE",
"316 485 OFFCURVE",
"254 485 CURVE",
"254 470 LINE",
"416 443 LINE SMOOTH"
);
}
);
};
layerId = "0E5388DE-A0E6-4EB4-BC9B-CE5870C9023F";
paths = (
{
closed = 1;
nodes = (
"424 442 OFFCURVE",
"430 442 CURVE SMOOTH",
"457 442 OFFCURVE",
"467 454 OFFCURVE",
"467 482 CURVE SMOOTH",
"467 510 OFFCURVE",
"460 540 OFFCURVE",
"445 572 CURVE",
"407 562 LINE",
"434 469 LINE",
"396 469 OFFCURVE",
"316 485 OFFCURVE",
"254 485 CURVE SMOOTH",
"136 485 OFFCURVE",
"49 377 OFFCURVE",
"49 230 CURVE SMOOTH",
"49 91 OFFCURVE",
"130 -7 OFFCURVE",
"244 -7 CURVE SMOOTH",
"363 -7 OFFCURVE",
"451 99 OFFCURVE",
"451 244 CURVE SMOOTH",
"451 334 OFFCURVE",
"410 417 OFFCURVE",
"344 459 CURVE",
"339 456 LINE",
"410 444 LINE SMOOTH",
"418 443 OFFCURVE"
);
},
{
closed = 1;
nodes = (
"419 114 OFFCURVE",
"348 21 OFFCURVE",
"248 21 CURVE SMOOTH",
"151 21 OFFCURVE",
"81 111 OFFCURVE",
"81 236 CURVE SMOOTH",
"81 286 OFFCURVE",
"100 349 OFFCURVE",
"135 419 CURVE",
"170 442 OFFCURVE",
"210 455 OFFCURVE",
"248 455 CURVE SMOOTH",
"350 455 OFFCURVE",
"419 369 OFFCURVE",
"419 243 CURVE SMOOTH"
);
}
);
width = 520;
},
{
anchors = (
{
name = bottom;
position = "{285, 0}";
},
{
name = top;
position = "{268, 495}";
}
);
background = {
paths = (
{
closed = 1;
nodes = (
"432 -14 OFFCURVE",
"526 83 OFFCURVE",
"526 262 CURVE SMOOTH",
"526 422 OFFCURVE",
"435 509 OFFCURVE",
"271 509 CURVE SMOOTH",
"104 509 OFFCURVE",
"10 413 OFFCURVE",
"10 243 CURVE SMOOTH",
"10 77 OFFCURVE",
"97 -14 OFFCURVE",
"258 -14 CURVE SMOOTH"
);
},
{
closed = 1;
nodes = (
"233 107 OFFCURVE",
"223 136 OFFCURVE",
"223 246 CURVE SMOOTH",
"223 299 OFFCURVE",
"226 339 OFFCURVE",
"233 377 CURVE",
"244 379 OFFCURVE",
"252 380 OFFCURVE",
"260 380 CURVE SMOOTH",
"301 380 OFFCURVE",
"312 353 OFFCURVE",
"312 246 CURVE SMOOTH",
"312 135 OFFCURVE",
"303 107 OFFCURVE",
"269 107 CURVE SMOOTH"
);
},
{
closed = 1;
nodes = (
"480 440 OFFCURVE",
"485 439 OFFCURVE",
"490 439 CURVE SMOOTH",
"554 439 OFFCURVE",
"590 475 OFFCURVE",
"590 529 CURVE SMOOTH",
"590 560 OFFCURVE",
"579 596 OFFCURVE",
"557 634 CURVE",
"423 604 LINE",
"445 499 LINE",
"403 499 OFFCURVE",
"339 509 OFFCURVE",
"271 509 CURVE",
"271 456 LINE",
"476 440 LINE SMOOTH"
);
}
);
};
layerId = "BFC82823-8905-47CE-90FC-B44BF62F9018";
paths = (
{
closed = 1;
nodes = (
"487 439 OFFCURVE",
"492 439 CURVE SMOOTH",
"554 439 OFFCURVE",
"590 473 OFFCURVE",
"590 529 CURVE SMOOTH",
"590 560 OFFCURVE",
"579 596 OFFCURVE",
"557 634 CURVE",
"423 604 LINE",
"445 499 LINE",
"403 499 OFFCURVE",
"339 509 OFFCURVE",
"271 509 CURVE SMOOTH",
"104 509 OFFCURVE",
"10 413 OFFCURVE",
"10 243 CURVE SMOOTH",
"10 77 OFFCURVE",
"97 -14 OFFCURVE",
"258 -14 CURVE SMOOTH",
"432 -14 OFFCURVE",
"526 83 OFFCURVE",
"526 262 CURVE SMOOTH",
"526 363 OFFCURVE",
"490 434 OFFCURVE",
"419 477 CURVE",
"371 448 LINE",
"476 440 LINE SMOOTH",
"481 440 OFFCURVE"
);
},
{
closed = 1;
nodes = (
"233 107 OFFCURVE",
"223 136 OFFCURVE",
"223 246 CURVE SMOOTH",
"223 299 OFFCURVE",
"226 339 OFFCURVE",
"233 377 CURVE",
"244 379 OFFCURVE",
"252 380 OFFCURVE",
"260 380 CURVE SMOOTH",
"301 380 OFFCURVE",
"312 353 OFFCURVE",
"312 246 CURVE SMOOTH",
"312 135 OFFCURVE",
"303 107 OFFCURVE",
"269 107 CURVE SMOOTH"
);
}
);
width = 555;
}
);
leftKerningGroup = o;
unicode = 01A1;
},
{
color = 10;
glyphname = oslash;
layers = (
{
anchors = (
{
name = bottom;
position = "{256, 0}";
},
{
name = center;
position = "{256, 239}";
},
{
name = ogonek;
position = "{457, 10}";
},
{
name = top;
position = "{257, 478}";
},
{
name = topright;
position = "{434, 478}";
}
);
layerId = "0E5388DE-A0E6-4EB4-BC9B-CE5870C9023F";
paths = (
{
closed = 1;
nodes = (
"151 38 LINE",
"90 -103 LINE",
"116 -111 LINE",
"175 25 LINE"
);
},
{
closed = 1;
nodes = (
"369 -7 OFFCURVE",
"457 98 OFFCURVE",
"457 244 CURVE SMOOTH",
"457 384 OFFCURVE",
"374 485 OFFCURVE",
"260 485 CURVE SMOOTH",
"141 485 OFFCURVE",
"53 378 OFFCURVE",
"53 230 CURVE SMOOTH",
"53 91 OFFCURVE",
"134 -7 OFFCURVE",
"249 -7 CURVE SMOOTH"
);
},
{
closed = 1;
nodes = (
"156 21 OFFCURVE",
"84 110 OFFCURVE",
"84 236 CURVE SMOOTH",
"84 297 OFFCURVE",
"102 361 OFFCURVE",
"138 419 CURVE",
"175 443 OFFCURVE",
"214 455 OFFCURVE",
"253 455 CURVE SMOOTH",
"355 455 OFFCURVE",
"426 370 OFFCURVE",
"426 243 CURVE SMOOTH",
"426 111 OFFCURVE",
"353 21 OFFCURVE",
"253 21 CURVE SMOOTH"
);
},
{
closed = 1;
nodes = (
"355 442 LINE",
"415 581 LINE",
"389 589 LINE",
"331 455 LINE"
);
},
{
closed = 1;
nodes = (
"175 25 LINE",
"355 442 LINE",
"331 455 LINE",
"151 38 LINE"
);
}
);
width = 510;
},
{
anchors = (
{
name = bottom;
position = "{269, 0}";
},
{
name = center;
position = "{269, 247}";
},
{
name = ogonek;
position = "{491, 10}";
},
{
name = top;
position = "{268, 505}";
},
{
name = topright;
position = "{454, 495}";
}
);
layerId = "BFC82823-8905-47CE-90FC-B44BF62F9018";
paths = (
{
closed = 1;
nodes = (
"152 85 LINE",
"91 -76 LINE",
"186 -110 LINE",
"245 43 LINE"
);
},
{
closed = 1;
nodes = (
"433 -14 OFFCURVE",
"527 83 OFFCURVE",
"527 262 CURVE SMOOTH",
"527 422 OFFCURVE",
"436 509 OFFCURVE",
"272 509 CURVE SMOOTH",
"104 509 OFFCURVE",
"9 413 OFFCURVE",
"9 243 CURVE SMOOTH",
"9 77 OFFCURVE",
"97 -14 OFFCURVE",
"258 -14 CURVE SMOOTH"
);
},
{
closed = 1;
nodes = (
"233 107 OFFCURVE",
"222 135 OFFCURVE",
"222 246 CURVE SMOOTH",
"222 296 OFFCURVE",
"225 339 OFFCURVE",
"232 377 CURVE",
"244 379 OFFCURVE",
"252 380 OFFCURVE",
"260 380 CURVE SMOOTH",
"304 380 OFFCURVE",
"314 349 OFFCURVE",
"314 246 CURVE SMOOTH",
"314 134 OFFCURVE",
"304 107 OFFCURVE",
"269 107 CURVE SMOOTH"
);
},
{
closed = 1;
nodes = (
"382 407 LINE",
"444 572 LINE",
"349 605 LINE",
"289 445 LINE"
);
},
{
closed = 1;
nodes = (
"245 43 LINE",
"382 407 LINE",
"289 445 LINE",
"152 85 LINE"
);
}
);
width = 536;
}
);
leftKerningGroup = o;
rightKerningGroup = o;
unicode = 00F8;
},
{
color = 10;
glyphname = oe;
layers = (
{
anchors = (
{
name = bottom;
position = "{413, 0}";
},
{
name = top;
position = "{413, 478}";
}
);
layerId = "0E5388DE-A0E6-4EB4-BC9B-CE5870C9023F";
paths = (
{
closed = 1;
nodes = (
"360 -7 OFFCURVE",
"446 98 OFFCURVE",
"446 244 CURVE SMOOTH",
"446 384 OFFCURVE",
"365 485 OFFCURVE",
"252 485 CURVE SMOOTH",
"135 485 OFFCURVE",
"49 378 OFFCURVE",
"49 230 CURVE SMOOTH",
"49 91 OFFCURVE",
"128 -7 OFFCURVE",
"242 -7 CURVE SMOOTH"
);
},
{
closed = 1;
nodes = (
"152 21 OFFCURVE",
"81 110 OFFCURVE",
"81 236 CURVE SMOOTH",
"81 299 OFFCURVE",
"99 361 OFFCURVE",
"135 419 CURVE",
"171 443 OFFCURVE",
"211 455 OFFCURVE",
"248 455 CURVE SMOOTH",
"349 455 OFFCURVE",
"419 370 OFFCURVE",
"419 243 CURVE SMOOTH",
"419 112 OFFCURVE",
"347 21 OFFCURVE",
"248 21 CURVE SMOOTH"
);
},
{
closed = 1;
nodes = (
"671 -6 OFFCURVE",
"726 18 OFFCURVE",
"779 62 CURVE",
"776 69 LINE",
"721 40 OFFCURVE",
"670 26 OFFCURVE",
"625 26 CURVE SMOOTH",
"520 26 OFFCURVE",
"452 104 OFFCURVE",
"452 244 CURVE SMOOTH",
"452 309 OFFCURVE",
"470 367 OFFCURVE",
"505 419 CURVE",
"540 442 OFFCURVE",
"582 455 OFFCURVE",
"618 455 CURVE SMOOTH",
"696 455 OFFCURVE",
"752 397 OFFCURVE",
"752 313 CURVE",
"747 265 LINE",
"435 260 LINE",
"435 232 LINE",
"609 232 OFFCURVE",
"681 237 OFFCURVE",
"778 254 CURVE",
"782 316 LINE",
"783 414 OFFCURVE",
"718 485 OFFCURVE",
"623 485 CURVE",
"513 485 OFFCURVE",
"422 381 OFFCURVE",
"422 243 CURVE SMOOTH",
"422 93 OFFCURVE",
"498 -6 OFFCURVE",
"615 -6 CURVE SMOOTH"
);
}
);
width = 837;
},
{
anchors = (
{
name = bottom;
position = "{398, 0}";
},
{
name = top;
position = "{398, 495}";
}
);
layerId = "BFC82823-8905-47CE-90FC-B44BF62F9018";
paths = (
{
closed = 1;
nodes = (
"396 -14 OFFCURVE",
"469 83 OFFCURVE",
"469 262 CURVE SMOOTH",
"469 422 OFFCURVE",
"399 509 OFFCURVE",
"258 509 CURVE SMOOTH",
"99 509 OFFCURVE",
"11 413 OFFCURVE",
"11 243 CURVE SMOOTH",
"11 77 OFFCURVE",
"93 -14 OFFCURVE",
"245 -14 CURVE SMOOTH"
);
},
{
closed = 1;
nodes = (
"234 107 OFFCURVE",
"224 136 OFFCURVE",
"224 246 CURVE SMOOTH",
"224 299 OFFCURVE",
"227 339 OFFCURVE",
"234 377 CURVE",
"245 379 OFFCURVE",
"253 380 OFFCURVE",
"261 380 CURVE SMOOTH",
"304 380 OFFCURVE",
"313 349 OFFCURVE",
"313 246 CURVE SMOOTH",
"313 135 OFFCURVE",
"304 107 OFFCURVE",
"270 107 CURVE SMOOTH"
);
},
{
closed = 1;
nodes = (
"643 -14 OFFCURVE",
"726 32 OFFCURVE",
"790 121 CURVE",
"776 159 LINE",
"721 145 OFFCURVE",
"674 136 OFFCURVE",
"636 136 CURVE SMOOTH",
"547 136 OFFCURVE",
"502 177 OFFCURVE",
"502 269 CURVE SMOOTH",
"502 300 OFFCURVE",
"506 336 OFFCURVE",
"516 377 CURVE",
"529 380 OFFCURVE",
"539 382 OFFCURVE",
"550 382 CURVE SMOOTH",
"588 382 OFFCURVE",
"604 362 OFFCURVE",
"604 316 CURVE",
"601 286 LINE",
"440 287 LINE",
"439 188 LINE",
"532 196 OFFCURVE",
"635 211 OFFCURVE",
"779 239 CURVE",
"782 302 LINE",
"782 431 OFFCURVE",
"705 505 OFFCURVE",
"566 505 CURVE SMOOTH",
"421 505 OFFCURVE",
"344 405 OFFCURVE",
"344 242 CURVE SMOOTH",
"344 83 OFFCURVE",
"418 -14 OFFCURVE",
"549 -14 CURVE SMOOTH"
);
}
);
width = 800;
}
);
leftKerningGroup = o;
rightKerningGroup = e;
unicode = 0153;
},
{
color = 10;
glyphname = p;
layers = (
{
anchors = (
{
name = bottom;
position = "{257, 0}";
},
{
name = top;
position = "{257, 478}";
}
);
background = {
paths = (
{
closed = 1;
nodes = (
"147 0 OFFCURVE",
"188 -7 OFFCURVE",
"226 -7 CURVE SMOOTH",
"366 -7 OFFCURVE",
"462 90 OFFCURVE",
"462 246 CURVE SMOOTH",
"462 387 OFFCURVE",
"385 480 OFFCURVE",
"265 486 CURVE SMOOTH",
"261 486 OFFCURVE",
"256 486 OFFCURVE",
"252 486 CURVE",
"203 470 OFFCURVE",
"159 444 OFFCURVE",
"122 414 CURVE",
"122 395 LINE",
"167 434 OFFCURVE",
"214 454 OFFCURVE",
"261 454 CURVE SMOOTH",
"309 454 OFFCURVE",
"357 434 OFFCURVE",
"405 394 CURVE",
"367 435 LINE",
"410 382 OFFCURVE",
"431 320 OFFCURVE",
"431 245 CURVE SMOOTH",
"431 103 OFFCURVE",
"354 20 OFFCURVE",
"229 20 CURVE SMOOTH",
"195 20 OFFCURVE",
"158 26 OFFCURVE",
"118 38 CURVE",
"104 15 LINE"
);
},
{
closed = 1;
nodes = (
"245 -195 LINE",
"245 -188 LINE",
"129 -169 LINE",
"129 410 LINE",
"125 487 LINE",
"101 481 OFFCURVE",
"79 470 OFFCURVE",
"55 457 CURVE",
"103 406 LINE",
"94 -168 LINE",
"57 -172 OFFCURVE",
"34 -180 OFFCURVE",
"13 -187 CURVE",
"13 -195 LINE"
);
}
);
};
layerId = "0E5388DE-A0E6-4EB4-BC9B-CE5870C9023F";
paths = (
{
closed = 1;
nodes = (
"369 -7 OFFCURVE",
"462 89 OFFCURVE",
"462 246 CURVE SMOOTH",
"462 382 OFFCURVE",
"385 486 OFFCURVE",
"259 486 CURVE SMOOTH",
"257 486 OFFCURVE",
"254 486 OFFCURVE",
"252 486 CURVE",
"207 471 OFFCURVE",
"164 448 OFFCURVE",
"123 414 CURVE",
"123 394 LINE",
"170 434 OFFCURVE",
"217 454 OFFCURVE",
"264 454 CURVE SMOOTH",
"311 454 OFFCURVE",
"359 434 OFFCURVE",
"407 394 CURVE",
"367 435 LINE",
"410 382 OFFCURVE",
"432 320 OFFCURVE",
"432 245 CURVE SMOOTH",
"432 103 OFFCURVE",
"355 20 OFFCURVE",
"230 20 CURVE SMOOTH",
"196 20 OFFCURVE",
"159 26 OFFCURVE",
"119 38 CURVE",
"104 15 LINE",
"148 0 OFFCURVE",
"190 -7 OFFCURVE",
"228 -7 CURVE SMOOTH"
);
},
{
closed = 1;
nodes = (
"245 -195 LINE",
"245 -188 LINE",
"129 -169 LINE",
"129 410 LINE",
"125 487 LINE",
"101 481 OFFCURVE",
"79 470 OFFCURVE",
"55 457 CURVE",
"103 406 LINE",
"94 -168 LINE",
"57 -172 OFFCURVE",
"34 -180 OFFCURVE",
"13 -187 CURVE",
"13 -195 LINE"
);
}
);
width = 510;
},
{
anchors = (
{
name = bottom;
position = "{289, 0}";
},
{
name = top;
position = "{289, 495}";
}
);
background = {
paths = (
{
closed = 1;
nodes = (
"455 -13 OFFCURVE",
"560 85 OFFCURVE",
"560 262 CURVE SMOOTH",
"560 412 OFFCURVE",
"484 506 OFFCURVE",
"368 506 CURVE SMOOTH",
"357 506 OFFCURVE",
"346 505 OFFCURVE",
"334 503 CURVE",
"298 454 OFFCURVE",
"271 407 OFFCURVE",
"246 352 CURVE",
"248 323 LINE",
"265 327 OFFCURVE",
"280 329 OFFCURVE",
"295 329 CURVE SMOOTH",
"334 329 OFFCURVE",
"369 316 OFFCURVE",
"404 289 CURVE",
"338 345 LINE",
"348 308 OFFCURVE",
"352 262 OFFCURVE",
"352 223 CURVE SMOOTH",
"352 158 OFFCURVE",
"340 126 OFFCURVE",
"292 126 CURVE SMOOTH",
"256 126 OFFCURVE",
"199 144 OFFCURVE",
"110 180 CURVE",
"85 24 LINE",
"159 -1 OFFCURVE",
"226 -13 OFFCURVE",
"286 -13 CURVE SMOOTH"
);
}
);
};
layerId = "BFC82823-8905-47CE-90FC-B44BF62F9018";
paths = (
{
closed = 1;
nodes = (
"457 -12 OFFCURVE",
"560 84 OFFCURVE",
"560 262 CURVE SMOOTH",
"560 412 OFFCURVE",
"484 506 OFFCURVE",
"368 506 CURVE SMOOTH",
"357 506 OFFCURVE",
"346 505 OFFCURVE",
"334 503 CURVE",
"299 454 OFFCURVE",
"272 407 OFFCURVE",
"247 352 CURVE",
"249 323 LINE",
"265 327 OFFCURVE",
"280 329 OFFCURVE",
"296 329 CURVE SMOOTH",
"334 329 OFFCURVE",
"370 316 OFFCURVE",
"404 289 CURVE",
"338 345 LINE",
"348 308 OFFCURVE",
"352 262 OFFCURVE",
"352 223 CURVE SMOOTH",
"352 158 OFFCURVE",
"341 126 OFFCURVE",
"293 126 CURVE SMOOTH",
"256 126 OFFCURVE",
"199 144 OFFCURVE",
"111 180 CURVE",
"85 24 LINE",
"161 0 OFFCURVE",
"229 -12 OFFCURVE",
"287 -12 CURVE SMOOTH"
);
},
{
closed = 1;
nodes = (
"291 -188 LINE",
"291 -115 LINE",
"260 -93 LINE",
"260 350 LINE",
"242 509 LINE",
"157 503 OFFCURVE",
"77 478 OFFCURVE",
"-3 434 CURVE",
"59 330 LINE",
"48 -88 LINE",
"35 -99 OFFCURVE",
"26 -110 OFFCURVE",
"16 -122 CURVE",
"16 -188 LINE"
);
}
);
width = 570;
}
);
leftKerningGroup = p;
rightKerningGroup = o;
unicode = 0070;
},
{
color = 10;
glyphname = thorn;
layers = (
{
anchors = (
{
name = bottom;
position = "{112, -188}";
},
{
name = top;
position = "{97, 728}";
}
);
layerId = "0E5388DE-A0E6-4EB4-BC9B-CE5870C9023F";
paths = (
{
closed = 1;
nodes = (
"244 -195 LINE",
"244 -188 LINE",
"127 -169 LINE",
"127 734 LINE",
"100 728 OFFCURVE",
"76 718 OFFCURVE",
"53 704 CURVE",
"102 653 LINE",
"92 -168 LINE",
"55 -172 OFFCURVE",
"31 -180 OFFCURVE",
"11 -187 CURVE",
"11 -195 LINE"
);
},
{
closed = 1;
nodes = (
"146 0 OFFCURVE",
"187 -7 OFFCURVE",
"225 -7 CURVE SMOOTH",
"366 -7 OFFCURVE",
"462 89 OFFCURVE",
"462 246 CURVE SMOOTH",
"462 386 OFFCURVE",
"386 478 OFFCURVE",
"267 486 CURVE SMOOTH",
"261 486 OFFCURVE",
"256 486 OFFCURVE",
"251 486 CURVE",
"202 470 OFFCURVE",
"158 445 OFFCURVE",
"120 414 CURVE",
"120 395 LINE",
"166 435 OFFCURVE",
"213 455 OFFCURVE",
"261 455 CURVE SMOOTH",
"308 455 OFFCURVE",
"357 435 OFFCURVE",
"405 394 CURVE",
"367 435 LINE",
"410 382 OFFCURVE",
"431 320 OFFCURVE",
"431 245 CURVE SMOOTH",
"431 102 OFFCURVE",
"353 19 OFFCURVE",
"228 19 CURVE SMOOTH",
"194 19 OFFCURVE",
"156 25 OFFCURVE",
"116 38 CURVE",
"102 15 LINE"
);
}
);
width = 510;
},
{
anchors = (
{
name = bottom;
position = "{139, -188}";
},
{
name = top;
position = "{137, 737}";
}
);
layerId = "BFC82823-8905-47CE-90FC-B44BF62F9018";
paths = (
{
closed = 1;
nodes = (
"281 -188 LINE",
"281 -115 LINE",
"250 -93 LINE",
"249 752 LINE",
"152 749 OFFCURVE",
"65 721 OFFCURVE",
"-13 677 CURVE",
"52 560 LINE",
"38 -88 LINE",
"26 -99 OFFCURVE",
"16 -110 OFFCURVE",
"7 -122 CURVE",
"7 -188 LINE"
);
},
{
closed = 1;
nodes = (
"150 -1 OFFCURVE",
"217 -13 OFFCURVE",
"276 -13 CURVE SMOOTH",
"445 -13 OFFCURVE",
"550 85 OFFCURVE",
"550 262 CURVE SMOOTH",
"550 412 OFFCURVE",
"474 506 OFFCURVE",
"358 506 CURVE SMOOTH",
"347 506 OFFCURVE",
"336 505 OFFCURVE",
"324 503 CURVE",
"289 454 OFFCURVE",
"262 407 OFFCURVE",
"237 352 CURVE",
"239 323 LINE",
"255 327 OFFCURVE",
"270 329 OFFCURVE",
"286 329 CURVE SMOOTH",
"324 329 OFFCURVE",
"360 316 OFFCURVE",
"394 289 CURVE",
"328 345 LINE",
"339 308 OFFCURVE",
"342 262 OFFCURVE",
"342 223 CURVE SMOOTH",
"342 158 OFFCURVE",
"331 126 OFFCURVE",
"283 126 CURVE SMOOTH",
"246 126 OFFCURVE",
"189 144 OFFCURVE",
"101 180 CURVE",
"76 24 LINE"
);
}
);
width = 560;
}
);
leftKerningGroup = h;
rightKerningGroup = o;
unicode = 00FE;
},
{
color = 10;
glyphname = q;
layers = (
{
anchors = (
{
name = bottom;
position = "{250, 0}";
},
{
name = top;
position = "{260, 478}";
}
);
layerId = "0E5388DE-A0E6-4EB4-BC9B-CE5870C9023F";
paths = (
{
closed = 1;
nodes = (
"253 -8 OFFCURVE",
"254 -8 OFFCURVE",
"255 -8 CURVE",
"305 8 OFFCURVE",
"349 35 OFFCURVE",
"386 64 CURVE",
"386 83 LINE",
"337 43 OFFCURVE",
"287 24 OFFCURVE",
"242 24 CURVE SMOOTH",
"151 24 OFFCURVE",
"80 101 OFFCURVE",
"80 233 CURVE SMOOTH",
"80 305 OFFCURVE",
"99 373 OFFCURVE",
"133 422 CURVE",
"120 409 LINE",
"171 441 OFFCURVE",
"221 457 OFFCURVE",
"279 457 CURVE SMOOTH",
"313 457 OFFCURVE",
"351 451 OFFCURVE",
"393 440 CURVE",
"402 467 LINE",
"361 479 OFFCURVE",
"322 485 OFFCURVE",
"286 485 CURVE SMOOTH",
"142 485 OFFCURVE",
"49 390 OFFCURVE",
"49 232 CURVE SMOOTH",
"49 87 OFFCURVE",
"131 -8 OFFCURVE",
"251 -8 CURVE SMOOTH"
);
},
{
closed = 1;
nodes = (
"477 -195 LINE",
"477 -188 LINE",
"409 -169 LINE",
"409 487 LINE",
"384 467 LINE",
"374 -168 LINE",
"340 -171 OFFCURVE",
"312 -177 OFFCURVE",
"284 -187 CURVE",
"284 -195 LINE"
);
}
);
width = 505;
},
{
anchors = (
{
name = bottom;
position = "{279, 0}";
},
{
name = top;
position = "{279, 495}";
}
);
layerId = "BFC82823-8905-47CE-90FC-B44BF62F9018";
paths = (
{
closed = 1;
nodes = (
"212 -10 OFFCURVE",
"223 -10 OFFCURVE",
"234 -8 CURVE",
"269 37 OFFCURVE",
"298 90 OFFCURVE",
"319 143 CURVE",
"319 173 LINE",
"298 168 OFFCURVE",
"282 165 OFFCURVE",
"269 165 CURVE SMOOTH",
"226 165 OFFCURVE",
"217 190 OFFCURVE",
"217 256 CURVE SMOOTH",
"217 313 OFFCURVE",
"224 371 OFFCURVE",
"243 417 CURVE",
"159 369 LINE",
"178 372 OFFCURVE",
"199 374 OFFCURVE",
"218 374 CURVE SMOOTH",
"294 374 OFFCURVE",
"369 349 OFFCURVE",
"442 299 CURVE",
"465 477 LINE",
"399 499 OFFCURVE",
"338 509 OFFCURVE",
"283 509 CURVE SMOOTH",
"115 509 OFFCURVE",
"10 409 OFFCURVE",
"10 234 CURVE SMOOTH",
"10 83 OFFCURVE",
"85 -10 OFFCURVE",
"201 -10 CURVE SMOOTH"
);
},
{
closed = 1;
nodes = (
"562 -188 LINE",
"562 -115 LINE",
"511 -93 LINE",
"511 509 LINE",
"314 454 LINE",
"299 -88 LINE",
"270 -98 OFFCURVE",
"246 -109 OFFCURVE",
"222 -122 CURVE",
"222 -188 LINE"
);
}
);
width = 555;
}
);
leftKerningGroup = o;
rightKerningGroup = q;
unicode = 0071;
},
{
color = 10;
glyphname = r;
layers = (
{
anchors = (
{
name = bottom;
position = "{122, 0}";
},
{
name = top;
position = "{195, 478}";
}
);
layerId = "0E5388DE-A0E6-4EB4-BC9B-CE5870C9023F";
rightMetricsKey = "=12";
paths = (
{
closed = 1;
nodes = (
"327 464 LINE",
"312 474 OFFCURVE",
"297 481 OFFCURVE",
"277 485 CURVE",
"227 466 OFFCURVE",
"181 439 OFFCURVE",
"139 400 CURVE",
"139 384 LINE",
"196 428 OFFCURVE",
"258 452 OFFCURVE",
"325 456 CURVE"
);
},
{
closed = 1;
nodes = (
"256 0 LINE",
"256 7 LINE",
"142 26 LINE",
"142 396 LINE",
"138 487 LINE",
"114 481 OFFCURVE",
"90 471 OFFCURVE",
"68 457 CURVE",
"116 406 LINE",
"107 27 LINE",
"70 23 OFFCURVE",
"46 16 OFFCURVE",
"25 8 CURVE",
"25 0 LINE"
);
}
);
width = 339;
},
{
anchors = (
{
name = bottom;
position = "{164, 0}";
},
{
name = top;
position = "{257, 495}";
}
);
layerId = "BFC82823-8905-47CE-90FC-B44BF62F9018";
rightMetricsKey = "=4";
paths = (
{
closed = 1;
nodes = (
"439 479 LINE",
"408 497 OFFCURVE",
"371 502 OFFCURVE",
"336 494 CURVE",
"301 445 OFFCURVE",
"275 395 OFFCURVE",
"251 336 CURVE",
"251 316 LINE",
"311 313 OFFCURVE",
"369 300 OFFCURVE",
"427 277 CURVE"
);
},
{
closed = 1;
nodes = (
"363 0 LINE",
"363 73 LINE",
"267 103 LINE",
"267 341 LINE",
"248 509 LINE",
"164 503 OFFCURVE",
"82 478 OFFCURVE",
"4 434 CURVE",
"66 330 LINE",
"55 100 LINE",
"44 91 OFFCURVE",
"34 80 OFFCURVE",
"23 66 CURVE",
"23 0 LINE"
);
}
);
width = 443;
}
);
leftKerningGroup = n;
rightKerningGroup = r;
unicode = 0072;
},
{
color = 10;
glyphname = s;
layers = (
{
anchors = (
{
name = bottom;
position = "{219, 0}";
},
{
name = top;
position = "{219, 478}";
}
);
background = {
paths = (
{
closed = 1;
nodes = (
"300 -7 OFFCURVE",
"378 38 OFFCURVE",
"378 112 CURVE SMOOTH",
"378 254 OFFCURVE",
"103 250 OFFCURVE",
"103 376 CURVE SMOOTH",
"103 410 OFFCURVE",
"122 443 OFFCURVE",
"154 456 CURVE",
"137 451 LINE",
"160 454 OFFCURVE",
"182 455 OFFCURVE",
"204 455 CURVE SMOOTH",
"252 455 OFFCURVE",
"297 449 OFFCURVE",
"353 436 CURVE",
"360 469 LINE",
"320 480 OFFCURVE",
"282 485 OFFCURVE",
"247 485 CURVE SMOOTH",
"145 485 OFFCURVE",
"74 441 OFFCURVE",
"74 368 CURVE SMOOTH",
"74 221 OFFCURVE",
"350 220 OFFCURVE",
"350 105 CURVE SMOOTH",
"350 75 OFFCURVE",
"326 32 OFFCURVE",
"289 21 CURVE",
"307 25 LINE",
"287 23 OFFCURVE",
"267 22 OFFCURVE",
"248 22 CURVE SMOOTH",
"188 22 OFFCURVE",
"133 29 OFFCURVE",
"72 42 CURVE",
"62 12 LINE",
"108 -1 OFFCURVE",
"152 -7 OFFCURVE",
"192 -7 CURVE SMOOTH"
);
},
{
closed = 1;
nodes = (
"98 12 LINE",
"74 151 LINE",
"66 151 LINE",
"62 12 LINE"
);
},
{
closed = 1;
nodes = (
"358 340 LINE",
"360 469 LINE",
"325 469 LINE",
"350 340 LINE"
);
}
);
};
layerId = "0E5388DE-A0E6-4EB4-BC9B-CE5870C9023F";
paths = (
{
closed = 1;
nodes = (
"300 -7 OFFCURVE",
"378 38 OFFCURVE",
"378 112 CURVE SMOOTH",
"378 254 OFFCURVE",
"103 250 OFFCURVE",
"103 376 CURVE SMOOTH",
"103 410 OFFCURVE",
"122 443 OFFCURVE",
"154 456 CURVE",
"137 451 LINE",
"160 454 OFFCURVE",
"182 455 OFFCURVE",
"204 455 CURVE SMOOTH",
"252 455 OFFCURVE",
"297 449 OFFCURVE",
"353 436 CURVE",
"360 469 LINE",
"320 480 OFFCURVE",
"282 485 OFFCURVE",
"247 485 CURVE SMOOTH",
"145 485 OFFCURVE",
"74 441 OFFCURVE",
"74 368 CURVE SMOOTH",
"74 221 OFFCURVE",
"350 220 OFFCURVE",
"350 105 CURVE SMOOTH",
"350 67 OFFCURVE",
"318 27 OFFCURVE",
"282 18 CURVE",
"315 25 LINE",
"294 23 OFFCURVE",
"272 22 OFFCURVE",
"249 22 CURVE SMOOTH",
"193 22 OFFCURVE",
"133 28 OFFCURVE",
"72 42 CURVE",
"62 12 LINE",
"108 -1 OFFCURVE",
"152 -7 OFFCURVE",
"192 -7 CURVE SMOOTH"
);
},
{
closed = 1;
nodes = (
"98 12 LINE",
"74 151 LINE",
"66 151 LINE",
"62 12 LINE"
);
},
{
closed = 1;
nodes = (
"358 340 LINE",
"360 469 LINE",
"325 469 LINE",
"350 340 LINE"
);
}
);
width = 436;
},
{
anchors = (
{
name = bottom;
position = "{250, 0}";
},
{
name = top;
position = "{250, 495}";
}
);
background = {
paths = (
{
closed = 1;
nodes = (
"101 4 OFFCURVE",
"170 -6 OFFCURVE",
"231 -6 CURVE SMOOTH",
"383 -6 OFFCURVE",
"481 53 OFFCURVE",
"481 153 CURVE SMOOTH",
"481 316 OFFCURVE",
"204 339 OFFCURVE",
"204 379 CURVE SMOOTH",
"204 381 OFFCURVE",
"204 382 OFFCURVE",
"205 384 CURVE",
"213 386 OFFCURVE",
"222 386 OFFCURVE",
"234 386 CURVE SMOOTH",
"286 386 OFFCURVE",
"367 370 OFFCURVE",
"409 346 CURVE",
"463 484 LINE",
"397 500 OFFCURVE",
"335 507 OFFCURVE",
"280 507 CURVE SMOOTH",
"129 507 OFFCURVE",
"31 450 OFFCURVE",
"31 348 CURVE SMOOTH",
"31 185 OFFCURVE",
"307 162 OFFCURVE",
"307 123 CURVE SMOOTH",
"307 121 OFFCURVE",
"307 120 OFFCURVE",
"306 118 CURVE",
"298 116 OFFCURVE",
"289 116 OFFCURVE",
"278 116 CURVE SMOOTH",
"227 116 OFFCURVE",
"147 131 OFFCURVE",
"105 155 CURVE",
"25 24 LINE"
);
},
{
closed = 1;
nodes = (
"119 193 LINE",
"29 193 LINE",
"25 24 LINE",
"206 21 LINE"
);
},
{
closed = 1;
nodes = (
"460 322 LINE",
"463 484 LINE",
"286 487 LINE",
"371 322 LINE"
);
}
);
};
layerId = "BFC82823-8905-47CE-90FC-B44BF62F9018";
paths = (
{
closed = 1;
nodes = (
"383 -6 OFFCURVE",
"481 53 OFFCURVE",
"481 153 CURVE SMOOTH",
"481 316 OFFCURVE",
"204 339 OFFCURVE",
"204 379 CURVE SMOOTH",
"204 387 OFFCURVE",
"205 395 OFFCURVE",
"216 410 CURVE",
"173 383 LINE",
"191 385 OFFCURVE",
"208 386 OFFCURVE",
"226 386 CURVE SMOOTH",
"285 386 OFFCURVE",
"346 375 OFFCURVE",
"410 349 CURVE",
"463 484 LINE",
"397 500 OFFCURVE",
"335 507 OFFCURVE",
"280 507 CURVE SMOOTH",
"129 507 OFFCURVE",
"31 450 OFFCURVE",
"31 348 CURVE SMOOTH",
"31 185 OFFCURVE",
"307 162 OFFCURVE",
"307 123 CURVE SMOOTH",
"307 114 OFFCURVE",
"304 106 OFFCURVE",
"292 85 CURVE",
"331 123 LINE",
"312 118 OFFCURVE",
"292 116 OFFCURVE",
"272 116 CURVE SMOOTH",
"221 116 OFFCURVE",
"164 131 OFFCURVE",
"105 155 CURVE",
"25 24 LINE",
"101 4 OFFCURVE",
"170 -6 OFFCURVE",
"231 -6 CURVE SMOOTH"
);
},
{
closed = 1;
nodes = (
"204 25 LINE",
"119 193 LINE",
"29 193 LINE",
"25 24 LINE"
);
},
{
closed = 1;
nodes = (
"460 322 LINE",
"463 484 LINE",
"286 487 LINE",
"371 322 LINE"
);
}
);
width = 499;
}
);
leftKerningGroup = s;
rightKerningGroup = s;
unicode = 0073;
},
{
color = 10;
glyphname = saltillo;
layers = (
{
layerId = "0E5388DE-A0E6-4EB4-BC9B-CE5870C9023F";
paths = (
{
closed = 1;
nodes = (
"108 295 LINE",
"137 575 LINE",
"128 577 OFFCURVE",
"119 578 OFFCURVE",
"109 578 CURVE SMOOTH",
"104 578 OFFCURVE",
"99 578 OFFCURVE",
"94 577 CURVE",
"91 296 LINE"
);
}
);
width = 215;
},
{
layerId = "BFC82823-8905-47CE-90FC-B44BF62F9018";
paths = (
{
closed = 1;
nodes = (
"160 234 LINE",
"217 563 LINE",
"175 573 OFFCURVE",
"131 578 OFFCURVE",
"88 578 CURVE SMOOTH",
"72 578 OFFCURVE",
"55 578 OFFCURVE",
"38 576 CURVE",
"50 242 LINE"
);
}
);
width = 234;
}
);
leftKerningGroup = saltillo;
rightKerningGroup = saltillo;
unicode = A78C;
},
